{"glyphs":{"0":{"ha":781,"x_min":118,"x_max":661,"o":"m 388 -12 q 192 58 265 -12 q 118 246 118 129 l 118 726 q 192 914 118 843 q 388 985 265 985 q 586 914 511 985 q 661 726 661 843 l 661 246 q 586 58 661 129 q 388 -12 511 -12 m 388 26 q 556 85 493 26 q 619 243 619 144 l 619 729 q 556 887 619 828 q 388 946 493 946 q 222 886 285 946 q 160 729 160 826 l 160 243 q 222 86 160 146 q 388 26 285 26 z "},"1":{"ha":483,"x_min":99,"x_max":324,"o":"m 274 968 q 292 972 281 972 l 310 972 q 324 958 324 972 l 324 14 q 310 0 324 0 l 296 0 q 282 14 282 0 l 282 911 q 280 915 282 914 q 275 915 278 917 l 122 838 q 114 835 117 835 q 103 844 104 835 l 100 854 q 99 860 99 856 q 107 872 99 868 l 274 968 z "},"2":{"ha":725,"x_min":93,"x_max":632,"o":"m 149 46 q 151 39 144 39 l 618 39 q 632 25 632 39 l 632 14 q 618 0 632 0 l 107 0 q 93 14 93 0 l 93 28 q 99 46 93 36 l 232 221 l 419 467 q 553 751 553 647 q 494 892 553 839 q 340 944 436 944 q 190 892 247 944 q 135 751 133 839 l 135 706 q 121 692 135 692 l 107 692 q 93 706 93 692 l 93 754 q 163 920 94 857 q 340 983 231 983 q 524 919 454 983 q 594 753 594 856 q 457 449 594 631 q 254 183 442 428 q 149 46 185 92 z "},"3":{"ha":696,"x_min":83,"x_max":586,"o":"m 558 456 q 586 288 586 388 q 569 154 586 211 q 485 31 544 72 q 335 -11 426 -11 q 178 39 242 -11 q 94 172 115 89 q 83 269 83 210 q 97 283 83 283 l 111 283 q 125 269 125 283 q 132 190 125 225 q 200 72 146 117 q 335 28 254 28 q 458 62 408 28 q 528 163 507 96 q 544 288 544 215 q 519 440 544 381 q 335 561 471 561 q 299 557 314 561 l 293 557 q 281 563 285 557 l 274 569 q 269 578 269 574 q 274 589 269 583 l 528 926 q 529 931 531 929 q 525 933 528 933 l 99 933 q 85 947 85 933 l 85 958 q 99 972 85 972 l 571 972 q 585 958 585 972 l 585 943 q 579 925 585 932 l 339 600 q 338 595 336 597 q 343 593 339 593 q 558 456 503 592 z "},"4":{"ha":721,"x_min":81,"x_max":626,"o":"m 613 317 q 626 303 626 317 l 626 293 q 613 279 626 279 l 554 279 q 549 274 549 279 l 549 14 q 535 0 549 0 l 521 0 q 507 14 507 0 l 507 274 q 501 279 507 279 l 94 279 q 81 293 81 279 l 81 307 q 85 324 81 314 l 388 963 q 404 972 392 972 l 417 972 q 426 967 424 972 q 426 956 429 963 l 128 324 q 128 319 126 321 q 132 317 129 317 l 501 317 q 507 322 507 317 l 507 575 q 521 589 507 589 l 535 589 q 549 575 549 589 l 549 322 q 554 317 549 317 l 613 317 z "},"5":{"ha":694,"x_min":108,"x_max":611,"o":"m 603 414 q 611 293 611 356 q 603 185 611 229 q 518 42 583 94 q 358 -11 453 -11 q 202 39 265 -11 q 118 171 139 89 q 108 221 110 208 q 122 235 108 235 l 138 235 q 151 221 151 235 l 156 190 q 224 72 171 117 q 358 28 278 28 q 495 75 440 28 q 564 204 550 122 q 569 293 569 233 q 564 394 569 339 q 499 517 554 475 q 358 558 443 558 q 231 526 286 558 q 156 439 175 494 l 153 433 q 139 424 151 424 l 122 424 q 108 438 108 424 l 108 958 q 122 972 108 972 l 554 972 q 568 958 568 972 l 568 947 q 554 933 568 933 l 156 933 q 150 928 150 933 l 150 514 q 152 510 150 511 q 157 511 154 508 q 242 574 189 551 q 360 597 296 597 q 523 550 457 597 q 603 414 589 503 z "},"6":{"ha":697,"x_min":108,"x_max":614,"o":"m 600 418 q 614 292 614 381 q 601 171 614 208 q 365 -11 547 -11 q 205 38 269 -11 q 119 171 140 86 q 108 294 108 215 l 108 739 q 178 917 108 851 q 356 983 247 983 q 527 920 463 983 q 592 751 592 857 l 592 744 q 578 731 592 731 l 564 731 q 550 744 550 731 l 550 754 q 496 892 550 839 q 356 944 442 944 q 208 890 265 944 q 150 740 150 835 l 150 483 q 152 479 150 479 q 157 482 154 479 q 240 569 189 543 q 361 596 292 596 q 517 550 460 596 q 600 418 575 504 m 563 190 q 572 293 572 229 q 563 399 572 360 q 495 513 549 468 q 360 558 442 558 q 225 513 279 558 q 158 397 171 468 q 150 292 150 358 q 157 189 150 231 q 224 74 169 119 q 361 28 278 28 q 492 69 436 28 q 563 190 547 110 z "},"7":{"ha":639,"x_min":64,"x_max":601,"o":"m 235 0 q 224 15 219 0 l 554 926 q 554 931 556 929 q 550 933 553 933 l 108 933 q 103 928 103 933 l 103 868 q 89 854 103 854 l 78 854 q 64 868 64 854 l 64 958 q 78 972 64 972 l 588 972 q 601 958 601 972 l 601 942 q 599 925 601 936 l 269 11 q 253 0 265 0 l 235 0 z "},"8":{"ha":710,"x_min":103,"x_max":607,"o":"m 583 399 q 607 265 607 340 q 563 92 607 160 q 478 15 532 42 q 356 -11 425 -11 q 228 18 282 -11 q 143 101 174 47 q 103 267 103 169 q 129 403 103 342 q 250 521 167 486 q 250 528 257 524 q 160 600 196 553 q 114 743 114 658 q 147 868 114 817 q 233 953 178 922 q 356 983 288 983 q 482 953 429 983 q 564 868 535 924 q 596 743 596 815 q 551 599 596 661 q 464 529 515 551 q 464 522 457 525 q 583 399 546 488 m 190 625 q 259 564 217 586 q 354 542 301 542 q 452 565 408 542 q 522 629 496 589 q 554 743 554 681 q 528 846 554 800 q 460 919 504 892 q 353 946 415 946 q 249 918 294 946 q 181 843 204 890 q 154 742 154 794 q 190 625 154 679 m 526 113 q 565 267 565 174 q 546 382 565 329 q 475 474 524 442 q 354 506 426 506 q 238 475 285 506 q 168 390 190 444 q 144 265 144 339 q 181 117 144 176 q 356 28 233 28 q 526 113 474 28 z "},"9":{"ha":717,"x_min":104,"x_max":608,"o":"m 597 801 q 608 678 608 757 l 608 233 q 539 55 608 121 q 361 -11 469 -11 q 190 52 254 -11 q 125 221 125 115 l 125 228 q 139 242 125 242 l 153 242 q 167 228 167 242 l 167 218 q 221 81 167 133 q 361 28 275 28 q 509 83 451 28 q 567 232 567 138 l 567 489 q 565 493 567 493 q 560 490 563 493 q 476 403 528 429 q 356 376 425 376 q 199 422 257 376 q 117 554 142 468 q 104 681 104 588 q 115 801 104 768 q 351 983 169 983 q 512 935 447 983 q 597 801 576 886 m 357 414 q 492 459 438 414 q 558 575 546 504 q 567 681 567 615 q 560 783 567 742 q 493 899 547 853 q 356 944 439 944 q 225 903 281 944 q 154 782 169 863 q 146 679 146 749 q 154 574 146 607 q 222 459 168 504 q 357 414 275 414 z "},"\u0000":{"ha":0,"x_min":0,"x_max":0,"o":""},"\r":{"ha":278,"x_min":0,"x_max":0,"o":""}," ":{"ha":278,"x_min":0,"x_max":0,"o":""},"A":{"ha":790,"x_min":53,"x_max":735,"o":"m 710 0 q 693 11 697 0 l 629 207 q 624 211 628 211 l 168 211 q 163 207 164 211 l 99 11 q 82 0 94 0 l 68 0 q 57 15 53 0 l 368 961 q 385 972 372 972 l 404 972 q 421 961 417 972 l 733 15 l 735 10 q 722 0 735 0 l 710 0 m 176 256 q 177 251 175 253 q 182 249 179 249 l 608 249 q 613 251 611 249 q 613 256 614 253 l 399 907 q 394 910 397 910 q 390 907 392 910 l 176 256 z "},"Á":{"ha":790,"x_min":53,"x_max":735,"o":"m 710 0 q 693 11 697 0 l 629 207 q 624 211 628 211 l 168 211 q 163 207 164 211 l 99 11 q 82 0 94 0 l 68 0 q 57 15 53 0 l 368 961 q 385 972 372 972 l 404 972 q 421 961 417 972 l 733 15 l 735 10 q 722 0 735 0 l 710 0 m 176 256 q 177 251 175 253 q 182 249 179 249 l 608 249 q 613 251 611 249 q 613 256 614 253 l 399 907 q 394 910 397 910 q 390 907 392 910 l 176 256 m 369 1067 q 358 1072 361 1067 q 360 1083 356 1076 l 446 1239 q 463 1249 450 1249 l 475 1249 q 486 1244 483 1249 q 485 1232 489 1239 l 394 1076 q 378 1067 388 1067 l 369 1067 z "},"Ă":{"ha":790,"x_min":53,"x_max":735,"o":"m 710 0 q 693 11 697 0 l 629 207 q 624 211 628 211 l 168 211 q 163 207 164 211 l 99 11 q 82 0 94 0 l 68 0 q 57 15 53 0 l 368 961 q 385 972 372 972 l 404 972 q 421 961 417 972 l 733 15 l 735 10 q 722 0 735 0 l 710 0 m 176 256 q 177 251 175 253 q 182 249 179 249 l 608 249 q 613 251 611 249 q 613 256 614 253 l 399 907 q 394 910 397 910 q 390 907 392 910 l 176 256 m 394 1060 q 299 1095 339 1060 q 253 1183 258 1131 l 253 1186 q 265 1197 253 1197 l 274 1197 q 289 1183 288 1197 q 324 1119 294 1144 q 394 1093 354 1093 q 465 1119 435 1093 q 499 1183 494 1144 q 514 1197 500 1197 l 524 1197 q 534 1193 531 1197 q 536 1183 538 1189 q 490 1095 531 1131 q 394 1060 450 1060 z "},"Ắ":{"ha":790,"x_min":53,"x_max":735,"o":"m 710 0 q 693 11 697 0 l 629 207 q 624 211 628 211 l 168 211 q 163 207 164 211 l 99 11 q 82 0 94 0 l 68 0 q 57 15 53 0 l 368 961 q 385 972 372 972 l 404 972 q 421 961 417 972 l 733 15 l 735 10 q 722 0 735 0 l 710 0 m 176 256 q 177 251 175 253 q 182 249 179 249 l 608 249 q 613 251 611 249 q 613 256 614 253 l 399 907 q 394 910 397 910 q 390 907 392 910 l 176 256 z "},"Ặ":{"ha":790,"x_min":53,"x_max":735,"o":"m 710 0 q 693 11 697 0 l 629 207 q 624 211 628 211 l 168 211 q 163 207 164 211 l 99 11 q 82 0 94 0 l 68 0 q 57 15 53 0 l 368 961 q 385 972 372 972 l 404 972 q 421 961 417 972 l 733 15 l 735 10 q 722 0 735 0 l 710 0 m 176 256 q 177 251 175 253 q 182 249 179 249 l 608 249 q 613 251 611 249 q 613 256 614 253 l 399 907 q 394 910 397 910 q 390 907 392 910 l 176 256 m 396 -229 q 356 -213 372 -229 q 340 -174 340 -197 q 356 -133 340 -149 q 396 -117 372 -117 q 435 -133 419 -117 q 451 -174 451 -149 q 435 -213 451 -197 q 396 -229 419 -229 m 393 1097 q 297 1133 338 1097 q 251 1221 257 1168 l 251 1224 q 264 1235 251 1235 l 272 1235 q 288 1221 286 1235 q 323 1156 293 1182 q 393 1131 353 1131 q 465 1156 435 1131 q 499 1221 494 1182 q 514 1235 500 1235 l 522 1235 q 536 1221 536 1235 q 490 1133 531 1168 q 393 1097 449 1097 z "},"Ằ":{"ha":790,"x_min":53,"x_max":735,"o":"m 710 0 q 693 11 697 0 l 629 207 q 624 211 628 211 l 168 211 q 163 207 164 211 l 99 11 q 82 0 94 0 l 68 0 q 57 15 53 0 l 368 961 q 385 972 372 972 l 404 972 q 421 961 417 972 l 733 15 l 735 10 q 722 0 735 0 l 710 0 m 176 256 q 177 251 175 253 q 182 249 179 249 l 608 249 q 613 251 611 249 q 613 256 614 253 l 399 907 q 394 910 397 910 q 390 907 392 910 l 176 256 z "},"Ẳ":{"ha":790,"x_min":53,"x_max":735,"o":"m 710 0 q 693 11 697 0 l 629 207 q 624 211 628 211 l 168 211 q 163 207 164 211 l 99 11 q 82 0 94 0 l 68 0 q 57 15 53 0 l 368 961 q 385 972 372 972 l 404 972 q 421 961 417 972 l 733 15 l 735 10 q 722 0 735 0 l 710 0 m 176 256 q 177 251 175 253 q 182 249 179 249 l 608 249 q 613 251 611 249 q 613 256 614 253 l 399 907 q 394 910 397 910 q 390 907 392 910 l 176 256 z "},"Ẵ":{"ha":790,"x_min":53,"x_max":735,"o":"m 710 0 q 693 11 697 0 l 629 207 q 624 211 628 211 l 168 211 q 163 207 164 211 l 99 11 q 82 0 94 0 l 68 0 q 57 15 53 0 l 368 961 q 385 972 372 972 l 404 972 q 421 961 417 972 l 733 15 l 735 10 q 722 0 735 0 l 710 0 m 176 256 q 177 251 175 253 q 182 249 179 249 l 608 249 q 613 251 611 249 q 613 256 614 253 l 399 907 q 394 910 397 910 q 390 907 392 910 l 176 256 m 481 1300 q 400 1332 443 1300 q 365 1354 379 1347 q 332 1361 351 1361 q 292 1353 308 1361 q 257 1322 275 1346 q 249 1317 254 1318 q 240 1318 244 1315 l 235 1321 l 232 1322 q 229 1342 221 1331 q 332 1399 269 1399 q 372 1391 354 1399 q 413 1368 389 1383 q 431 1356 417 1365 q 458 1341 446 1346 q 482 1336 471 1336 q 522 1346 504 1336 q 558 1381 540 1356 q 576 1385 565 1394 l 581 1382 q 586 1372 586 1378 q 581 1357 586 1364 q 534 1314 561 1328 q 481 1300 507 1300 m 394 1097 q 299 1133 339 1097 q 253 1221 258 1168 l 253 1224 q 265 1235 253 1235 l 274 1235 q 289 1221 288 1235 q 323 1156 293 1182 q 394 1131 353 1131 q 466 1156 436 1131 q 500 1221 496 1182 q 515 1235 501 1235 l 524 1235 q 534 1231 531 1235 q 536 1221 538 1226 q 490 1133 531 1168 q 394 1097 450 1097 z "},"Ǎ":{"ha":790,"x_min":53,"x_max":735,"o":"m 710 0 q 693 11 697 0 l 629 207 q 624 211 628 211 l 168 211 q 163 207 164 211 l 99 11 q 82 0 94 0 l 68 0 q 57 15 53 0 l 368 961 q 385 972 372 972 l 404 972 q 421 961 417 972 l 733 15 l 735 10 q 722 0 735 0 l 710 0 m 176 256 q 177 251 175 253 q 182 249 179 249 l 608 249 q 613 251 611 249 q 613 256 614 253 l 399 907 q 394 910 397 910 q 390 907 392 910 l 176 256 z "},"Â":{"ha":790,"x_min":53,"x_max":735,"o":"m 710 0 q 693 11 697 0 l 629 207 q 624 211 628 211 l 168 211 q 163 207 164 211 l 99 11 q 82 0 94 0 l 68 0 q 57 15 53 0 l 368 961 q 385 972 372 972 l 404 972 q 421 961 417 972 l 733 15 l 735 10 q 722 0 735 0 l 710 0 m 176 256 q 177 251 175 253 q 182 249 179 249 l 608 249 q 613 251 611 249 q 613 256 614 253 l 399 907 q 394 910 397 910 q 390 907 392 910 l 176 256 m 258 1075 q 247 1081 250 1075 q 250 1092 244 1086 l 365 1240 q 383 1249 372 1249 l 401 1249 q 419 1240 414 1249 l 535 1092 q 538 1083 538 1089 q 535 1078 538 1081 q 526 1075 532 1075 l 514 1075 q 496 1083 501 1075 l 399 1213 q 394 1215 397 1215 q 390 1213 392 1215 l 289 1083 q 271 1075 283 1075 l 258 1075 z "},"Ấ":{"ha":790,"x_min":53,"x_max":735,"o":"m 710 0 q 693 11 697 0 l 629 207 q 624 211 628 211 l 168 211 q 163 207 164 211 l 99 11 q 82 0 94 0 l 68 0 q 57 15 53 0 l 368 961 q 385 972 372 972 l 404 972 q 421 961 417 972 l 733 15 l 735 10 q 722 0 735 0 l 710 0 m 176 256 q 177 251 175 253 q 182 249 179 249 l 608 249 q 613 251 611 249 q 613 256 614 253 l 399 907 q 394 910 397 910 q 390 907 392 910 l 176 256 z "},"Ậ":{"ha":790,"x_min":53,"x_max":735,"o":"m 710 0 q 693 11 697 0 l 629 207 q 624 211 628 211 l 168 211 q 163 207 164 211 l 99 11 q 82 0 94 0 l 68 0 q 57 15 53 0 l 368 961 q 385 972 372 972 l 404 972 q 421 961 417 972 l 733 15 l 735 10 q 722 0 735 0 l 710 0 m 176 256 q 177 251 175 253 q 182 249 179 249 l 608 249 q 613 251 611 249 q 613 256 614 253 l 399 907 q 394 910 397 910 q 390 907 392 910 l 176 256 m 396 -229 q 356 -213 372 -229 q 340 -174 340 -197 q 356 -133 340 -149 q 396 -117 372 -117 q 435 -133 419 -117 q 451 -174 451 -149 q 435 -213 451 -197 q 396 -229 419 -229 m 258 1075 q 247 1081 250 1075 q 250 1092 244 1086 l 365 1240 q 383 1249 372 1249 l 401 1249 q 419 1240 414 1249 l 535 1092 q 538 1083 538 1089 q 535 1078 538 1081 q 526 1075 532 1075 l 514 1075 q 496 1083 501 1075 l 399 1213 q 394 1215 397 1215 q 390 1213 392 1215 l 289 1083 q 271 1075 283 1075 l 258 1075 z "},"Ầ":{"ha":790,"x_min":53,"x_max":735,"o":"m 710 0 q 693 11 697 0 l 629 207 q 624 211 628 211 l 168 211 q 163 207 164 211 l 99 11 q 82 0 94 0 l 68 0 q 57 15 53 0 l 368 961 q 385 972 372 972 l 404 972 q 421 961 417 972 l 733 15 l 735 10 q 722 0 735 0 l 710 0 m 176 256 q 177 251 175 253 q 182 249 179 249 l 608 249 q 613 251 611 249 q 613 256 614 253 l 399 907 q 394 910 397 910 q 390 907 392 910 l 176 256 z "},"Ẩ":{"ha":790,"x_min":53,"x_max":735,"o":"m 710 0 q 693 11 697 0 l 629 207 q 624 211 628 211 l 168 211 q 163 207 164 211 l 99 11 q 82 0 94 0 l 68 0 q 57 15 53 0 l 368 961 q 385 972 372 972 l 404 972 q 421 961 417 972 l 733 15 l 735 10 q 722 0 735 0 l 710 0 m 176 256 q 177 251 175 253 q 182 249 179 249 l 608 249 q 613 251 611 249 q 613 256 614 253 l 399 907 q 394 910 397 910 q 390 907 392 910 l 176 256 z "},"Ẫ":{"ha":790,"x_min":53,"x_max":735,"o":"m 710 0 q 693 11 697 0 l 629 207 q 624 211 628 211 l 168 211 q 163 207 164 211 l 99 11 q 82 0 94 0 l 68 0 q 57 15 53 0 l 368 961 q 385 972 372 972 l 404 972 q 421 961 417 972 l 733 15 l 735 10 q 722 0 735 0 l 710 0 m 176 256 q 177 251 175 253 q 182 249 179 249 l 608 249 q 613 251 611 249 q 613 256 614 253 l 399 907 q 394 910 397 910 q 390 907 392 910 l 176 256 z "},"Ä":{"ha":790,"x_min":53,"x_max":735,"o":"m 710 0 q 693 11 697 0 l 629 207 q 624 211 628 211 l 168 211 q 163 207 164 211 l 99 11 q 82 0 94 0 l 68 0 q 57 15 53 0 l 368 961 q 385 972 372 972 l 404 972 q 421 961 417 972 l 733 15 l 735 10 q 722 0 735 0 l 710 0 m 176 256 q 177 251 175 253 q 182 249 179 249 l 608 249 q 613 251 611 249 q 613 256 614 253 l 399 907 q 394 910 397 910 q 390 907 392 910 l 176 256 z "},"Ạ":{"ha":790,"x_min":53,"x_max":735,"o":"m 710 0 q 693 11 697 0 l 629 207 q 624 211 628 211 l 168 211 q 163 207 164 211 l 99 11 q 82 0 94 0 l 68 0 q 57 15 53 0 l 368 961 q 385 972 372 972 l 404 972 q 421 961 417 972 l 733 15 l 735 10 q 722 0 735 0 l 710 0 m 176 256 q 177 251 175 253 q 182 249 179 249 l 608 249 q 613 251 611 249 q 613 256 614 253 l 399 907 q 394 910 397 910 q 390 907 392 910 l 176 256 m 396 -229 q 356 -213 372 -229 q 340 -174 340 -197 q 356 -133 340 -149 q 396 -117 372 -117 q 435 -133 419 -117 q 451 -174 451 -149 q 435 -213 451 -197 q 396 -229 419 -229 z "},"À":{"ha":790,"x_min":53,"x_max":735,"o":"m 710 0 q 693 11 697 0 l 629 207 q 624 211 628 211 l 168 211 q 163 207 164 211 l 99 11 q 82 0 94 0 l 68 0 q 57 15 53 0 l 368 961 q 385 972 372 972 l 404 972 q 421 961 417 972 l 733 15 l 735 10 q 722 0 735 0 l 710 0 m 176 256 q 177 251 175 253 q 182 249 179 249 l 608 249 q 613 251 611 249 q 613 256 614 253 l 399 907 q 394 910 397 910 q 390 907 392 910 l 176 256 m 410 1083 q 413 1075 413 1078 q 401 1067 413 1067 l 393 1067 q 376 1076 383 1067 l 286 1232 q 283 1240 283 1238 q 296 1249 283 1249 l 308 1249 q 325 1239 321 1249 l 410 1083 z "},"Ả":{"ha":790,"x_min":53,"x_max":735,"o":"m 710 0 q 693 11 697 0 l 629 207 q 624 211 628 211 l 168 211 q 163 207 164 211 l 99 11 q 82 0 94 0 l 68 0 q 57 15 53 0 l 368 961 q 385 972 372 972 l 404 972 q 421 961 417 972 l 733 15 l 735 10 q 722 0 735 0 l 710 0 m 176 256 q 177 251 175 253 q 182 249 179 249 l 608 249 q 613 251 611 249 q 613 256 614 253 l 399 907 q 394 910 397 910 q 390 907 392 910 l 176 256 m 390 1040 q 381 1048 383 1043 q 382 1058 379 1053 q 429 1121 396 1090 q 459 1154 450 1140 q 468 1190 468 1168 q 448 1231 468 1214 q 399 1249 428 1249 q 353 1238 369 1249 q 318 1197 338 1226 q 299 1193 310 1185 l 294 1196 q 290 1215 285 1203 q 336 1267 314 1251 q 400 1282 358 1282 q 474 1256 444 1282 q 503 1190 503 1229 q 490 1140 503 1160 q 449 1092 476 1119 q 413 1050 422 1068 l 410 1044 q 394 1039 404 1035 l 390 1040 z "},"Ā":{"ha":790,"x_min":53,"x_max":735,"o":"m 710 0 q 693 11 697 0 l 629 207 q 624 211 628 211 l 168 211 q 163 207 164 211 l 99 11 q 82 0 94 0 l 68 0 q 57 15 53 0 l 368 961 q 385 972 372 972 l 404 972 q 421 961 417 972 l 733 15 l 735 10 q 722 0 735 0 l 710 0 m 176 256 q 177 251 175 253 q 182 249 179 249 l 608 249 q 613 251 611 249 q 613 256 614 253 l 399 907 q 394 910 397 910 q 390 907 392 910 l 176 256 m 232 1114 q 218 1128 218 1114 l 218 1136 q 232 1150 218 1150 l 557 1150 q 571 1136 571 1150 l 571 1128 q 557 1114 571 1114 l 232 1114 z "},"Ą":{"ha":790,"x_min":53,"x_max":779,"o":"m 710 0 q 693 11 697 0 l 629 207 q 624 211 628 211 l 168 211 q 163 207 164 211 l 99 11 q 82 0 94 0 l 68 0 q 57 15 53 0 l 368 961 q 385 972 372 972 l 404 972 q 421 961 417 972 l 733 15 l 735 10 q 722 0 735 0 l 710 0 m 176 256 q 177 251 175 253 q 182 249 179 249 l 608 249 q 613 251 611 249 q 613 256 614 253 l 399 907 q 394 910 397 910 q 390 907 392 910 l 176 256 m 779 -239 q 767 -250 779 -249 q 726 -254 749 -254 q 653 -235 683 -254 q 613 -172 622 -215 q 610 -144 610 -153 q 693 -6 610 -69 q 711 0 700 0 l 713 0 q 724 -6 722 0 q 719 -17 726 -11 q 649 -143 649 -82 q 671 -201 649 -182 q 726 -221 693 -221 q 758 -217 742 -221 l 764 -217 q 772 -219 769 -217 q 776 -226 775 -221 l 778 -233 l 779 -239 z "},"Å":{"ha":790,"x_min":53,"x_max":735,"o":"m 710 0 q 693 11 697 0 l 629 207 q 624 211 628 211 l 168 211 q 163 207 164 211 l 99 11 q 82 0 94 0 l 68 0 q 57 15 53 0 l 368 961 q 385 972 372 972 l 404 972 q 421 961 417 972 l 733 15 l 735 10 q 722 0 735 0 l 710 0 m 176 256 q 177 251 175 253 q 182 249 179 249 l 608 249 q 613 251 611 249 q 613 256 614 253 l 399 907 q 394 910 397 910 q 390 907 392 910 l 176 256 m 394 1093 q 295 1133 336 1093 q 254 1231 254 1174 q 295 1328 254 1288 q 394 1368 336 1368 q 493 1328 453 1368 q 533 1231 533 1288 q 493 1133 533 1174 q 394 1093 453 1093 m 394 1128 q 468 1157 438 1128 q 499 1231 499 1186 q 468 1303 499 1274 q 394 1333 438 1333 q 320 1303 351 1333 q 289 1231 289 1274 q 320 1158 289 1188 q 394 1128 351 1128 z "},"Ã":{"ha":790,"x_min":53,"x_max":735,"o":"m 710 0 q 693 11 697 0 l 629 207 q 624 211 628 211 l 168 211 q 163 207 164 211 l 99 11 q 82 0 94 0 l 68 0 q 57 15 53 0 l 368 961 q 385 972 372 972 l 404 972 q 421 961 417 972 l 733 15 l 735 10 q 722 0 735 0 l 710 0 m 176 256 q 177 251 175 253 q 182 249 179 249 l 608 249 q 613 251 611 249 q 613 256 614 253 l 399 907 q 394 910 397 910 q 390 907 392 910 l 176 256 m 481 1139 q 399 1171 442 1139 q 363 1194 376 1188 q 331 1201 349 1201 q 289 1193 306 1201 q 254 1161 272 1185 q 247 1156 251 1157 q 238 1157 242 1154 l 232 1160 l 229 1161 q 226 1181 218 1169 q 329 1239 268 1239 q 368 1231 351 1239 q 413 1207 385 1224 q 431 1194 417 1204 q 458 1180 446 1185 q 482 1175 471 1175 q 557 1217 525 1175 l 560 1222 q 567 1227 563 1226 q 576 1225 572 1228 l 582 1221 q 588 1210 588 1217 q 582 1196 588 1203 q 535 1153 563 1167 q 481 1139 507 1139 z "},"Æ":{"ha":1247,"x_min":56,"x_max":1151,"o":"m 1151 947 q 1138 933 1151 933 l 647 933 q 642 928 642 933 l 642 513 q 647 507 642 507 l 986 507 q 1000 493 1000 507 l 1000 482 q 986 468 1000 468 l 647 468 q 642 463 642 468 l 642 44 q 647 39 642 39 l 1138 39 q 1151 25 1151 39 l 1151 14 q 1138 0 1151 0 l 614 0 q 600 14 600 0 l 600 206 q 594 211 600 211 l 215 211 q 208 207 211 211 l 104 10 q 88 0 100 0 l 71 0 q 59 5 63 0 q 60 17 56 10 l 569 963 q 586 972 574 972 l 1138 972 q 1151 958 1151 972 l 1151 947 m 236 256 q 239 249 233 249 l 594 249 q 600 254 600 249 l 600 922 q 598 926 600 926 q 593 924 596 926 l 236 256 z "},"B":{"ha":876,"x_min":157,"x_max":758,"o":"m 597 506 q 593 503 593 504 q 597 500 593 501 q 716 410 674 472 q 758 260 758 347 q 685 71 758 142 q 490 0 611 0 l 171 0 q 157 14 157 0 l 157 958 q 171 972 157 972 l 482 972 q 676 905 603 972 q 749 725 749 838 q 709 590 749 647 q 597 506 669 533 m 204 933 q 199 928 199 933 l 199 528 q 204 522 199 522 l 482 522 q 645 578 583 522 q 707 724 707 633 q 645 876 707 818 q 482 933 583 933 l 204 933 m 490 40 q 655 101 593 40 q 717 261 717 161 q 653 423 717 363 q 483 483 589 483 l 204 483 q 199 478 199 483 l 199 46 q 204 40 199 40 l 490 40 z "},"C":{"ha":842,"x_min":121,"x_max":733,"o":"m 428 -12 q 267 24 336 -12 q 159 126 197 60 q 121 279 121 193 l 121 696 q 159 846 121 781 q 267 947 197 911 q 428 983 336 983 q 588 947 518 983 q 695 846 657 911 q 733 696 733 781 l 733 694 q 719 681 733 681 l 706 681 q 692 693 692 681 l 692 697 q 619 876 692 808 q 428 944 547 944 q 235 876 308 944 q 163 697 163 808 l 163 275 q 235 95 163 164 q 428 26 308 26 q 619 95 546 26 q 692 275 692 164 l 692 278 q 706 292 692 292 l 719 290 q 733 278 733 290 q 695 126 733 192 q 588 24 657 60 q 428 -12 518 -12 z "},"Ć":{"ha":842,"x_min":121,"x_max":733,"o":"m 428 -12 q 267 24 336 -12 q 159 126 197 60 q 121 279 121 193 l 121 696 q 159 846 121 781 q 267 947 197 911 q 428 983 336 983 q 588 947 518 983 q 695 846 657 911 q 733 696 733 781 l 733 694 q 719 681 733 681 l 706 681 q 692 693 692 681 l 692 697 q 619 876 692 808 q 428 944 547 944 q 235 876 308 944 q 163 697 163 808 l 163 275 q 235 95 163 164 q 428 26 308 26 q 619 95 546 26 q 692 275 692 164 l 692 278 q 706 292 692 292 l 719 290 q 733 278 733 290 q 695 126 733 192 q 588 24 657 60 q 428 -12 518 -12 m 403 1067 q 392 1072 394 1067 q 393 1083 389 1076 l 479 1239 q 496 1249 483 1249 l 508 1249 q 519 1244 517 1249 q 518 1232 522 1239 l 428 1076 q 411 1067 421 1067 l 403 1067 z "},"Č":{"ha":842,"x_min":121,"x_max":733,"o":"m 428 -12 q 267 24 336 -12 q 159 126 197 60 q 121 279 121 193 l 121 696 q 159 846 121 781 q 267 947 197 911 q 428 983 336 983 q 588 947 518 983 q 695 846 657 911 q 733 696 733 781 l 733 694 q 719 681 733 681 l 706 681 q 692 693 692 681 l 692 697 q 619 876 692 808 q 428 944 547 944 q 235 876 308 944 q 163 697 163 808 l 163 275 q 235 95 163 164 q 428 26 308 26 q 619 95 546 26 q 692 275 692 164 l 692 278 q 706 292 692 292 l 719 290 q 733 278 733 290 q 695 126 733 192 q 588 24 657 60 q 428 -12 518 -12 m 285 1232 q 282 1240 282 1235 q 285 1246 282 1243 q 293 1249 288 1249 l 306 1249 q 324 1240 318 1249 l 425 1111 q 429 1108 426 1108 q 433 1111 432 1108 l 531 1240 q 549 1249 536 1249 l 561 1249 q 572 1244 569 1249 q 569 1232 575 1239 l 454 1083 q 436 1075 449 1075 l 418 1075 q 400 1083 406 1075 l 285 1232 z "},"Ç":{"ha":842,"x_min":121,"x_max":733,"o":"m 733 689 q 729 683 733 686 q 719 681 725 681 l 706 681 q 692 693 692 681 l 692 697 q 619 876 692 808 q 428 944 547 944 q 235 876 308 944 q 163 697 163 808 l 163 275 q 235 95 163 164 q 428 26 308 26 q 619 95 546 26 q 692 275 692 164 l 692 278 q 706 292 692 292 l 719 290 q 733 278 733 290 q 695 126 733 192 q 588 24 657 60 q 428 -12 518 -12 l 404 -12 q 400 -15 400 -12 q 403 -18 400 -17 q 479 -151 479 -81 q 476 -179 479 -160 q 437 -242 468 -222 q 363 -261 406 -261 q 321 -257 342 -261 q 311 -240 307 -254 l 313 -235 q 329 -225 317 -222 q 360 -228 351 -228 q 418 -209 396 -228 q 440 -150 440 -190 q 369 -24 440 -89 q 359 -13 363 -18 q 356 -7 356 -8 l 338 -3 q 179 96 238 21 q 121 279 121 171 l 121 696 q 159 846 121 781 q 267 947 197 911 q 428 983 336 983 q 588 947 518 983 q 695 846 657 911 q 733 696 733 781 l 733 689 z "},"Ĉ":{"ha":842,"x_min":121,"x_max":733,"o":"m 428 -12 q 267 24 336 -12 q 159 126 197 60 q 121 279 121 193 l 121 696 q 159 846 121 781 q 267 947 197 911 q 428 983 336 983 q 588 947 518 983 q 695 846 657 911 q 733 696 733 781 l 733 694 q 719 681 733 681 l 706 681 q 692 693 692 681 l 692 697 q 619 876 692 808 q 428 944 547 944 q 235 876 308 944 q 163 697 163 808 l 163 275 q 235 95 163 164 q 428 26 308 26 q 619 95 546 26 q 692 275 692 164 l 692 278 q 706 292 692 292 l 719 290 q 733 278 733 290 q 695 126 733 192 q 588 24 657 60 q 428 -12 518 -12 m 293 1075 q 282 1081 285 1075 q 285 1092 279 1086 l 400 1240 q 418 1249 407 1249 l 436 1249 q 454 1240 449 1249 l 569 1092 q 572 1083 572 1089 q 569 1078 572 1081 q 561 1075 567 1075 l 549 1075 q 531 1083 536 1075 l 433 1213 q 429 1215 432 1215 q 425 1213 426 1215 l 324 1083 q 306 1075 318 1075 l 293 1075 z "},"Ċ":{"ha":842,"x_min":121,"x_max":733,"o":"m 428 -12 q 267 24 336 -12 q 159 126 197 60 q 121 279 121 193 l 121 696 q 159 846 121 781 q 267 947 197 911 q 428 983 336 983 q 588 947 518 983 q 695 846 657 911 q 733 696 733 781 l 733 694 q 719 681 733 681 l 706 681 q 692 693 692 681 l 692 697 q 619 876 692 808 q 428 944 547 944 q 235 876 308 944 q 163 697 163 808 l 163 275 q 235 95 163 164 q 428 26 308 26 q 619 95 546 26 q 692 275 692 164 l 692 278 q 706 292 692 292 l 719 290 q 733 278 733 290 q 695 126 733 192 q 588 24 657 60 q 428 -12 518 -12 m 426 1128 q 383 1144 400 1128 q 367 1188 367 1161 q 383 1229 367 1213 q 426 1246 400 1246 q 469 1229 453 1246 q 486 1188 486 1213 q 469 1144 486 1161 q 426 1128 453 1128 z "},"D":{"ha":858,"x_min":157,"x_max":758,"o":"m 171 0 q 157 14 157 0 l 157 958 q 171 972 157 972 l 486 972 q 685 905 613 972 q 758 719 758 838 l 758 253 q 685 67 758 135 q 486 0 613 0 l 171 0 m 199 44 q 204 39 199 39 l 489 39 q 656 97 594 39 q 717 254 717 154 l 717 717 q 656 876 717 818 q 489 933 594 933 l 204 933 q 199 928 199 933 l 199 44 z "},"Ð":{"ha":960,"x_min":157,"x_max":860,"o":"m 588 972 q 787 905 714 972 q 860 719 860 838 l 860 253 q 787 67 860 135 q 588 0 714 0 l 274 0 q 260 14 260 0 l 260 485 q 254 490 260 490 l 171 490 q 157 504 157 490 l 157 513 q 171 526 157 526 l 254 526 q 260 532 260 526 l 260 958 q 274 972 260 972 l 588 972 m 818 717 q 758 876 818 818 q 592 933 697 933 l 307 933 q 301 928 301 933 l 301 532 q 307 526 301 526 l 501 526 q 515 513 515 526 l 515 504 q 501 490 515 490 l 307 490 q 301 485 301 490 l 301 44 q 307 39 301 39 l 592 39 q 758 97 697 39 q 818 254 818 154 l 818 717 z "},"Ď":{"ha":858,"x_min":157,"x_max":758,"o":"m 171 0 q 157 14 157 0 l 157 958 q 171 972 157 972 l 486 972 q 685 905 613 972 q 758 719 758 838 l 758 253 q 685 67 758 135 q 486 0 613 0 l 171 0 m 199 44 q 204 39 199 39 l 489 39 q 656 97 594 39 q 717 254 717 154 l 717 717 q 656 876 717 818 q 489 933 594 933 l 204 933 q 199 928 199 933 l 199 44 z "},"Đ":{"ha":960,"x_min":157,"x_max":860,"o":"m 588 972 q 787 905 714 972 q 860 719 860 838 l 860 253 q 787 67 860 135 q 588 0 714 0 l 274 0 q 260 14 260 0 l 260 485 q 254 490 260 490 l 171 490 q 157 504 157 490 l 157 513 q 171 526 157 526 l 254 526 q 260 532 260 526 l 260 958 q 274 972 260 972 l 588 972 m 818 717 q 758 876 818 818 q 592 933 697 933 l 307 933 q 301 928 301 933 l 301 532 q 307 526 301 526 l 501 526 q 515 513 515 526 l 515 504 q 501 490 515 490 l 307 490 q 301 485 301 490 l 301 44 q 307 39 301 39 l 592 39 q 758 97 697 39 q 818 254 818 154 l 818 717 z "},"E":{"ha":858,"x_min":157,"x_max":761,"o":"m 761 947 q 747 933 761 933 l 204 933 q 199 928 199 933 l 199 513 q 204 507 199 507 l 596 507 q 610 493 610 507 l 610 482 q 596 468 610 468 l 204 468 q 199 463 199 468 l 199 44 q 204 39 199 39 l 747 39 q 761 25 761 39 l 761 14 q 747 0 761 0 l 171 0 q 157 14 157 0 l 157 958 q 171 972 157 972 l 747 972 q 761 958 761 972 l 761 947 z "},"É":{"ha":858,"x_min":157,"x_max":761,"o":"m 761 947 q 747 933 761 933 l 204 933 q 199 928 199 933 l 199 513 q 204 507 199 507 l 596 507 q 610 493 610 507 l 610 482 q 596 468 610 468 l 204 468 q 199 463 199 468 l 199 44 q 204 39 199 39 l 747 39 q 761 25 761 39 l 761 14 q 747 0 761 0 l 171 0 q 157 14 157 0 l 157 958 q 171 972 157 972 l 747 972 q 761 958 761 972 l 761 947 m 428 1067 q 417 1072 419 1067 q 418 1083 414 1076 l 504 1239 q 521 1249 508 1249 l 533 1249 q 544 1244 542 1249 q 543 1232 547 1239 l 453 1076 q 436 1067 446 1067 l 428 1067 z "},"Ě":{"ha":858,"x_min":157,"x_max":761,"o":"m 761 947 q 747 933 761 933 l 204 933 q 199 928 199 933 l 199 513 q 204 507 199 507 l 596 507 q 610 493 610 507 l 610 482 q 596 468 610 468 l 204 468 q 199 463 199 468 l 199 44 q 204 39 199 39 l 747 39 q 761 25 761 39 l 761 14 q 747 0 761 0 l 171 0 q 157 14 157 0 l 157 958 q 171 972 157 972 l 747 972 q 761 958 761 972 l 761 947 m 308 1232 q 306 1240 306 1235 q 308 1246 306 1243 q 317 1249 311 1249 l 329 1249 q 347 1240 342 1249 l 449 1111 q 453 1108 450 1108 q 457 1111 456 1108 l 554 1240 q 572 1249 560 1249 l 585 1249 q 596 1244 593 1249 q 593 1232 599 1239 l 478 1083 q 460 1075 472 1075 l 442 1075 q 424 1083 429 1075 l 308 1232 z "},"Ȩ":{"ha":858,"x_min":157,"x_max":761,"o":"m 761 947 q 747 933 761 933 l 204 933 q 199 928 199 933 l 199 513 q 204 507 199 507 l 596 507 q 610 493 610 507 l 610 482 q 596 468 610 468 l 204 468 q 199 463 199 468 l 199 44 q 204 39 199 39 l 747 39 q 761 25 761 39 l 761 14 q 747 0 761 0 l 483 0 q 479 -3 481 0 q 481 -7 478 -6 q 557 -137 557 -68 q 524 -222 557 -196 q 442 -249 492 -249 q 399 -244 419 -249 q 389 -228 385 -242 l 390 -222 q 407 -212 394 -210 q 438 -215 429 -215 q 496 -197 474 -215 q 518 -137 518 -178 q 438 -3 518 -75 q 431 0 436 0 l 171 0 q 157 14 157 0 l 157 958 q 171 972 157 972 l 747 972 q 761 958 761 972 l 761 947 z "},"Ê":{"ha":858,"x_min":157,"x_max":761,"o":"m 761 947 q 747 933 761 933 l 204 933 q 199 928 199 933 l 199 513 q 204 507 199 507 l 596 507 q 610 493 610 507 l 610 482 q 596 468 610 468 l 204 468 q 199 463 199 468 l 199 44 q 204 39 199 39 l 747 39 q 761 25 761 39 l 761 14 q 747 0 761 0 l 171 0 q 157 14 157 0 l 157 958 q 171 972 157 972 l 747 972 q 761 958 761 972 l 761 947 m 317 1075 q 306 1081 308 1075 q 308 1092 303 1086 l 424 1240 q 442 1249 431 1249 l 460 1249 q 478 1240 472 1249 l 593 1092 q 596 1083 596 1089 q 593 1078 596 1081 q 585 1075 590 1075 l 572 1075 q 554 1083 560 1075 l 457 1213 q 453 1215 456 1215 q 449 1213 450 1215 l 347 1083 q 329 1075 342 1075 l 317 1075 z "},"Ế":{"ha":858,"x_min":157,"x_max":761,"o":"m 761 947 q 747 933 761 933 l 204 933 q 199 928 199 933 l 199 513 q 204 507 199 507 l 596 507 q 610 493 610 507 l 610 482 q 596 468 610 468 l 204 468 q 199 463 199 468 l 199 44 q 204 39 199 39 l 747 39 q 761 25 761 39 l 761 14 q 747 0 761 0 l 171 0 q 157 14 157 0 l 157 958 q 171 972 157 972 l 747 972 q 761 958 761 972 l 761 947 z "},"Ệ":{"ha":858,"x_min":157,"x_max":761,"o":"m 761 947 q 747 933 761 933 l 204 933 q 199 928 199 933 l 199 513 q 204 507 199 507 l 596 507 q 610 493 610 507 l 610 482 q 596 468 610 468 l 204 468 q 199 463 199 468 l 199 44 q 204 39 199 39 l 747 39 q 761 25 761 39 l 761 14 q 747 0 761 0 l 171 0 q 157 14 157 0 l 157 958 q 171 972 157 972 l 747 972 q 761 958 761 972 l 761 947 m 457 -229 q 417 -213 433 -229 q 401 -174 401 -197 q 417 -133 401 -149 q 457 -117 433 -117 q 497 -133 481 -117 q 513 -174 513 -149 q 497 -213 513 -197 q 457 -229 481 -229 m 317 1075 q 306 1081 308 1075 q 308 1092 303 1086 l 424 1240 q 442 1249 431 1249 l 460 1249 q 478 1240 472 1249 l 593 1092 q 596 1083 596 1089 q 593 1078 596 1081 q 585 1075 590 1075 l 572 1075 q 554 1083 560 1075 l 457 1213 q 453 1215 456 1215 q 449 1213 450 1215 l 347 1083 q 329 1075 342 1075 l 317 1075 z "},"Ề":{"ha":858,"x_min":157,"x_max":761,"o":"m 761 947 q 747 933 761 933 l 204 933 q 199 928 199 933 l 199 513 q 204 507 199 507 l 596 507 q 610 493 610 507 l 610 482 q 596 468 610 468 l 204 468 q 199 463 199 468 l 199 44 q 204 39 199 39 l 747 39 q 761 25 761 39 l 761 14 q 747 0 761 0 l 171 0 q 157 14 157 0 l 157 958 q 171 972 157 972 l 747 972 q 761 958 761 972 l 761 947 z "},"Ể":{"ha":858,"x_min":157,"x_max":761,"o":"m 761 947 q 747 933 761 933 l 204 933 q 199 928 199 933 l 199 513 q 204 507 199 507 l 596 507 q 610 493 610 507 l 610 482 q 596 468 610 468 l 204 468 q 199 463 199 468 l 199 44 q 204 39 199 39 l 747 39 q 761 25 761 39 l 761 14 q 747 0 761 0 l 171 0 q 157 14 157 0 l 157 958 q 171 972 157 972 l 747 972 q 761 958 761 972 l 761 947 z "},"Ễ":{"ha":858,"x_min":157,"x_max":761,"o":"m 761 947 q 747 933 761 933 l 204 933 q 199 928 199 933 l 199 513 q 204 507 199 507 l 596 507 q 610 493 610 507 l 610 482 q 596 468 610 468 l 204 468 q 199 463 199 468 l 199 44 q 204 39 199 39 l 747 39 q 761 25 761 39 l 761 14 q 747 0 761 0 l 171 0 q 157 14 157 0 l 157 958 q 171 972 157 972 l 747 972 q 761 958 761 972 l 761 947 z "},"Ë":{"ha":858,"x_min":157,"x_max":761,"o":"m 761 947 q 747 933 761 933 l 204 933 q 199 928 199 933 l 199 513 q 204 507 199 507 l 596 507 q 610 493 610 507 l 610 482 q 596 468 610 468 l 204 468 q 199 463 199 468 l 199 44 q 204 39 199 39 l 747 39 q 761 25 761 39 l 761 14 q 747 0 761 0 l 171 0 q 157 14 157 0 l 157 958 q 171 972 157 972 l 747 972 q 761 958 761 972 l 761 947 z "},"Ė":{"ha":858,"x_min":157,"x_max":761,"o":"m 761 947 q 747 933 761 933 l 204 933 q 199 928 199 933 l 199 513 q 204 507 199 507 l 596 507 q 610 493 610 507 l 610 482 q 596 468 610 468 l 204 468 q 199 463 199 468 l 199 44 q 204 39 199 39 l 747 39 q 761 25 761 39 l 761 14 q 747 0 761 0 l 171 0 q 157 14 157 0 l 157 958 q 171 972 157 972 l 747 972 q 761 958 761 972 l 761 947 m 450 1128 q 407 1144 424 1128 q 390 1188 390 1161 q 407 1229 390 1213 q 450 1246 424 1246 q 493 1229 476 1246 q 510 1188 510 1213 q 493 1144 510 1161 q 450 1128 476 1128 z "},"Ẹ":{"ha":858,"x_min":157,"x_max":761,"o":"m 761 947 q 747 933 761 933 l 204 933 q 199 928 199 933 l 199 513 q 204 507 199 507 l 596 507 q 610 493 610 507 l 610 482 q 596 468 610 468 l 204 468 q 199 463 199 468 l 199 44 q 204 39 199 39 l 747 39 q 761 25 761 39 l 761 14 q 747 0 761 0 l 171 0 q 157 14 157 0 l 157 958 q 171 972 157 972 l 747 972 q 761 958 761 972 l 761 947 m 457 -229 q 417 -213 433 -229 q 401 -174 401 -197 q 417 -133 401 -149 q 457 -117 433 -117 q 497 -133 481 -117 q 513 -174 513 -149 q 497 -213 513 -197 q 457 -229 481 -229 z "},"È":{"ha":858,"x_min":157,"x_max":761,"o":"m 761 947 q 747 933 761 933 l 204 933 q 199 928 199 933 l 199 513 q 204 507 199 507 l 596 507 q 610 493 610 507 l 610 482 q 596 468 610 468 l 204 468 q 199 463 199 468 l 199 44 q 204 39 199 39 l 747 39 q 761 25 761 39 l 761 14 q 747 0 761 0 l 171 0 q 157 14 157 0 l 157 958 q 171 972 157 972 l 747 972 q 761 958 761 972 l 761 947 m 467 1083 q 469 1075 469 1078 q 458 1067 469 1067 l 450 1067 q 433 1076 440 1067 l 343 1232 q 340 1240 340 1238 q 353 1249 340 1249 l 365 1249 q 382 1239 378 1249 l 467 1083 z "},"Ẻ":{"ha":858,"x_min":157,"x_max":761,"o":"m 761 947 q 747 933 761 933 l 204 933 q 199 928 199 933 l 199 513 q 204 507 199 507 l 596 507 q 610 493 610 507 l 610 482 q 596 468 610 468 l 204 468 q 199 463 199 468 l 199 44 q 204 39 199 39 l 747 39 q 761 25 761 39 l 761 14 q 747 0 761 0 l 171 0 q 157 14 157 0 l 157 958 q 171 972 157 972 l 747 972 q 761 958 761 972 l 761 947 m 449 1040 q 440 1048 442 1043 q 440 1058 438 1053 q 488 1121 454 1090 q 517 1154 508 1140 q 526 1190 526 1168 q 506 1231 526 1214 q 457 1249 486 1249 q 412 1238 428 1249 q 376 1197 396 1226 q 357 1193 368 1185 l 353 1196 q 349 1215 343 1203 q 394 1267 372 1251 q 458 1282 417 1282 q 532 1256 503 1282 q 561 1190 561 1229 q 548 1140 561 1160 q 507 1092 535 1119 q 471 1050 481 1068 l 468 1044 q 453 1039 463 1035 l 449 1040 z "},"Ē":{"ha":858,"x_min":157,"x_max":761,"o":"m 761 947 q 747 933 761 933 l 204 933 q 199 928 199 933 l 199 513 q 204 507 199 507 l 596 507 q 610 493 610 507 l 610 482 q 596 468 610 468 l 204 468 q 199 463 199 468 l 199 44 q 204 39 199 39 l 747 39 q 761 25 761 39 l 761 14 q 747 0 761 0 l 171 0 q 157 14 157 0 l 157 958 q 171 972 157 972 l 747 972 q 761 958 761 972 l 761 947 m 290 1114 q 276 1128 276 1114 l 276 1136 q 290 1150 276 1150 l 615 1150 q 629 1136 629 1150 l 629 1128 q 615 1114 629 1114 l 290 1114 z "},"Ę":{"ha":858,"x_min":157,"x_max":761,"o":"m 761 947 q 747 933 761 933 l 204 933 q 199 928 199 933 l 199 513 q 204 507 199 507 l 596 507 q 610 493 610 507 l 610 482 q 596 468 610 468 l 204 468 q 199 463 199 468 l 199 44 q 204 39 199 39 l 747 39 q 761 25 761 39 l 761 14 q 747 0 761 0 l 481 0 q 474 -3 476 0 q 394 -136 394 -74 q 417 -195 394 -176 q 474 -214 439 -214 q 506 -211 494 -214 l 511 -211 q 522 -221 519 -211 l 524 -226 l 525 -232 q 514 -243 525 -240 q 472 -247 493 -247 q 399 -228 429 -247 q 360 -167 368 -208 q 356 -136 356 -153 q 429 -7 356 -68 q 431 -3 432 -6 q 426 0 429 0 l 171 0 q 157 14 157 0 l 157 958 q 171 972 157 972 l 747 972 q 761 958 761 972 l 761 947 z "},"Ẽ":{"ha":858,"x_min":157,"x_max":761,"o":"m 761 947 q 747 933 761 933 l 204 933 q 199 928 199 933 l 199 513 q 204 507 199 507 l 596 507 q 610 493 610 507 l 610 482 q 596 468 610 468 l 204 468 q 199 463 199 468 l 199 44 q 204 39 199 39 l 747 39 q 761 25 761 39 l 761 14 q 747 0 761 0 l 171 0 q 157 14 157 0 l 157 958 q 171 972 157 972 l 747 972 q 761 958 761 972 l 761 947 m 539 1139 q 457 1171 500 1139 q 421 1194 435 1188 q 389 1201 407 1201 q 347 1193 364 1201 q 313 1161 331 1185 q 305 1156 310 1157 q 296 1157 300 1154 l 290 1160 l 288 1161 q 285 1181 276 1169 q 388 1239 326 1239 q 426 1231 410 1239 q 471 1207 443 1224 q 490 1194 475 1204 q 517 1180 504 1185 q 540 1175 529 1175 q 615 1217 583 1175 l 618 1222 q 626 1227 621 1226 q 635 1225 631 1228 l 640 1221 q 646 1210 646 1217 q 640 1196 646 1203 q 593 1153 621 1167 q 539 1139 565 1139 z "},"F":{"ha":796,"x_min":157,"x_max":760,"o":"m 760 947 q 746 933 760 933 l 204 933 q 199 928 199 933 l 199 513 q 204 507 199 507 l 594 507 q 608 493 608 507 l 608 482 q 594 468 608 468 l 204 468 q 199 463 199 468 l 199 14 q 185 0 199 0 l 171 0 q 157 14 157 0 l 157 958 q 171 972 157 972 l 746 972 q 760 958 760 972 l 760 947 z "},"G":{"ha":853,"x_min":121,"x_max":732,"o":"m 428 -11 q 267 24 336 -11 q 159 124 197 60 q 121 274 121 189 l 121 699 q 159 848 121 783 q 267 948 197 913 q 428 983 336 983 q 588 948 518 983 q 694 848 657 913 q 732 700 732 783 l 732 679 q 718 665 732 665 l 704 665 q 690 679 690 665 l 690 701 q 618 878 690 811 q 428 944 546 944 q 235 877 308 944 q 163 700 163 810 l 163 272 q 235 95 163 163 q 428 28 308 28 q 618 94 546 28 q 690 269 690 160 l 690 429 q 685 435 690 435 l 453 435 q 439 449 439 435 l 439 458 q 453 472 439 472 l 718 472 q 732 458 732 472 l 732 275 q 694 124 732 189 q 588 24 657 60 q 428 -11 518 -11 z "},"Ğ":{"ha":853,"x_min":121,"x_max":732,"o":"m 428 -11 q 267 24 336 -11 q 159 124 197 60 q 121 274 121 189 l 121 699 q 159 848 121 783 q 267 948 197 913 q 428 983 336 983 q 588 948 518 983 q 694 848 657 913 q 732 700 732 783 l 732 679 q 718 665 732 665 l 704 665 q 690 679 690 665 l 690 701 q 618 878 690 811 q 428 944 546 944 q 235 877 308 944 q 163 700 163 810 l 163 272 q 235 95 163 163 q 428 28 308 28 q 618 94 546 28 q 690 269 690 160 l 690 429 q 685 435 690 435 l 453 435 q 439 449 439 435 l 439 458 q 453 472 439 472 l 718 472 q 732 458 732 472 l 732 275 q 694 124 732 189 q 588 24 657 60 q 428 -11 518 -11 m 425 1060 q 329 1095 369 1060 q 283 1183 289 1131 l 283 1186 q 296 1197 283 1197 l 304 1197 q 319 1183 318 1197 q 355 1119 325 1144 q 425 1093 385 1093 q 495 1119 465 1093 q 529 1183 525 1144 q 544 1197 531 1197 l 554 1197 q 565 1193 561 1197 q 567 1183 568 1189 q 521 1095 561 1131 q 425 1060 481 1060 z "},"Ĝ":{"ha":853,"x_min":121,"x_max":732,"o":"m 428 -11 q 267 24 336 -11 q 159 124 197 60 q 121 274 121 189 l 121 699 q 159 848 121 783 q 267 948 197 913 q 428 983 336 983 q 588 948 518 983 q 694 848 657 913 q 732 700 732 783 l 732 679 q 718 665 732 665 l 704 665 q 690 679 690 665 l 690 701 q 618 878 690 811 q 428 944 546 944 q 235 877 308 944 q 163 700 163 810 l 163 272 q 235 95 163 163 q 428 28 308 28 q 618 94 546 28 q 690 269 690 160 l 690 429 q 685 435 690 435 l 453 435 q 439 449 439 435 l 439 458 q 453 472 439 472 l 718 472 q 732 458 732 472 l 732 275 q 694 124 732 189 q 588 24 657 60 q 428 -11 518 -11 m 290 1075 q 279 1081 282 1075 q 282 1092 276 1086 l 397 1240 q 415 1249 404 1249 l 433 1249 q 451 1240 446 1249 l 567 1092 q 569 1083 569 1089 q 567 1078 569 1081 q 558 1075 564 1075 l 546 1075 q 528 1083 533 1075 l 431 1213 q 426 1215 429 1215 q 422 1213 424 1215 l 321 1083 q 303 1075 315 1075 l 290 1075 z "},"Ġ":{"ha":853,"x_min":121,"x_max":732,"o":"m 428 -11 q 267 24 336 -11 q 159 124 197 60 q 121 274 121 189 l 121 699 q 159 848 121 783 q 267 948 197 913 q 428 983 336 983 q 588 948 518 983 q 694 848 657 913 q 732 700 732 783 l 732 679 q 718 665 732 665 l 704 665 q 690 679 690 665 l 690 701 q 618 878 690 811 q 428 944 546 944 q 235 877 308 944 q 163 700 163 810 l 163 272 q 235 95 163 163 q 428 28 308 28 q 618 94 546 28 q 690 269 690 160 l 690 429 q 685 435 690 435 l 453 435 q 439 449 439 435 l 439 458 q 453 472 439 472 l 718 472 q 732 458 732 472 l 732 275 q 694 124 732 189 q 588 24 657 60 q 428 -11 518 -11 m 424 1128 q 381 1144 397 1128 q 364 1188 364 1161 q 381 1229 364 1213 q 424 1246 397 1246 q 467 1229 450 1246 q 483 1188 483 1213 q 467 1144 483 1161 q 424 1128 450 1128 z "},"H":{"ha":929,"x_min":157,"x_max":772,"o":"m 731 958 q 744 972 731 972 l 758 972 q 772 958 772 972 l 772 14 q 758 0 772 0 l 744 0 q 731 14 731 0 l 731 463 q 725 468 731 468 l 204 468 q 199 463 199 468 l 199 14 q 185 0 199 0 l 171 0 q 157 14 157 0 l 157 958 q 171 972 157 972 l 185 972 q 199 958 199 972 l 199 513 q 204 507 199 507 l 725 507 q 731 513 731 507 l 731 958 z "},"Ħ":{"ha":929,"x_min":71,"x_max":860,"o":"m 846 743 q 860 729 860 743 l 860 721 q 846 707 860 707 l 778 707 q 772 701 772 707 l 772 14 q 758 0 772 0 l 744 0 q 731 14 731 0 l 731 463 q 725 468 731 468 l 204 468 q 199 463 199 468 l 199 14 q 185 0 199 0 l 171 0 q 157 14 157 0 l 157 701 q 151 707 157 707 l 85 707 q 71 721 71 707 l 71 729 q 85 743 71 743 l 151 743 q 157 749 157 743 l 157 958 q 171 972 157 972 l 185 972 q 199 958 199 972 l 199 749 q 204 743 199 743 l 725 743 q 731 749 731 743 l 731 958 q 744 972 731 972 l 758 972 q 772 958 772 972 l 772 749 q 778 743 772 743 l 846 743 m 725 507 q 731 513 731 507 l 731 701 q 725 707 731 707 l 204 707 q 199 701 199 707 l 199 513 q 204 507 199 507 l 725 507 z "},"Ĥ":{"ha":929,"x_min":157,"x_max":772,"o":"m 731 958 q 744 972 731 972 l 758 972 q 772 958 772 972 l 772 14 q 758 0 772 0 l 744 0 q 731 14 731 0 l 731 463 q 725 468 731 468 l 204 468 q 199 463 199 468 l 199 14 q 185 0 199 0 l 171 0 q 157 14 157 0 l 157 958 q 171 972 157 972 l 185 972 q 199 958 199 972 l 199 513 q 204 507 199 507 l 725 507 q 731 513 731 507 l 731 958 m 331 1076 q 319 1082 322 1076 q 322 1093 317 1088 l 438 1242 q 456 1250 444 1250 l 474 1250 q 492 1242 486 1250 l 607 1093 q 610 1085 610 1090 q 607 1079 610 1082 q 599 1076 604 1076 l 586 1076 q 568 1085 574 1076 l 471 1214 q 467 1217 469 1217 q 463 1214 464 1217 l 361 1085 q 343 1076 356 1076 l 331 1076 z "},"I":{"ha":356,"x_min":157,"x_max":199,"o":"m 171 0 q 157 14 157 0 l 157 958 q 171 972 157 972 l 185 972 q 199 958 199 972 l 199 14 q 185 0 199 0 l 171 0 z "},"Í":{"ha":356,"x_min":140,"x_max":274,"o":"m 171 0 q 157 14 157 0 l 157 958 q 171 972 157 972 l 185 972 q 199 958 199 972 l 199 14 q 185 0 199 0 l 171 0 m 154 1067 q 143 1072 146 1067 q 144 1083 140 1076 l 231 1239 q 247 1249 235 1249 l 260 1249 q 271 1244 268 1249 q 269 1232 274 1239 l 179 1076 q 163 1067 172 1067 l 154 1067 z "},"Î":{"ha":356,"x_min":29,"x_max":322,"o":"m 171 0 q 157 14 157 0 l 157 958 q 171 972 157 972 l 185 972 q 199 958 199 972 l 199 14 q 185 0 199 0 l 171 0 m 43 1075 q 32 1081 35 1075 q 35 1092 29 1086 l 150 1240 q 168 1249 157 1249 l 186 1249 q 204 1240 199 1249 l 319 1092 q 322 1083 322 1089 q 319 1078 322 1081 q 311 1075 317 1075 l 299 1075 q 281 1083 286 1075 l 183 1213 q 179 1215 182 1215 q 175 1213 176 1215 l 74 1083 q 56 1075 68 1075 l 43 1075 z "},"Ï":{"ha":356,"x_min":10,"x_max":344,"o":"m 171 0 q 157 14 157 0 l 157 958 q 171 972 157 972 l 185 972 q 199 958 199 972 l 199 14 q 185 0 199 0 l 171 0 z "},"İ":{"ha":356,"x_min":117,"x_max":236,"o":"m 171 0 q 157 14 157 0 l 157 958 q 171 972 157 972 l 185 972 q 199 958 199 972 l 199 14 q 185 0 199 0 l 171 0 m 176 1128 q 133 1144 150 1128 q 117 1188 117 1161 q 133 1229 117 1213 q 176 1246 150 1246 q 219 1229 203 1246 q 236 1188 236 1213 q 219 1144 236 1161 q 176 1128 203 1128 z "},"Ị":{"ha":356,"x_min":124,"x_max":235,"o":"m 171 0 q 157 14 157 0 l 157 958 q 171 972 157 972 l 185 972 q 199 958 199 972 l 199 14 q 185 0 199 0 l 171 0 m 179 -229 q 140 -213 156 -229 q 124 -174 124 -197 q 140 -133 124 -149 q 179 -117 156 -117 q 219 -133 203 -117 q 235 -174 235 -149 q 219 -213 235 -197 q 179 -229 203 -229 z "},"Ì":{"ha":356,"x_min":67,"x_max":199,"o":"m 171 0 q 157 14 157 0 l 157 958 q 171 972 157 972 l 185 972 q 199 958 199 972 l 199 14 q 185 0 199 0 l 171 0 m 193 1083 q 196 1075 196 1078 q 185 1067 196 1067 l 176 1067 q 160 1076 167 1067 l 69 1232 q 67 1240 67 1238 q 79 1249 67 1249 l 92 1249 q 108 1239 104 1249 l 193 1083 z "},"Ỉ":{"ha":356,"x_min":69,"x_max":288,"o":"m 171 0 q 157 14 157 0 l 157 958 q 171 972 157 972 l 185 972 q 199 958 199 972 l 199 14 q 185 0 199 0 l 171 0 m 175 1040 q 166 1048 168 1043 q 167 1058 164 1053 q 214 1121 181 1090 q 244 1154 235 1140 q 253 1190 253 1168 q 233 1231 253 1214 q 183 1249 213 1249 q 138 1238 154 1249 q 103 1197 122 1226 q 83 1193 94 1185 l 79 1196 q 75 1215 69 1203 q 121 1267 99 1251 q 185 1282 143 1282 q 258 1256 229 1282 q 288 1190 288 1229 q 274 1140 288 1160 q 233 1092 261 1119 q 197 1050 207 1068 l 194 1044 q 179 1039 189 1035 l 175 1040 z "},"Ī":{"ha":356,"x_min":3,"x_max":356,"o":"m 171 0 q 157 14 157 0 l 157 958 q 171 972 157 972 l 185 972 q 199 958 199 972 l 199 14 q 185 0 199 0 l 171 0 m 17 1114 q 3 1128 3 1114 l 3 1136 q 17 1150 3 1150 l 342 1150 q 356 1136 356 1150 l 356 1128 q 342 1114 356 1114 l 17 1114 z "},"Į":{"ha":311,"x_min":49,"x_max":218,"o":"m 150 0 q 136 14 136 0 l 136 958 q 150 972 136 972 l 164 972 q 178 958 178 972 l 178 14 q 164 0 178 0 l 150 0 m 218 -239 q 206 -250 218 -249 q 165 -254 186 -254 q 92 -235 122 -254 q 51 -172 61 -215 q 49 -144 49 -153 q 132 -6 49 -69 q 150 0 139 0 l 151 0 q 164 -7 164 0 q 157 -17 164 -12 q 88 -143 88 -83 q 109 -201 88 -182 q 165 -221 131 -221 q 197 -217 181 -221 l 203 -217 q 211 -219 208 -217 q 215 -226 214 -221 l 217 -233 l 218 -239 z "},"Ĩ":{"ha":356,"x_min":3,"x_max":372,"o":"m 171 0 q 157 14 157 0 l 157 958 q 171 972 157 972 l 185 972 q 199 958 199 972 l 199 14 q 185 0 199 0 l 171 0 m 265 1139 q 183 1171 226 1139 q 147 1194 161 1188 q 115 1201 133 1201 q 74 1193 90 1201 q 39 1161 57 1185 q 31 1156 36 1157 q 22 1157 26 1154 l 17 1160 l 14 1161 q 11 1181 3 1169 q 114 1239 53 1239 q 153 1231 136 1239 q 197 1207 169 1224 q 216 1194 201 1204 q 243 1180 231 1185 q 267 1175 256 1175 q 342 1217 310 1175 l 344 1222 q 352 1227 347 1226 q 361 1225 357 1228 l 367 1221 q 372 1210 372 1217 q 367 1196 372 1203 q 319 1153 347 1167 q 265 1139 292 1139 z "},"J":{"ha":797,"x_min":49,"x_max":639,"o":"m 344 -11 q 190 23 257 -11 q 85 119 122 57 q 49 264 49 182 l 49 378 q 63 392 49 392 l 76 392 q 90 378 90 392 l 90 263 q 160 92 90 157 q 344 28 231 28 q 528 92 458 28 q 597 263 597 157 l 597 958 q 611 972 597 972 l 625 972 q 639 958 639 972 l 639 264 q 602 119 639 182 q 499 23 565 57 q 344 -11 432 -11 z "},"Ĵ":{"ha":797,"x_min":49,"x_max":763,"o":"m 344 -11 q 190 23 257 -11 q 85 119 122 57 q 49 264 49 182 l 49 378 q 63 392 49 392 l 76 392 q 90 378 90 392 l 90 263 q 160 92 90 157 q 344 28 231 28 q 528 92 458 28 q 597 263 597 157 l 597 958 q 611 972 597 972 l 625 972 q 639 958 639 972 l 639 264 q 602 119 639 182 q 499 23 565 57 q 344 -11 432 -11 m 483 1076 q 472 1082 475 1076 q 475 1093 469 1088 l 590 1242 q 608 1250 597 1250 l 626 1250 q 644 1242 639 1250 l 760 1093 q 763 1085 763 1090 q 760 1079 763 1082 q 751 1076 757 1076 l 739 1076 q 721 1085 726 1076 l 624 1214 q 619 1217 622 1217 q 615 1214 617 1217 l 514 1085 q 496 1076 508 1076 l 483 1076 z "},"K":{"ha":836,"x_min":157,"x_max":790,"o":"m 171 0 q 157 14 157 0 l 157 958 q 171 972 157 972 l 185 972 q 199 958 199 972 l 199 443 q 201 439 199 440 q 206 440 203 438 l 713 965 q 729 972 719 972 l 744 972 q 755 967 753 972 q 751 956 757 963 l 396 579 q 396 571 393 576 l 788 17 q 790 8 790 14 q 788 3 790 6 q 779 0 785 0 l 760 0 q 743 8 749 0 l 368 538 q 364 540 367 540 q 360 539 361 540 l 201 383 q 199 376 199 381 l 199 14 q 185 0 199 0 l 171 0 z "},"L":{"ha":786,"x_min":157,"x_max":728,"o":"m 171 0 q 157 14 157 0 l 157 958 q 171 972 157 972 l 185 972 q 199 958 199 972 l 199 44 q 204 39 199 39 l 714 39 q 728 25 728 39 l 728 14 q 714 0 728 0 l 171 0 z "},"Ĺ":{"ha":786,"x_min":140,"x_max":728,"o":"m 171 0 q 157 14 157 0 l 157 958 q 171 972 157 972 l 185 972 q 199 958 199 972 l 199 44 q 204 39 199 39 l 714 39 q 728 25 728 39 l 728 14 q 714 0 728 0 l 171 0 m 154 1067 q 143 1072 146 1067 q 144 1083 140 1076 l 231 1239 q 247 1249 235 1249 l 260 1249 q 271 1244 268 1249 q 269 1232 274 1239 l 179 1076 q 163 1067 172 1067 l 154 1067 z "},"Ľ":{"ha":786,"x_min":157,"x_max":728,"o":"m 171 0 q 157 14 157 0 l 157 958 q 171 972 157 972 l 185 972 q 199 958 199 972 l 199 44 q 204 39 199 39 l 714 39 q 728 25 728 39 l 728 14 q 714 0 728 0 l 171 0 z "},"Ļ":{"ha":786,"x_min":157,"x_max":728,"o":"m 171 0 q 157 14 157 0 l 157 958 q 171 972 157 972 l 185 972 q 199 958 199 972 l 199 44 q 204 39 199 39 l 714 39 q 728 25 728 39 l 728 14 q 714 0 728 0 l 171 0 z "},"Ł":{"ha":793,"x_min":-32,"x_max":735,"o":"m 206 44 q 211 39 206 39 l 721 39 q 735 25 735 39 l 735 14 q 721 0 735 0 l 178 0 q 164 14 164 0 l 164 379 q 161 383 164 382 q 157 383 158 385 l -4 271 q -14 267 -8 267 q -24 274 -19 267 l -29 282 q -32 292 -32 286 q -26 301 -32 297 l 160 431 q 164 438 164 435 l 164 958 q 178 972 164 972 l 192 972 q 206 958 206 972 l 206 471 q 208 467 206 468 q 213 467 211 465 l 557 708 q 565 711 560 711 q 576 706 572 711 l 583 696 q 586 688 586 690 q 579 676 586 683 l 210 419 q 206 413 206 415 l 206 44 z "},"M":{"ha":994,"x_min":157,"x_max":838,"o":"m 790 963 q 807 972 797 972 l 824 972 q 838 958 838 972 l 838 14 q 824 0 838 0 l 810 0 q 796 14 796 0 l 796 886 q 793 891 796 890 q 789 888 790 892 l 519 467 q 503 457 513 457 l 494 457 q 478 467 485 457 l 206 885 q 201 888 204 889 q 199 882 199 886 l 199 14 q 185 0 199 0 l 171 0 q 157 14 157 0 l 157 958 q 171 972 157 972 l 188 972 q 204 963 197 972 l 494 514 q 499 513 496 513 q 503 514 501 513 l 790 963 z "},"N":{"ha":949,"x_min":157,"x_max":790,"o":"m 749 958 q 763 972 749 972 l 776 972 q 790 958 790 972 l 790 14 q 776 0 790 0 l 761 0 q 744 10 751 0 l 206 883 q 201 887 204 888 q 199 882 199 886 l 199 14 q 185 0 199 0 l 171 0 q 157 14 157 0 l 157 958 q 171 972 157 972 l 188 972 q 204 963 197 972 l 743 89 q 747 85 744 85 q 750 90 750 86 l 749 958 z "},"Ń":{"ha":949,"x_min":157,"x_max":790,"o":"m 749 958 q 763 972 749 972 l 776 972 q 790 958 790 972 l 790 14 q 776 0 790 0 l 761 0 q 744 10 751 0 l 206 883 q 201 887 204 888 q 199 882 199 886 l 199 14 q 185 0 199 0 l 171 0 q 157 14 157 0 l 157 958 q 171 972 157 972 l 188 972 q 204 963 197 972 l 743 89 q 747 85 744 85 q 750 90 750 86 l 749 958 m 451 1067 q 440 1072 443 1067 q 442 1083 438 1076 l 528 1239 q 544 1249 532 1249 l 557 1249 q 568 1244 565 1249 q 567 1232 571 1239 l 476 1076 q 460 1067 469 1067 l 451 1067 z "},"Ň":{"ha":949,"x_min":157,"x_max":790,"o":"m 749 958 q 763 972 749 972 l 776 972 q 790 958 790 972 l 790 14 q 776 0 790 0 l 761 0 q 744 10 751 0 l 206 883 q 201 887 204 888 q 199 882 199 886 l 199 14 q 185 0 199 0 l 171 0 q 157 14 157 0 l 157 958 q 171 972 157 972 l 188 972 q 204 963 197 972 l 743 89 q 747 85 744 85 q 750 90 750 86 l 749 958 m 333 1232 q 331 1240 331 1235 q 333 1246 331 1243 q 342 1249 336 1249 l 354 1249 q 372 1240 367 1249 l 474 1111 q 478 1108 475 1108 q 482 1111 481 1108 l 579 1240 q 597 1249 585 1249 l 610 1249 q 621 1244 618 1249 q 618 1232 624 1239 l 503 1083 q 485 1075 497 1075 l 467 1075 q 449 1083 454 1075 l 333 1232 z "},"Ŋ":{"ha":949,"x_min":157,"x_max":792,"o":"m 792 790 l 792 790 l 792 -1 q 753 -144 792 -96 q 626 -197 714 -193 q 613 -183 613 -197 l 613 -172 q 626 -158 613 -158 q 722 -116 693 -156 q 750 -1 750 -76 l 749 3 l 206 883 q 201 887 204 888 q 199 882 199 886 l 199 14 q 185 0 199 0 l 171 0 q 157 14 157 0 l 157 958 q 171 972 157 972 l 188 972 q 204 963 197 972 l 743 89 q 747 85 744 85 q 750 90 750 86 l 749 958 q 763 972 749 972 l 776 972 q 790 958 790 972 l 790 793 l 792 790 z "},"Ñ":{"ha":949,"x_min":157,"x_max":790,"o":"m 749 958 q 763 972 749 972 l 776 972 q 790 958 790 972 l 790 14 q 776 0 790 0 l 761 0 q 744 10 751 0 l 206 883 q 201 887 204 888 q 199 882 199 886 l 199 14 q 185 0 199 0 l 171 0 q 157 14 157 0 l 157 958 q 171 972 157 972 l 188 972 q 204 963 197 972 l 743 89 q 747 85 744 85 q 750 90 750 86 l 749 958 m 563 1139 q 481 1171 524 1139 q 444 1194 458 1188 q 413 1201 431 1201 q 371 1193 388 1201 q 336 1161 354 1185 q 328 1156 333 1157 q 319 1157 324 1154 l 314 1160 l 311 1161 q 308 1181 300 1169 q 411 1239 350 1239 q 450 1231 433 1239 q 494 1207 467 1224 q 513 1194 499 1204 q 540 1180 528 1185 q 564 1175 553 1175 q 639 1217 607 1175 l 642 1222 q 649 1227 644 1226 q 658 1225 654 1228 l 664 1221 q 669 1210 669 1217 q 664 1196 669 1203 q 617 1153 644 1167 q 563 1139 589 1139 z "},"O":{"ha":864,"x_min":121,"x_max":743,"o":"m 431 -10 q 269 28 339 -10 q 160 135 199 67 q 121 294 121 204 l 121 676 q 160 837 121 767 q 269 945 199 907 q 431 983 339 983 q 594 945 524 983 q 704 837 665 907 q 743 676 743 767 l 743 294 q 704 135 743 204 q 594 28 665 67 q 431 -10 524 -10 m 431 28 q 627 101 553 28 q 701 293 701 174 l 701 678 q 627 871 701 797 q 431 944 553 944 q 236 871 310 944 q 163 678 163 797 l 163 293 q 236 101 163 174 q 431 28 310 28 z "},"Ó":{"ha":864,"x_min":121,"x_max":743,"o":"m 431 -10 q 269 28 339 -10 q 160 135 199 67 q 121 294 121 204 l 121 676 q 160 837 121 767 q 269 945 199 907 q 431 983 339 983 q 594 945 524 983 q 704 837 665 907 q 743 676 743 767 l 743 294 q 704 135 743 204 q 594 28 665 67 q 431 -10 524 -10 m 431 28 q 627 101 553 28 q 701 293 701 174 l 701 678 q 627 871 701 797 q 431 944 553 944 q 236 871 310 944 q 163 678 163 797 l 163 293 q 236 101 163 174 q 431 28 310 28 m 406 1067 q 394 1072 397 1067 q 396 1083 392 1076 l 482 1239 q 499 1249 486 1249 l 511 1249 q 522 1244 519 1249 q 521 1232 525 1239 l 431 1076 q 414 1067 424 1067 l 406 1067 z "},"Ô":{"ha":864,"x_min":121,"x_max":743,"o":"m 431 -10 q 269 28 339 -10 q 160 135 199 67 q 121 294 121 204 l 121 676 q 160 837 121 767 q 269 945 199 907 q 431 983 339 983 q 594 945 524 983 q 704 837 665 907 q 743 676 743 767 l 743 294 q 704 135 743 204 q 594 28 665 67 q 431 -10 524 -10 m 431 28 q 627 101 553 28 q 701 293 701 174 l 701 678 q 627 871 701 797 q 431 944 553 944 q 236 871 310 944 q 163 678 163 797 l 163 293 q 236 101 163 174 q 431 28 310 28 m 296 1075 q 285 1081 288 1075 q 288 1092 282 1086 l 403 1240 q 421 1249 410 1249 l 439 1249 q 457 1240 451 1249 l 572 1092 q 575 1083 575 1089 q 572 1078 575 1081 q 564 1075 569 1075 l 551 1075 q 533 1083 539 1075 l 436 1213 q 432 1215 435 1215 q 428 1213 429 1215 l 326 1083 q 308 1075 321 1075 l 296 1075 z "},"Ố":{"ha":864,"x_min":121,"x_max":743,"o":"m 431 -10 q 269 28 339 -10 q 160 135 199 67 q 121 294 121 204 l 121 676 q 160 837 121 767 q 269 945 199 907 q 431 983 339 983 q 594 945 524 983 q 704 837 665 907 q 743 676 743 767 l 743 294 q 704 135 743 204 q 594 28 665 67 q 431 -10 524 -10 m 431 28 q 627 101 553 28 q 701 293 701 174 l 701 678 q 627 871 701 797 q 431 944 553 944 q 236 871 310 944 q 163 678 163 797 l 163 293 q 236 101 163 174 q 431 28 310 28 z "},"Ộ":{"ha":864,"x_min":121,"x_max":743,"o":"m 431 -10 q 269 28 339 -10 q 160 135 199 67 q 121 294 121 204 l 121 676 q 160 837 121 767 q 269 945 199 907 q 431 983 339 983 q 594 945 524 983 q 704 837 665 907 q 743 676 743 767 l 743 294 q 704 135 743 204 q 594 28 665 67 q 431 -10 524 -10 m 431 28 q 627 101 553 28 q 701 293 701 174 l 701 678 q 627 871 701 797 q 431 944 553 944 q 236 871 310 944 q 163 678 163 797 l 163 293 q 236 101 163 174 q 431 28 310 28 m 432 -229 q 392 -213 408 -229 q 376 -174 376 -197 q 392 -133 376 -149 q 432 -117 408 -117 q 472 -133 456 -117 q 488 -174 488 -149 q 472 -213 488 -197 q 432 -229 456 -229 m 296 1075 q 285 1081 288 1075 q 288 1092 282 1086 l 403 1240 q 421 1249 410 1249 l 439 1249 q 457 1240 451 1249 l 572 1092 q 575 1083 575 1089 q 572 1078 575 1081 q 564 1075 569 1075 l 551 1075 q 533 1083 539 1075 l 436 1213 q 432 1215 435 1215 q 428 1213 429 1215 l 326 1083 q 308 1075 321 1075 l 296 1075 z "},"Ồ":{"ha":864,"x_min":121,"x_max":743,"o":"m 431 -10 q 269 28 339 -10 q 160 135 199 67 q 121 294 121 204 l 121 676 q 160 837 121 767 q 269 945 199 907 q 431 983 339 983 q 594 945 524 983 q 704 837 665 907 q 743 676 743 767 l 743 294 q 704 135 743 204 q 594 28 665 67 q 431 -10 524 -10 m 431 28 q 627 101 553 28 q 701 293 701 174 l 701 678 q 627 871 701 797 q 431 944 553 944 q 236 871 310 944 q 163 678 163 797 l 163 293 q 236 101 163 174 q 431 28 310 28 z "},"Ổ":{"ha":864,"x_min":121,"x_max":743,"o":"m 431 -10 q 269 28 339 -10 q 160 135 199 67 q 121 294 121 204 l 121 676 q 160 837 121 767 q 269 945 199 907 q 431 983 339 983 q 594 945 524 983 q 704 837 665 907 q 743 676 743 767 l 743 294 q 704 135 743 204 q 594 28 665 67 q 431 -10 524 -10 m 431 28 q 627 101 553 28 q 701 293 701 174 l 701 678 q 627 871 701 797 q 431 944 553 944 q 236 871 310 944 q 163 678 163 797 l 163 293 q 236 101 163 174 q 431 28 310 28 z "},"Ỗ":{"ha":864,"x_min":121,"x_max":743,"o":"m 431 -10 q 269 28 339 -10 q 160 135 199 67 q 121 294 121 204 l 121 676 q 160 837 121 767 q 269 945 199 907 q 431 983 339 983 q 594 945 524 983 q 704 837 665 907 q 743 676 743 767 l 743 294 q 704 135 743 204 q 594 28 665 67 q 431 -10 524 -10 m 431 28 q 627 101 553 28 q 701 293 701 174 l 701 678 q 627 871 701 797 q 431 944 553 944 q 236 871 310 944 q 163 678 163 797 l 163 293 q 236 101 163 174 q 431 28 310 28 z "},"Ö":{"ha":864,"x_min":121,"x_max":743,"o":"m 431 -10 q 269 28 339 -10 q 160 135 199 67 q 121 294 121 204 l 121 676 q 160 837 121 767 q 269 945 199 907 q 431 983 339 983 q 594 945 524 983 q 704 837 665 907 q 743 676 743 767 l 743 294 q 704 135 743 204 q 594 28 665 67 q 431 -10 524 -10 m 431 28 q 627 101 553 28 q 701 293 701 174 l 701 678 q 627 871 701 797 q 431 944 553 944 q 236 871 310 944 q 163 678 163 797 l 163 293 q 236 101 163 174 q 431 28 310 28 z "},"Ọ":{"ha":864,"x_min":121,"x_max":743,"o":"m 431 -10 q 269 28 339 -10 q 160 135 199 67 q 121 294 121 204 l 121 676 q 160 837 121 767 q 269 945 199 907 q 431 983 339 983 q 594 945 524 983 q 704 837 665 907 q 743 676 743 767 l 743 294 q 704 135 743 204 q 594 28 665 67 q 431 -10 524 -10 m 431 28 q 627 101 553 28 q 701 293 701 174 l 701 678 q 627 871 701 797 q 431 944 553 944 q 236 871 310 944 q 163 678 163 797 l 163 293 q 236 101 163 174 q 431 28 310 28 m 432 -229 q 392 -213 408 -229 q 376 -174 376 -197 q 392 -133 376 -149 q 432 -117 408 -117 q 472 -133 456 -117 q 488 -174 488 -149 q 472 -213 488 -197 q 432 -229 456 -229 z "},"Ò":{"ha":864,"x_min":121,"x_max":743,"o":"m 431 -10 q 269 28 339 -10 q 160 135 199 67 q 121 294 121 204 l 121 676 q 160 837 121 767 q 269 945 199 907 q 431 983 339 983 q 594 945 524 983 q 704 837 665 907 q 743 676 743 767 l 743 294 q 704 135 743 204 q 594 28 665 67 q 431 -10 524 -10 m 431 28 q 627 101 553 28 q 701 293 701 174 l 701 678 q 627 871 701 797 q 431 944 553 944 q 236 871 310 944 q 163 678 163 797 l 163 293 q 236 101 163 174 q 431 28 310 28 m 446 1083 q 449 1075 449 1078 q 438 1067 449 1067 l 429 1067 q 413 1076 419 1067 l 322 1232 q 319 1240 319 1238 q 332 1249 319 1249 l 344 1249 q 361 1239 357 1249 l 446 1083 z "},"Ỏ":{"ha":864,"x_min":121,"x_max":743,"o":"m 431 -10 q 269 28 339 -10 q 160 135 199 67 q 121 294 121 204 l 121 676 q 160 837 121 767 q 269 945 199 907 q 431 983 339 983 q 594 945 524 983 q 704 837 665 907 q 743 676 743 767 l 743 294 q 704 135 743 204 q 594 28 665 67 q 431 -10 524 -10 m 431 28 q 627 101 553 28 q 701 293 701 174 l 701 678 q 627 871 701 797 q 431 944 553 944 q 236 871 310 944 q 163 678 163 797 l 163 293 q 236 101 163 174 q 431 28 310 28 m 426 1040 q 417 1048 419 1043 q 418 1058 415 1053 q 465 1121 432 1090 q 495 1154 486 1140 q 504 1190 504 1168 q 484 1231 504 1214 q 435 1249 464 1249 q 390 1238 406 1249 q 354 1197 374 1226 q 335 1193 346 1185 l 331 1196 q 326 1215 321 1203 q 372 1267 350 1251 q 436 1282 394 1282 q 510 1256 481 1282 q 539 1190 539 1229 q 526 1140 539 1160 q 485 1092 513 1119 q 449 1050 458 1068 l 446 1044 q 431 1039 440 1035 l 426 1040 z "},"Ơ":{"ha":864,"x_min":121,"x_max":899,"o":"m 431 -10 q 269 28 339 -10 q 160 135 199 67 q 121 294 121 204 l 121 676 q 160 837 121 767 q 269 945 199 907 q 431 983 339 983 q 594 945 524 983 q 704 837 665 907 q 743 676 743 767 l 743 294 q 704 135 743 204 q 594 28 665 67 q 431 -10 524 -10 m 431 28 q 627 101 553 28 q 701 293 701 174 l 701 678 q 627 871 701 797 q 431 944 553 944 q 236 871 310 944 q 163 678 163 797 l 163 293 q 236 101 163 174 q 431 28 310 28 m 769 939 q 756 953 756 939 l 756 958 q 768 974 756 971 q 831 1003 804 978 q 861 1065 857 1029 q 876 1079 863 1079 l 885 1079 q 895 1075 892 1079 q 897 1064 899 1071 q 856 979 892 1014 q 769 939 819 944 z "},"Ớ":{"ha":864,"x_min":121,"x_max":899,"o":"m 431 -10 q 269 28 339 -10 q 160 135 199 67 q 121 294 121 204 l 121 676 q 160 837 121 767 q 269 945 199 907 q 431 983 339 983 q 594 945 524 983 q 704 837 665 907 q 743 676 743 767 l 743 294 q 704 135 743 204 q 594 28 665 67 q 431 -10 524 -10 m 431 28 q 627 101 553 28 q 701 293 701 174 l 701 678 q 627 871 701 797 q 431 944 553 944 q 236 871 310 944 q 163 678 163 797 l 163 293 q 236 101 163 174 q 431 28 310 28 m 769 939 q 756 953 756 939 l 756 958 q 768 974 756 971 q 831 1003 804 978 q 861 1065 857 1029 q 876 1079 863 1079 l 885 1079 q 895 1075 892 1079 q 897 1064 899 1071 q 856 979 892 1014 q 769 939 819 944 m 406 1067 q 394 1072 397 1067 q 396 1083 392 1076 l 482 1239 q 499 1249 486 1249 l 511 1249 q 522 1244 519 1249 q 521 1232 525 1239 l 431 1076 q 414 1067 424 1067 l 406 1067 z "},"Ợ":{"ha":864,"x_min":121,"x_max":899,"o":"m 431 -10 q 269 28 339 -10 q 160 135 199 67 q 121 294 121 204 l 121 676 q 160 837 121 767 q 269 945 199 907 q 431 983 339 983 q 594 945 524 983 q 704 837 665 907 q 743 676 743 767 l 743 294 q 704 135 743 204 q 594 28 665 67 q 431 -10 524 -10 m 431 28 q 627 101 553 28 q 701 293 701 174 l 701 678 q 627 871 701 797 q 431 944 553 944 q 236 871 310 944 q 163 678 163 797 l 163 293 q 236 101 163 174 q 431 28 310 28 m 769 939 q 756 953 756 939 l 756 958 q 768 974 756 971 q 831 1003 804 978 q 861 1065 857 1029 q 876 1079 863 1079 l 885 1079 q 895 1075 892 1079 q 897 1064 899 1071 q 856 979 892 1014 q 769 939 819 944 m 432 -229 q 392 -213 408 -229 q 376 -174 376 -197 q 392 -133 376 -149 q 432 -117 408 -117 q 472 -133 456 -117 q 488 -174 488 -149 q 472 -213 488 -197 q 432 -229 456 -229 z "},"Ờ":{"ha":864,"x_min":121,"x_max":899,"o":"m 431 -10 q 269 28 339 -10 q 160 135 199 67 q 121 294 121 204 l 121 676 q 160 837 121 767 q 269 945 199 907 q 431 983 339 983 q 594 945 524 983 q 704 837 665 907 q 743 676 743 767 l 743 294 q 704 135 743 204 q 594 28 665 67 q 431 -10 524 -10 m 431 28 q 627 101 553 28 q 701 293 701 174 l 701 678 q 627 871 701 797 q 431 944 553 944 q 236 871 310 944 q 163 678 163 797 l 163 293 q 236 101 163 174 q 431 28 310 28 m 769 939 q 756 953 756 939 l 756 958 q 768 974 756 971 q 831 1003 804 978 q 861 1065 857 1029 q 876 1079 863 1079 l 885 1079 q 895 1075 892 1079 q 897 1064 899 1071 q 856 979 892 1014 q 769 939 819 944 m 446 1083 q 449 1075 449 1078 q 438 1067 449 1067 l 429 1067 q 413 1076 419 1067 l 322 1232 q 319 1240 319 1238 q 332 1249 319 1249 l 344 1249 q 361 1239 357 1249 l 446 1083 z "},"Ở":{"ha":864,"x_min":121,"x_max":899,"o":"m 431 -10 q 269 28 339 -10 q 160 135 199 67 q 121 294 121 204 l 121 676 q 160 837 121 767 q 269 945 199 907 q 431 983 339 983 q 594 945 524 983 q 704 837 665 907 q 743 676 743 767 l 743 294 q 704 135 743 204 q 594 28 665 67 q 431 -10 524 -10 m 431 28 q 627 101 553 28 q 701 293 701 174 l 701 678 q 627 871 701 797 q 431 944 553 944 q 236 871 310 944 q 163 678 163 797 l 163 293 q 236 101 163 174 q 431 28 310 28 m 769 939 q 756 953 756 939 l 756 958 q 768 974 756 971 q 831 1003 804 978 q 861 1065 857 1029 q 876 1079 863 1079 l 885 1079 q 895 1075 892 1079 q 897 1064 899 1071 q 856 979 892 1014 q 769 939 819 944 m 426 1040 q 417 1048 419 1043 q 418 1058 415 1053 q 465 1121 432 1090 q 495 1154 486 1140 q 504 1190 504 1168 q 484 1231 504 1214 q 435 1249 464 1249 q 390 1238 406 1249 q 354 1197 374 1226 q 335 1193 346 1185 l 331 1196 q 326 1215 321 1203 q 372 1267 350 1251 q 436 1282 394 1282 q 510 1256 481 1282 q 539 1190 539 1229 q 526 1140 539 1160 q 485 1092 513 1119 q 449 1050 458 1068 l 446 1044 q 431 1039 440 1035 l 426 1040 z "},"Ỡ":{"ha":864,"x_min":121,"x_max":899,"o":"m 431 -10 q 269 28 339 -10 q 160 135 199 67 q 121 294 121 204 l 121 676 q 160 837 121 767 q 269 945 199 907 q 431 983 339 983 q 594 945 524 983 q 704 837 665 907 q 743 676 743 767 l 743 294 q 704 135 743 204 q 594 28 665 67 q 431 -10 524 -10 m 431 28 q 627 101 553 28 q 701 293 701 174 l 701 678 q 627 871 701 797 q 431 944 553 944 q 236 871 310 944 q 163 678 163 797 l 163 293 q 236 101 163 174 q 431 28 310 28 m 769 939 q 756 953 756 939 l 756 958 q 768 974 756 971 q 831 1003 804 978 q 861 1065 857 1029 q 876 1079 863 1079 l 885 1079 q 895 1075 892 1079 q 897 1064 899 1071 q 856 979 892 1014 q 769 939 819 944 m 515 1140 q 433 1172 476 1140 q 397 1196 411 1189 q 365 1203 383 1203 q 324 1194 340 1203 q 289 1163 307 1186 q 281 1157 286 1158 q 272 1158 276 1156 l 267 1161 l 264 1163 q 261 1182 253 1171 q 364 1240 303 1240 q 403 1233 386 1240 q 447 1208 419 1225 q 466 1196 451 1206 q 493 1181 481 1186 q 517 1176 506 1176 q 592 1218 560 1176 l 594 1224 q 602 1228 597 1228 q 611 1226 607 1229 l 617 1222 q 622 1211 622 1218 q 617 1197 622 1204 q 569 1154 597 1168 q 515 1140 542 1140 z "},"Ő":{"ha":864,"x_min":121,"x_max":743,"o":"m 431 -10 q 269 28 339 -10 q 160 135 199 67 q 121 294 121 204 l 121 676 q 160 837 121 767 q 269 945 199 907 q 431 983 339 983 q 594 945 524 983 q 704 837 665 907 q 743 676 743 767 l 743 294 q 704 135 743 204 q 594 28 665 67 q 431 -10 524 -10 m 431 28 q 627 101 553 28 q 701 293 701 174 l 701 678 q 627 871 701 797 q 431 944 553 944 q 236 871 310 944 q 163 678 163 797 l 163 293 q 236 101 163 174 q 431 28 310 28 m 311 1067 q 300 1072 303 1067 q 301 1083 297 1076 l 386 1239 q 403 1249 390 1249 l 415 1249 q 426 1244 424 1249 q 425 1232 429 1239 l 336 1076 q 319 1067 329 1067 l 311 1067 m 525 1067 q 514 1072 517 1067 q 515 1083 511 1076 l 600 1239 q 617 1249 604 1249 l 629 1249 q 640 1244 638 1249 q 639 1232 643 1239 l 550 1076 q 533 1067 543 1067 l 525 1067 z "},"Ō":{"ha":864,"x_min":121,"x_max":743,"o":"m 431 -10 q 269 28 339 -10 q 160 135 199 67 q 121 294 121 204 l 121 676 q 160 837 121 767 q 269 945 199 907 q 431 983 339 983 q 594 945 524 983 q 704 837 665 907 q 743 676 743 767 l 743 294 q 704 135 743 204 q 594 28 665 67 q 431 -10 524 -10 m 431 28 q 627 101 553 28 q 701 293 701 174 l 701 678 q 627 871 701 797 q 431 944 553 944 q 236 871 310 944 q 163 678 163 797 l 163 293 q 236 101 163 174 q 431 28 310 28 m 269 1114 q 256 1128 256 1114 l 256 1136 q 269 1150 256 1150 l 594 1150 q 608 1136 608 1150 l 608 1128 q 594 1114 608 1114 l 269 1114 z "},"Ø":{"ha":864,"x_min":100,"x_max":765,"o":"m 754 976 q 758 958 765 969 l 696 860 q 696 851 694 856 q 743 676 743 778 l 743 294 q 704 135 743 204 q 594 28 665 67 q 431 -10 524 -10 q 303 13 361 -10 q 203 78 244 36 q 196 76 199 82 l 139 -10 q 121 -14 132 -21 l 111 -7 q 106 11 100 1 l 169 111 q 169 119 172 115 q 121 294 121 192 l 121 676 q 160 837 121 767 q 269 945 199 907 q 431 983 339 983 q 560 960 501 983 q 661 894 619 936 q 668 896 665 890 l 724 981 q 742 985 731 993 l 754 976 m 163 293 q 192 160 163 222 q 200 160 194 154 l 640 850 q 640 858 643 854 q 550 922 604 900 q 431 944 496 944 q 236 871 310 944 q 163 678 163 797 l 163 293 m 701 678 q 672 810 701 749 q 664 810 669 815 l 224 122 q 224 114 222 118 q 313 50 260 72 q 431 28 365 28 q 627 101 553 28 q 701 293 701 174 l 701 678 z "},"Õ":{"ha":864,"x_min":121,"x_max":743,"o":"m 431 -10 q 269 28 339 -10 q 160 135 199 67 q 121 294 121 204 l 121 676 q 160 837 121 767 q 269 945 199 907 q 431 983 339 983 q 594 945 524 983 q 704 837 665 907 q 743 676 743 767 l 743 294 q 704 135 743 204 q 594 28 665 67 q 431 -10 524 -10 m 431 28 q 627 101 553 28 q 701 293 701 174 l 701 678 q 627 871 701 797 q 431 944 553 944 q 236 871 310 944 q 163 678 163 797 l 163 293 q 236 101 163 174 q 431 28 310 28 m 517 1139 q 435 1171 478 1139 q 399 1194 413 1188 q 367 1201 385 1201 q 325 1193 342 1201 q 290 1161 308 1185 q 283 1156 288 1157 q 274 1157 278 1154 l 268 1160 l 265 1161 q 263 1181 254 1169 q 365 1239 304 1239 q 404 1231 388 1239 q 449 1207 421 1224 q 467 1194 453 1204 q 494 1180 482 1185 q 518 1175 507 1175 q 593 1217 561 1175 l 596 1222 q 603 1227 599 1226 q 613 1225 608 1228 l 618 1221 q 624 1210 624 1217 q 618 1196 624 1203 q 571 1153 599 1167 q 517 1139 543 1139 z "},"Œ":{"ha":1269,"x_min":121,"x_max":1172,"o":"m 1172 947 q 1158 933 1172 933 l 696 933 q 690 928 690 933 l 690 513 q 696 507 690 507 l 1007 507 q 1021 493 1021 507 l 1021 482 q 1007 468 1021 468 l 696 468 q 690 463 690 468 l 690 44 q 696 39 690 39 l 1158 39 q 1172 25 1172 39 l 1172 14 q 1158 0 1172 0 l 663 0 q 649 14 649 0 l 649 115 q 647 119 649 119 q 642 117 644 119 q 544 24 606 57 q 401 -10 482 -10 q 256 26 319 -10 q 156 126 192 63 q 121 268 121 189 l 121 703 q 156 847 121 783 q 256 947 192 911 q 401 983 319 983 q 543 949 481 983 q 642 856 606 915 q 647 853 644 853 q 649 857 649 853 l 649 958 q 663 972 649 972 l 1158 972 q 1172 958 1172 972 l 1172 947 m 404 28 q 532 59 476 28 q 618 144 588 90 q 649 267 649 199 l 649 704 q 618 827 649 772 q 531 913 588 882 q 404 944 475 944 q 278 913 333 944 q 192 827 222 882 q 163 704 163 772 l 163 267 q 192 144 163 199 q 278 59 222 90 q 404 28 333 28 z "},"P":{"ha":818,"x_min":146,"x_max":758,"o":"m 507 975 q 690 905 621 975 q 758 719 758 835 q 689 535 758 604 q 507 465 619 465 l 193 465 q 188 460 188 465 l 188 14 q 174 0 188 0 l 160 0 q 146 14 146 0 l 146 961 q 160 975 146 975 l 507 975 m 507 504 q 659 563 601 504 q 717 718 717 622 q 659 876 717 817 q 507 936 601 936 l 193 936 q 188 931 188 936 l 188 510 q 193 504 188 504 l 507 504 z "},"Þ":{"ha":778,"x_min":146,"x_max":718,"o":"m 467 740 q 649 670 581 740 q 718 485 718 600 q 649 301 718 371 q 465 232 579 232 l 193 232 q 188 226 188 232 l 188 14 q 174 0 188 0 l 160 0 q 146 14 146 0 l 146 958 q 160 972 146 972 l 174 972 q 188 958 188 972 l 188 746 q 193 740 188 740 l 467 740 m 467 269 q 619 328 561 269 q 676 485 676 388 q 619 642 676 582 q 467 701 561 701 l 193 701 q 188 696 188 701 l 188 275 q 193 269 188 269 l 467 269 z "},"Q":{"ha":786,"x_min":94,"x_max":692,"o":"m 393 983 q 549 947 482 983 q 654 843 617 910 q 692 689 692 776 l 692 282 q 617 78 692 157 q 419 -11 543 -1 q 414 -17 414 -11 l 414 -160 q 400 -174 414 -174 l 386 -174 q 372 -160 372 -174 l 372 -17 q 367 -11 372 -11 q 169 78 243 -1 q 94 282 94 157 l 94 689 q 132 843 94 776 q 237 947 169 910 q 393 983 304 983 m 650 692 q 579 875 650 806 q 393 944 508 944 q 207 875 278 944 q 136 692 136 806 l 136 281 q 207 97 136 167 q 393 28 278 28 q 579 97 508 28 q 650 281 650 167 l 650 692 z "},"R":{"ha":849,"x_min":157,"x_max":768,"o":"m 744 0 q 728 10 732 0 l 506 465 q 500 469 504 469 l 204 469 q 199 464 199 469 l 199 14 q 185 0 199 0 l 171 0 q 157 14 157 0 l 157 958 q 171 972 157 972 l 507 972 q 688 902 619 972 q 757 719 757 832 q 701 552 757 618 q 551 474 646 486 q 547 467 544 471 l 767 17 q 768 10 768 14 q 757 0 768 0 l 744 0 m 204 933 q 199 928 199 933 l 199 513 q 204 507 199 507 l 507 507 q 658 566 600 507 q 715 719 715 625 q 658 874 715 815 q 507 933 600 933 l 204 933 z "},"Ŕ":{"ha":849,"x_min":157,"x_max":768,"o":"m 744 0 q 728 10 732 0 l 506 465 q 500 469 504 469 l 204 469 q 199 464 199 469 l 199 14 q 185 0 199 0 l 171 0 q 157 14 157 0 l 157 958 q 171 972 157 972 l 507 972 q 688 902 619 972 q 757 719 757 832 q 701 552 757 618 q 551 474 646 486 q 547 467 544 471 l 767 17 q 768 10 768 14 q 757 0 768 0 l 744 0 m 204 933 q 199 928 199 933 l 199 513 q 204 507 199 507 l 507 507 q 658 566 600 507 q 715 719 715 625 q 658 874 715 815 q 507 933 600 933 l 204 933 m 400 1067 q 389 1072 392 1067 q 390 1083 386 1076 l 476 1239 q 493 1249 481 1249 l 506 1249 q 517 1244 514 1249 q 515 1232 519 1239 l 425 1076 q 408 1067 418 1067 l 400 1067 z "},"Ř":{"ha":849,"x_min":157,"x_max":768,"o":"m 744 0 q 728 10 732 0 l 506 465 q 500 469 504 469 l 204 469 q 199 464 199 469 l 199 14 q 185 0 199 0 l 171 0 q 157 14 157 0 l 157 958 q 171 972 157 972 l 507 972 q 688 902 619 972 q 757 719 757 832 q 701 552 757 618 q 551 474 646 486 q 547 467 544 471 l 767 17 q 768 10 768 14 q 757 0 768 0 l 744 0 m 204 933 q 199 928 199 933 l 199 513 q 204 507 199 507 l 507 507 q 658 566 600 507 q 715 719 715 625 q 658 874 715 815 q 507 933 600 933 l 204 933 m 281 1232 q 278 1240 278 1235 q 281 1246 278 1243 q 289 1249 283 1249 l 301 1249 q 319 1240 314 1249 l 421 1111 q 425 1108 422 1108 q 429 1111 428 1108 l 526 1240 q 544 1249 532 1249 l 557 1249 q 568 1244 565 1249 q 565 1232 571 1239 l 450 1083 q 432 1075 444 1075 l 414 1075 q 396 1083 401 1075 l 281 1232 z "},"S":{"ha":803,"x_min":86,"x_max":714,"o":"m 408 -11 q 172 55 258 -11 q 86 232 86 121 l 86 281 q 100 294 86 294 l 111 294 q 125 281 125 294 l 125 235 q 201 84 125 140 q 411 28 278 28 q 605 81 538 28 q 672 226 672 133 q 644 325 672 283 q 556 404 617 367 q 386 489 496 442 q 223 567 276 536 q 139 642 169 597 q 108 756 108 686 q 182 925 108 867 q 393 983 256 983 q 623 917 542 983 q 704 739 704 851 l 704 706 q 690 692 704 692 l 676 692 q 663 706 663 692 l 663 736 q 591 888 663 831 q 389 944 519 944 q 210 897 272 944 q 149 758 149 850 q 176 660 149 699 q 254 595 204 622 q 413 524 304 568 q 642 393 571 457 q 714 229 714 329 q 634 54 714 119 q 408 -11 554 -11 z "},"Ś":{"ha":803,"x_min":86,"x_max":714,"o":"m 408 -11 q 172 55 258 -11 q 86 232 86 121 l 86 281 q 100 294 86 294 l 111 294 q 125 281 125 294 l 125 235 q 201 84 125 140 q 411 28 278 28 q 605 81 538 28 q 672 226 672 133 q 644 325 672 283 q 556 404 617 367 q 386 489 496 442 q 223 567 276 536 q 139 642 169 597 q 108 756 108 686 q 182 925 108 867 q 393 983 256 983 q 623 917 542 983 q 704 739 704 851 l 704 706 q 690 692 704 692 l 676 692 q 663 706 663 692 l 663 736 q 591 888 663 831 q 389 944 519 944 q 210 897 272 944 q 149 758 149 850 q 176 660 149 699 q 254 595 204 622 q 413 524 304 568 q 642 393 571 457 q 714 229 714 329 q 634 54 714 119 q 408 -11 554 -11 m 367 1067 q 356 1072 358 1067 q 357 1083 353 1076 l 443 1239 q 460 1249 447 1249 l 472 1249 q 483 1244 481 1249 q 482 1232 486 1239 l 392 1076 q 375 1067 385 1067 l 367 1067 z "},"Š":{"ha":803,"x_min":86,"x_max":714,"o":"m 408 -11 q 172 55 258 -11 q 86 232 86 121 l 86 281 q 100 294 86 294 l 111 294 q 125 281 125 294 l 125 235 q 201 84 125 140 q 411 28 278 28 q 605 81 538 28 q 672 226 672 133 q 644 325 672 283 q 556 404 617 367 q 386 489 496 442 q 223 567 276 536 q 139 642 169 597 q 108 756 108 686 q 182 925 108 867 q 393 983 256 983 q 623 917 542 983 q 704 739 704 851 l 704 706 q 690 692 704 692 l 676 692 q 663 706 663 692 l 663 736 q 591 888 663 831 q 389 944 519 944 q 210 897 272 944 q 149 758 149 850 q 176 660 149 699 q 254 595 204 622 q 413 524 304 568 q 642 393 571 457 q 714 229 714 329 q 634 54 714 119 q 408 -11 554 -11 m 249 1232 q 246 1240 246 1235 q 249 1246 246 1243 q 257 1249 251 1249 l 269 1249 q 288 1240 282 1249 l 389 1111 q 393 1108 390 1108 q 397 1111 396 1108 l 494 1240 q 513 1249 500 1249 l 525 1249 q 536 1244 533 1249 q 533 1232 539 1239 l 418 1083 q 400 1075 413 1075 l 382 1075 q 364 1083 369 1075 l 249 1232 z "},"Ş":{"ha":803,"x_min":86,"x_max":714,"o":"m 714 229 q 639 58 714 124 q 425 -11 564 -7 q 422 -18 415 -11 q 499 -150 499 -79 q 465 -234 499 -208 q 383 -260 432 -260 q 342 -256 361 -260 q 332 -239 328 -254 l 332 -237 l 335 -232 q 350 -224 338 -221 q 379 -226 369 -226 q 438 -208 415 -226 q 460 -149 460 -189 q 378 -12 460 -83 q 371 -10 376 -10 q 162 63 238 -1 q 86 232 86 128 l 86 281 q 100 294 86 294 l 111 294 q 125 281 125 294 l 125 235 q 201 84 125 140 q 411 28 278 28 q 605 81 538 28 q 672 226 672 133 q 644 325 672 283 q 556 404 617 367 q 386 489 496 442 q 223 567 276 536 q 139 642 169 597 q 108 756 108 686 q 182 925 108 867 q 393 983 256 983 q 623 917 542 983 q 704 739 704 851 l 704 706 q 690 692 704 692 l 676 692 q 663 706 663 692 l 663 736 q 591 888 663 831 q 389 944 519 944 q 210 897 272 944 q 149 758 149 850 q 176 660 149 699 q 254 595 204 622 q 413 524 304 568 q 642 393 571 457 q 714 229 714 329 z "},"Ŝ":{"ha":803,"x_min":86,"x_max":714,"o":"m 408 -11 q 172 55 258 -11 q 86 232 86 121 l 86 281 q 100 294 86 294 l 111 294 q 125 281 125 294 l 125 235 q 201 84 125 140 q 411 28 278 28 q 605 81 538 28 q 672 226 672 133 q 644 325 672 283 q 556 404 617 367 q 386 489 496 442 q 223 567 276 536 q 139 642 169 597 q 108 756 108 686 q 182 925 108 867 q 393 983 256 983 q 623 917 542 983 q 704 739 704 851 l 704 706 q 690 692 704 692 l 676 692 q 663 706 663 692 l 663 736 q 591 888 663 831 q 389 944 519 944 q 210 897 272 944 q 149 758 149 850 q 176 660 149 699 q 254 595 204 622 q 413 524 304 568 q 642 393 571 457 q 714 229 714 329 q 634 54 714 119 q 408 -11 554 -11 m 257 1075 q 246 1081 249 1075 q 249 1092 243 1086 l 364 1240 q 382 1249 371 1249 l 400 1249 q 418 1240 413 1249 l 533 1092 q 536 1083 536 1089 q 533 1078 536 1081 q 525 1075 531 1075 l 513 1075 q 494 1083 500 1075 l 397 1213 q 393 1215 396 1215 q 389 1213 390 1215 l 288 1083 q 269 1075 282 1075 l 257 1075 z "},"Ə":{"ha":757,"x_min":108,"x_max":636,"o":"m 625 533 q 634 464 632 501 q 636 353 636 426 q 634 244 636 279 q 625 176 632 208 q 538 40 604 92 q 374 -11 471 -11 q 205 42 274 -11 q 117 182 136 94 q 110 246 111 208 q 108 349 108 283 q 122 364 108 364 l 589 364 q 594 369 594 364 q 593 457 594 418 q 588 515 592 496 q 515 636 572 590 q 371 682 458 682 q 242 647 297 682 q 163 551 188 611 q 146 542 158 539 l 135 544 q 125 561 121 549 q 217 677 151 633 q 372 721 282 721 q 536 669 469 721 q 625 533 603 618 m 374 28 q 517 74 460 28 q 589 194 574 119 q 594 321 594 228 q 589 326 594 326 l 156 326 q 150 321 150 326 q 158 194 150 225 q 231 74 174 119 q 374 28 288 28 z "},"T":{"ha":778,"x_min":72,"x_max":706,"o":"m 692 972 q 706 958 706 972 l 706 947 q 692 933 706 933 l 408 933 q 403 928 403 933 l 403 14 q 389 0 403 0 l 375 0 q 361 14 361 0 l 361 928 q 356 933 361 933 l 86 933 q 72 947 72 933 l 72 958 q 86 972 72 972 l 692 972 z "},"Ŧ":{"ha":778,"x_min":72,"x_max":706,"o":"m 706 947 q 692 933 706 933 l 408 933 q 403 928 403 933 l 403 594 q 408 589 403 589 l 572 589 q 586 575 586 589 l 586 568 q 572 554 586 554 l 408 554 q 403 549 403 554 l 403 14 q 389 0 403 0 l 375 0 q 361 14 361 0 l 361 549 q 356 554 361 554 l 188 554 q 174 568 174 554 l 174 575 q 188 589 174 589 l 356 589 q 361 594 361 589 l 361 928 q 356 933 361 933 l 86 933 q 72 947 72 933 l 72 958 q 86 972 72 972 l 692 972 q 706 958 706 972 l 706 947 z "},"Ť":{"ha":778,"x_min":72,"x_max":706,"o":"m 692 972 q 706 958 706 972 l 706 947 q 692 933 706 933 l 408 933 q 403 928 403 933 l 403 14 q 389 0 403 0 l 375 0 q 361 14 361 0 l 361 928 q 356 933 361 933 l 86 933 q 72 947 72 933 l 72 958 q 86 972 72 972 l 692 972 z "},"U":{"ha":915,"x_min":144,"x_max":769,"o":"m 457 -11 q 293 26 364 -11 q 183 131 222 64 q 144 288 144 199 l 144 958 q 158 972 144 972 l 172 972 q 186 958 186 972 l 186 283 q 260 98 186 168 q 457 28 335 28 q 653 98 579 28 q 728 283 728 168 l 728 958 q 742 972 728 972 l 756 972 q 769 958 769 972 l 769 288 q 731 131 769 199 q 621 26 692 64 q 457 -11 550 -11 z "},"Ú":{"ha":915,"x_min":144,"x_max":769,"o":"m 457 -11 q 293 26 364 -11 q 183 131 222 64 q 144 288 144 199 l 144 958 q 158 972 144 972 l 172 972 q 186 958 186 972 l 186 283 q 260 98 186 168 q 457 28 335 28 q 653 98 579 28 q 728 283 728 168 l 728 958 q 742 972 728 972 l 756 972 q 769 958 769 972 l 769 288 q 731 131 769 199 q 621 26 692 64 q 457 -11 550 -11 m 432 1067 q 421 1072 424 1067 q 422 1083 418 1076 l 508 1239 q 525 1249 513 1249 l 538 1249 q 549 1244 546 1249 q 547 1232 551 1239 l 457 1076 q 440 1067 450 1067 l 432 1067 z "},"Ŭ":{"ha":915,"x_min":144,"x_max":769,"o":"m 457 -11 q 293 26 364 -11 q 183 131 222 64 q 144 288 144 199 l 144 958 q 158 972 144 972 l 172 972 q 186 958 186 972 l 186 283 q 260 98 186 168 q 457 28 335 28 q 653 98 579 28 q 728 283 728 168 l 728 958 q 742 972 728 972 l 756 972 q 769 958 769 972 l 769 288 q 731 131 769 199 q 621 26 692 64 q 457 -11 550 -11 m 457 1097 q 361 1133 401 1097 q 315 1221 321 1168 l 315 1224 q 328 1235 315 1235 l 336 1235 q 351 1221 350 1235 q 387 1156 357 1182 q 457 1131 417 1131 q 528 1156 499 1131 q 563 1221 558 1182 q 578 1235 564 1235 l 586 1235 q 600 1221 600 1235 q 553 1133 594 1168 q 457 1097 513 1097 z "},"Û":{"ha":915,"x_min":144,"x_max":769,"o":"m 457 -11 q 293 26 364 -11 q 183 131 222 64 q 144 288 144 199 l 144 958 q 158 972 144 972 l 172 972 q 186 958 186 972 l 186 283 q 260 98 186 168 q 457 28 335 28 q 653 98 579 28 q 728 283 728 168 l 728 958 q 742 972 728 972 l 756 972 q 769 958 769 972 l 769 288 q 731 131 769 199 q 621 26 692 64 q 457 -11 550 -11 m 322 1075 q 311 1081 314 1075 q 314 1092 308 1086 l 429 1240 q 447 1249 436 1249 l 465 1249 q 483 1240 478 1249 l 599 1092 q 601 1083 601 1089 q 599 1078 601 1081 q 590 1075 596 1075 l 578 1075 q 560 1083 565 1075 l 463 1213 q 458 1215 461 1215 q 454 1213 456 1215 l 353 1083 q 335 1075 347 1075 l 322 1075 z "},"Ü":{"ha":915,"x_min":144,"x_max":769,"o":"m 457 -11 q 293 26 364 -11 q 183 131 222 64 q 144 288 144 199 l 144 958 q 158 972 144 972 l 172 972 q 186 958 186 972 l 186 283 q 260 98 186 168 q 457 28 335 28 q 653 98 579 28 q 728 283 728 168 l 728 958 q 742 972 728 972 l 756 972 q 769 958 769 972 l 769 288 q 731 131 769 199 q 621 26 692 64 q 457 -11 550 -11 z "},"Ụ":{"ha":915,"x_min":144,"x_max":769,"o":"m 457 -11 q 293 26 364 -11 q 183 131 222 64 q 144 288 144 199 l 144 958 q 158 972 144 972 l 172 972 q 186 958 186 972 l 186 283 q 260 98 186 168 q 457 28 335 28 q 653 98 579 28 q 728 283 728 168 l 728 958 q 742 972 728 972 l 756 972 q 769 958 769 972 l 769 288 q 731 131 769 199 q 621 26 692 64 q 457 -11 550 -11 m 460 -229 q 420 -213 436 -229 q 404 -174 404 -197 q 420 -133 404 -149 q 460 -117 436 -117 q 499 -133 483 -117 q 515 -174 515 -149 q 499 -213 515 -197 q 460 -229 483 -229 z "},"Ù":{"ha":915,"x_min":144,"x_max":769,"o":"m 457 -11 q 293 26 364 -11 q 183 131 222 64 q 144 288 144 199 l 144 958 q 158 972 144 972 l 172 972 q 186 958 186 972 l 186 283 q 260 98 186 168 q 457 28 335 28 q 653 98 579 28 q 728 283 728 168 l 728 958 q 742 972 728 972 l 756 972 q 769 958 769 972 l 769 288 q 731 131 769 199 q 621 26 692 64 q 457 -11 550 -11 m 472 1083 q 475 1075 475 1078 q 464 1067 475 1067 l 456 1067 q 439 1076 446 1067 l 349 1232 q 346 1240 346 1238 q 358 1249 346 1249 l 371 1249 q 388 1239 383 1249 l 472 1083 z "},"Ủ":{"ha":915,"x_min":144,"x_max":769,"o":"m 457 -11 q 293 26 364 -11 q 183 131 222 64 q 144 288 144 199 l 144 958 q 158 972 144 972 l 172 972 q 186 958 186 972 l 186 283 q 260 98 186 168 q 457 28 335 28 q 653 98 579 28 q 728 283 728 168 l 728 958 q 742 972 728 972 l 756 972 q 769 958 769 972 l 769 288 q 731 131 769 199 q 621 26 692 64 q 457 -11 550 -11 m 453 1040 q 444 1048 446 1043 q 444 1058 442 1053 q 492 1121 458 1090 q 522 1154 513 1140 q 531 1190 531 1168 q 510 1231 531 1214 q 461 1249 490 1249 q 416 1238 432 1249 q 381 1197 400 1226 q 361 1193 372 1185 l 357 1196 q 353 1215 347 1203 q 399 1267 376 1251 q 463 1282 421 1282 q 536 1256 507 1282 q 565 1190 565 1229 q 552 1140 565 1160 q 511 1092 539 1119 q 475 1050 485 1068 l 472 1044 q 457 1039 467 1035 l 453 1040 z "},"Ư":{"ha":915,"x_min":144,"x_max":958,"o":"m 457 -11 q 293 26 364 -11 q 183 131 222 64 q 144 288 144 199 l 144 958 q 158 972 144 972 l 172 972 q 186 958 186 972 l 186 283 q 260 98 186 168 q 457 28 335 28 q 653 98 579 28 q 728 283 728 168 l 728 958 q 742 972 728 972 l 756 972 q 769 958 769 972 l 769 288 q 731 131 769 199 q 621 26 692 64 q 457 -11 550 -11 m 829 939 q 815 953 815 939 l 815 958 q 828 974 815 971 q 890 1003 864 978 q 921 1065 917 1029 q 936 1079 922 1079 l 944 1079 q 955 1075 951 1079 q 957 1064 958 1071 q 915 979 951 1014 q 829 939 879 944 z "},"Ứ":{"ha":915,"x_min":144,"x_max":958,"o":"m 457 -11 q 293 26 364 -11 q 183 131 222 64 q 144 288 144 199 l 144 958 q 158 972 144 972 l 172 972 q 186 958 186 972 l 186 283 q 260 98 186 168 q 457 28 335 28 q 653 98 579 28 q 728 283 728 168 l 728 958 q 742 972 728 972 l 756 972 q 769 958 769 972 l 769 288 q 731 131 769 199 q 621 26 692 64 q 457 -11 550 -11 m 829 939 q 815 953 815 939 l 815 958 q 828 974 815 971 q 890 1003 864 978 q 921 1065 917 1029 q 936 1079 922 1079 l 944 1079 q 955 1075 951 1079 q 957 1064 958 1071 q 915 979 951 1014 q 829 939 879 944 m 432 1067 q 421 1072 424 1067 q 422 1083 418 1076 l 508 1239 q 525 1249 513 1249 l 538 1249 q 549 1244 546 1249 q 547 1232 551 1239 l 457 1076 q 440 1067 450 1067 l 432 1067 z "},"Ự":{"ha":915,"x_min":144,"x_max":958,"o":"m 457 -11 q 293 26 364 -11 q 183 131 222 64 q 144 288 144 199 l 144 958 q 158 972 144 972 l 172 972 q 186 958 186 972 l 186 283 q 260 98 186 168 q 457 28 335 28 q 653 98 579 28 q 728 283 728 168 l 728 958 q 742 972 728 972 l 756 972 q 769 958 769 972 l 769 288 q 731 131 769 199 q 621 26 692 64 q 457 -11 550 -11 m 829 939 q 815 953 815 939 l 815 958 q 828 974 815 971 q 890 1003 864 978 q 921 1065 917 1029 q 936 1079 922 1079 l 944 1079 q 955 1075 951 1079 q 957 1064 958 1071 q 915 979 951 1014 q 829 939 879 944 m 460 -229 q 420 -213 436 -229 q 404 -174 404 -197 q 420 -133 404 -149 q 460 -117 436 -117 q 499 -133 483 -117 q 515 -174 515 -149 q 499 -213 515 -197 q 460 -229 483 -229 z "},"Ừ":{"ha":915,"x_min":144,"x_max":958,"o":"m 457 -11 q 293 26 364 -11 q 183 131 222 64 q 144 288 144 199 l 144 958 q 158 972 144 972 l 172 972 q 186 958 186 972 l 186 283 q 260 98 186 168 q 457 28 335 28 q 653 98 579 28 q 728 283 728 168 l 728 958 q 742 972 728 972 l 756 972 q 769 958 769 972 l 769 288 q 731 131 769 199 q 621 26 692 64 q 457 -11 550 -11 m 829 939 q 815 953 815 939 l 815 958 q 828 974 815 971 q 890 1003 864 978 q 921 1065 917 1029 q 936 1079 922 1079 l 944 1079 q 955 1075 951 1079 q 957 1064 958 1071 q 915 979 951 1014 q 829 939 879 944 m 472 1083 q 475 1075 475 1078 q 464 1067 475 1067 l 456 1067 q 439 1076 446 1067 l 349 1232 q 346 1240 346 1238 q 358 1249 346 1249 l 371 1249 q 388 1239 383 1249 l 472 1083 z "},"Ử":{"ha":915,"x_min":144,"x_max":958,"o":"m 457 -11 q 293 26 364 -11 q 183 131 222 64 q 144 288 144 199 l 144 958 q 158 972 144 972 l 172 972 q 186 958 186 972 l 186 283 q 260 98 186 168 q 457 28 335 28 q 653 98 579 28 q 728 283 728 168 l 728 958 q 742 972 728 972 l 756 972 q 769 958 769 972 l 769 288 q 731 131 769 199 q 621 26 692 64 q 457 -11 550 -11 m 829 939 q 815 953 815 939 l 815 958 q 828 974 815 971 q 890 1003 864 978 q 921 1065 917 1029 q 936 1079 922 1079 l 944 1079 q 955 1075 951 1079 q 957 1064 958 1071 q 915 979 951 1014 q 829 939 879 944 m 453 1040 q 444 1048 446 1043 q 444 1058 442 1053 q 492 1121 458 1090 q 522 1154 513 1140 q 531 1190 531 1168 q 510 1231 531 1214 q 461 1249 490 1249 q 416 1238 432 1249 q 381 1197 400 1226 q 361 1193 372 1185 l 357 1196 q 353 1215 347 1203 q 399 1267 376 1251 q 463 1282 421 1282 q 536 1256 507 1282 q 565 1190 565 1229 q 552 1140 565 1160 q 511 1092 539 1119 q 475 1050 485 1068 l 472 1044 q 457 1039 467 1035 l 453 1040 z "},"Ữ":{"ha":915,"x_min":144,"x_max":958,"o":"m 457 -11 q 293 26 364 -11 q 183 131 222 64 q 144 288 144 199 l 144 958 q 158 972 144 972 l 172 972 q 186 958 186 972 l 186 283 q 260 98 186 168 q 457 28 335 28 q 653 98 579 28 q 728 283 728 168 l 728 958 q 742 972 728 972 l 756 972 q 769 958 769 972 l 769 288 q 731 131 769 199 q 621 26 692 64 q 457 -11 550 -11 m 829 939 q 815 953 815 939 l 815 958 q 828 974 815 971 q 890 1003 864 978 q 921 1065 917 1029 q 936 1079 922 1079 l 944 1079 q 955 1075 951 1079 q 957 1064 958 1071 q 915 979 951 1014 q 829 939 879 944 m 543 1139 q 461 1171 504 1139 q 425 1194 439 1188 q 393 1201 411 1201 q 351 1193 368 1201 q 317 1161 335 1185 q 309 1156 314 1157 q 300 1157 304 1154 l 294 1160 l 292 1161 q 289 1181 281 1169 q 392 1239 331 1239 q 431 1231 414 1239 q 475 1207 447 1224 q 494 1194 479 1204 q 521 1180 508 1185 q 544 1175 533 1175 q 619 1217 588 1175 l 622 1222 q 630 1227 625 1226 q 639 1225 635 1228 l 644 1221 q 650 1210 650 1217 q 644 1196 650 1203 q 597 1153 625 1167 q 543 1139 569 1139 z "},"Ű":{"ha":915,"x_min":144,"x_max":769,"o":"m 457 -11 q 293 26 364 -11 q 183 131 222 64 q 144 288 144 199 l 144 958 q 158 972 144 972 l 172 972 q 186 958 186 972 l 186 283 q 260 98 186 168 q 457 28 335 28 q 653 98 579 28 q 728 283 728 168 l 728 958 q 742 972 728 972 l 756 972 q 769 958 769 972 l 769 288 q 731 131 769 199 q 621 26 692 64 q 457 -11 550 -11 m 338 1067 q 326 1072 329 1067 q 328 1083 324 1076 l 413 1239 q 429 1249 417 1249 l 442 1249 q 453 1244 450 1249 q 451 1232 456 1239 l 363 1076 q 346 1067 356 1067 l 338 1067 m 551 1067 q 540 1072 543 1067 q 542 1083 538 1076 l 626 1239 q 643 1249 631 1249 l 656 1249 q 667 1244 664 1249 q 665 1232 669 1239 l 576 1076 q 560 1067 569 1067 l 551 1067 z "},"Ū":{"ha":915,"x_min":144,"x_max":769,"o":"m 457 -11 q 293 26 364 -11 q 183 131 222 64 q 144 288 144 199 l 144 958 q 158 972 144 972 l 172 972 q 186 958 186 972 l 186 283 q 260 98 186 168 q 457 28 335 28 q 653 98 579 28 q 728 283 728 168 l 728 958 q 742 972 728 972 l 756 972 q 769 958 769 972 l 769 288 q 731 131 769 199 q 621 26 692 64 q 457 -11 550 -11 m 296 1114 q 282 1128 282 1114 l 282 1136 q 296 1150 282 1150 l 621 1150 q 635 1136 635 1150 l 635 1128 q 621 1114 635 1114 l 296 1114 z "},"Ų":{"ha":915,"x_min":144,"x_max":769,"o":"m 728 958 q 742 972 728 972 l 756 972 q 769 958 769 972 l 769 288 q 732 135 769 201 q 627 30 694 68 q 472 -11 560 -8 q 465 -14 468 -11 q 399 -136 399 -81 q 421 -195 399 -176 q 478 -214 443 -214 q 508 -211 489 -214 l 514 -211 q 525 -221 522 -211 l 526 -226 l 528 -232 q 517 -243 528 -240 q 475 -247 496 -247 q 393 -221 426 -247 q 360 -137 360 -194 q 422 -15 360 -72 q 419 -8 429 -11 q 219 83 294 3 q 144 288 144 163 l 144 958 q 158 972 144 972 l 172 972 q 186 958 186 972 l 186 283 q 260 98 186 168 q 457 28 335 28 q 653 98 579 28 q 728 283 728 168 l 728 958 z "},"Ů":{"ha":915,"x_min":144,"x_max":769,"o":"m 457 -11 q 293 26 364 -11 q 183 131 222 64 q 144 288 144 199 l 144 958 q 158 972 144 972 l 172 972 q 186 958 186 972 l 186 283 q 260 98 186 168 q 457 28 335 28 q 653 98 579 28 q 728 283 728 168 l 728 958 q 742 972 728 972 l 756 972 q 769 958 769 972 l 769 288 q 731 131 769 199 q 621 26 692 64 q 457 -11 550 -11 m 458 1093 q 359 1133 400 1093 q 318 1231 318 1174 q 359 1328 318 1288 q 458 1368 400 1368 q 557 1328 517 1368 q 597 1231 597 1288 q 557 1133 597 1174 q 458 1093 517 1093 m 458 1128 q 532 1157 501 1128 q 563 1231 563 1186 q 532 1303 563 1274 q 458 1333 501 1333 q 384 1303 415 1333 q 353 1231 353 1274 q 384 1158 353 1188 q 458 1128 415 1128 z "},"Ũ":{"ha":915,"x_min":144,"x_max":769,"o":"m 457 -11 q 293 26 364 -11 q 183 131 222 64 q 144 288 144 199 l 144 958 q 158 972 144 972 l 172 972 q 186 958 186 972 l 186 283 q 260 98 186 168 q 457 28 335 28 q 653 98 579 28 q 728 283 728 168 l 728 958 q 742 972 728 972 l 756 972 q 769 958 769 972 l 769 288 q 731 131 769 199 q 621 26 692 64 q 457 -11 550 -11 m 543 1139 q 461 1171 504 1139 q 425 1194 439 1188 q 393 1201 411 1201 q 351 1193 368 1201 q 317 1161 335 1185 q 309 1156 314 1157 q 300 1157 304 1154 l 294 1160 l 292 1161 q 289 1181 281 1169 q 392 1239 331 1239 q 431 1231 414 1239 q 475 1207 447 1224 q 494 1194 479 1204 q 521 1180 508 1185 q 544 1175 533 1175 q 619 1217 588 1175 l 622 1222 q 630 1227 625 1226 q 639 1225 635 1228 l 644 1221 q 650 1210 650 1217 q 644 1196 650 1203 q 597 1153 625 1167 q 543 1139 569 1139 z "},"V":{"ha":790,"x_min":56,"x_max":738,"o":"m 386 0 q 369 11 374 0 l 57 957 l 56 963 q 68 972 56 972 l 82 972 q 99 961 94 972 l 390 72 q 394 69 392 69 q 399 72 397 69 l 693 961 q 710 972 697 972 l 722 972 q 733 957 738 972 l 419 11 q 403 0 415 0 l 386 0 z "},"W":{"ha":1221,"x_min":42,"x_max":1179,"o":"m 335 0 q 319 11 324 0 l 43 957 l 42 961 q 56 972 42 972 l 68 972 q 83 961 79 972 l 340 89 q 344 86 342 86 q 347 89 346 86 l 582 960 q 597 972 585 972 l 614 972 q 629 961 626 972 l 871 89 q 874 86 872 86 q 878 89 876 86 l 1138 961 q 1153 972 1142 972 l 1165 972 q 1176 968 1172 972 q 1178 957 1179 964 l 896 11 q 881 0 892 0 l 864 0 q 849 13 851 0 l 611 893 q 608 896 610 896 q 604 893 606 896 l 367 13 q 351 0 364 0 l 335 0 z "},"Ẃ":{"ha":1225,"x_min":42,"x_max":1179,"o":"m 335 0 q 319 11 324 0 l 43 957 l 42 961 q 56 972 42 972 l 68 972 q 83 961 79 972 l 340 89 q 344 86 342 86 q 347 89 346 86 l 582 960 q 597 972 585 972 l 614 972 q 629 961 626 972 l 871 89 q 874 86 872 86 q 878 89 876 86 l 1138 961 q 1153 972 1142 972 l 1165 972 q 1176 968 1172 972 q 1178 957 1179 964 l 896 11 q 881 0 892 0 l 864 0 q 849 13 851 0 l 611 893 q 608 896 610 896 q 604 893 606 896 l 367 13 q 351 0 364 0 l 335 0 m 586 1067 q 575 1072 578 1067 q 576 1083 572 1076 l 663 1239 q 679 1249 667 1249 l 692 1249 q 703 1244 700 1249 q 701 1232 706 1239 l 611 1076 q 594 1067 604 1067 l 586 1067 z "},"Ŵ":{"ha":1225,"x_min":42,"x_max":1179,"o":"m 335 0 q 319 11 324 0 l 43 957 l 42 961 q 56 972 42 972 l 68 972 q 83 961 79 972 l 340 89 q 344 86 342 86 q 347 89 346 86 l 582 960 q 597 972 585 972 l 614 972 q 629 961 626 972 l 871 89 q 874 86 872 86 q 878 89 876 86 l 1138 961 q 1153 972 1142 972 l 1165 972 q 1176 968 1172 972 q 1178 957 1179 964 l 896 11 q 881 0 892 0 l 864 0 q 849 13 851 0 l 611 893 q 608 896 610 896 q 604 893 606 896 l 367 13 q 351 0 364 0 l 335 0 m 475 1075 q 464 1081 467 1075 q 467 1092 461 1086 l 582 1240 q 600 1249 589 1249 l 618 1249 q 636 1240 631 1249 l 751 1092 q 754 1083 754 1089 q 751 1078 754 1081 q 743 1075 749 1075 l 731 1075 q 713 1083 718 1075 l 615 1213 q 611 1215 614 1215 q 607 1213 608 1215 l 506 1083 q 488 1075 500 1075 l 475 1075 z "},"Ẅ":{"ha":1225,"x_min":42,"x_max":1179,"o":"m 335 0 q 319 11 324 0 l 43 957 l 42 961 q 56 972 42 972 l 68 972 q 83 961 79 972 l 340 89 q 344 86 342 86 q 347 89 346 86 l 582 960 q 597 972 585 972 l 614 972 q 629 961 626 972 l 871 89 q 874 86 872 86 q 878 89 876 86 l 1138 961 q 1153 972 1142 972 l 1165 972 q 1176 968 1172 972 q 1178 957 1179 964 l 896 11 q 881 0 892 0 l 864 0 q 849 13 851 0 l 611 893 q 608 896 610 896 q 604 893 606 896 l 367 13 q 351 0 364 0 l 335 0 z "},"Ẁ":{"ha":1225,"x_min":42,"x_max":1179,"o":"m 335 0 q 319 11 324 0 l 43 957 l 42 961 q 56 972 42 972 l 68 972 q 83 961 79 972 l 340 89 q 344 86 342 86 q 347 89 346 86 l 582 960 q 597 972 585 972 l 614 972 q 629 961 626 972 l 871 89 q 874 86 872 86 q 878 89 876 86 l 1138 961 q 1153 972 1142 972 l 1165 972 q 1176 968 1172 972 q 1178 957 1179 964 l 896 11 q 881 0 892 0 l 864 0 q 849 13 851 0 l 611 893 q 608 896 610 896 q 604 893 606 896 l 367 13 q 351 0 364 0 l 335 0 m 625 1083 q 628 1075 628 1078 q 617 1067 628 1067 l 608 1067 q 592 1076 599 1067 l 501 1232 q 499 1240 499 1238 q 511 1249 499 1249 l 524 1249 q 540 1239 536 1249 l 625 1083 z "},"X":{"ha":783,"x_min":58,"x_max":725,"o":"m 71 0 q 60 5 63 0 q 63 17 58 10 l 367 482 q 367 490 369 486 l 63 956 q 60 964 60 961 q 71 972 60 972 l 88 972 q 104 963 97 972 l 388 524 q 392 522 389 522 q 396 524 394 522 l 679 963 q 696 972 686 972 l 713 972 q 723 967 721 972 q 721 956 725 963 l 417 489 q 417 481 415 485 l 721 17 q 724 8 724 11 q 713 0 724 0 l 696 0 q 679 10 686 0 l 396 447 q 392 450 394 450 q 388 447 389 450 l 104 10 q 88 0 97 0 l 71 0 z "},"Y":{"ha":747,"x_min":58,"x_max":690,"o":"m 367 0 q 353 14 353 0 l 353 460 q 351 467 353 465 l 61 956 q 58 964 58 961 q 71 972 58 972 l 83 972 q 100 963 93 972 l 369 510 q 374 508 371 508 q 378 510 376 508 l 647 963 q 664 972 654 972 l 676 972 q 688 967 685 972 q 686 956 690 963 l 396 467 q 394 460 394 465 l 394 14 q 381 0 394 0 l 367 0 z "},"Ý":{"ha":747,"x_min":58,"x_max":690,"o":"m 367 0 q 353 14 353 0 l 353 460 q 351 467 353 465 l 61 956 q 58 964 58 961 q 71 972 58 972 l 83 972 q 100 963 93 972 l 369 510 q 374 508 371 508 q 378 510 376 508 l 647 963 q 664 972 654 972 l 676 972 q 688 967 685 972 q 686 956 690 963 l 396 467 q 394 460 394 465 l 394 14 q 381 0 394 0 l 367 0 m 349 1065 q 338 1070 340 1065 q 339 1082 335 1075 l 425 1238 q 442 1247 429 1247 l 454 1247 q 465 1242 463 1247 q 464 1231 468 1238 l 374 1075 q 357 1065 367 1065 l 349 1065 z "},"Ŷ":{"ha":747,"x_min":58,"x_max":690,"o":"m 367 0 q 353 14 353 0 l 353 460 q 351 467 353 465 l 61 956 q 58 964 58 961 q 71 972 58 972 l 83 972 q 100 963 93 972 l 369 510 q 374 508 371 508 q 378 510 376 508 l 647 963 q 664 972 654 972 l 676 972 q 688 967 685 972 q 686 956 690 963 l 396 467 q 394 460 394 465 l 394 14 q 381 0 394 0 l 367 0 m 239 1074 q 228 1079 231 1074 q 231 1090 225 1085 l 346 1239 q 364 1247 353 1247 l 382 1247 q 400 1239 394 1247 l 515 1090 q 518 1082 518 1088 q 515 1076 518 1079 q 507 1074 513 1074 l 494 1074 q 476 1082 482 1074 l 379 1211 q 375 1214 378 1214 q 371 1211 372 1214 l 269 1082 q 251 1074 264 1074 l 239 1074 z "},"Ÿ":{"ha":747,"x_min":58,"x_max":690,"o":"m 367 0 q 353 14 353 0 l 353 460 q 351 467 353 465 l 61 956 q 58 964 58 961 q 71 972 58 972 l 83 972 q 100 963 93 972 l 369 510 q 374 508 371 508 q 378 510 376 508 l 647 963 q 664 972 654 972 l 676 972 q 688 967 685 972 q 686 956 690 963 l 396 467 q 394 460 394 465 l 394 14 q 381 0 394 0 l 367 0 z "},"Ỵ":{"ha":747,"x_min":58,"x_max":690,"o":"m 367 0 q 353 14 353 0 l 353 460 q 351 467 353 465 l 61 956 q 58 964 58 961 q 71 972 58 972 l 83 972 q 100 963 93 972 l 369 510 q 374 508 371 508 q 378 510 376 508 l 647 963 q 664 972 654 972 l 676 972 q 688 967 685 972 q 686 956 690 963 l 396 467 q 394 460 394 465 l 394 14 q 381 0 394 0 l 367 0 m 374 -229 q 334 -213 350 -229 q 318 -174 318 -197 q 334 -133 318 -149 q 374 -117 350 -117 q 413 -133 397 -117 q 429 -174 429 -149 q 413 -213 429 -197 q 374 -229 397 -229 z "},"Ỳ":{"ha":747,"x_min":58,"x_max":690,"o":"m 367 0 q 353 14 353 0 l 353 460 q 351 467 353 465 l 61 956 q 58 964 58 961 q 71 972 58 972 l 83 972 q 100 963 93 972 l 369 510 q 374 508 371 508 q 378 510 376 508 l 647 963 q 664 972 654 972 l 676 972 q 688 967 685 972 q 686 956 690 963 l 396 467 q 394 460 394 465 l 394 14 q 381 0 394 0 l 367 0 m 389 1082 q 392 1074 392 1076 q 381 1065 392 1065 l 372 1065 q 356 1075 363 1065 l 265 1231 q 263 1239 263 1236 q 275 1247 263 1247 l 288 1247 q 304 1238 300 1247 l 389 1082 z "},"Ỷ":{"ha":747,"x_min":58,"x_max":690,"o":"m 367 0 q 353 14 353 0 l 353 460 q 351 467 353 465 l 61 956 q 58 964 58 961 q 71 972 58 972 l 83 972 q 100 963 93 972 l 369 510 q 374 508 371 508 q 378 510 376 508 l 647 963 q 664 972 654 972 l 676 972 q 688 967 685 972 q 686 956 690 963 l 396 467 q 394 460 394 465 l 394 14 q 381 0 394 0 l 367 0 m 369 1039 q 360 1047 363 1042 q 361 1057 358 1051 q 408 1119 375 1089 q 438 1153 429 1139 q 447 1189 447 1167 q 427 1230 447 1213 q 378 1247 407 1247 q 333 1236 349 1247 q 297 1196 317 1225 q 278 1192 289 1183 l 274 1194 q 269 1214 264 1201 q 315 1265 293 1250 q 379 1281 338 1281 q 453 1254 424 1281 q 482 1189 482 1228 q 469 1138 482 1158 q 428 1090 456 1118 q 392 1049 401 1067 l 389 1043 q 374 1038 383 1033 l 369 1039 z "},"Ỹ":{"ha":747,"x_min":58,"x_max":690,"o":"m 367 0 q 353 14 353 0 l 353 460 q 351 467 353 465 l 61 956 q 58 964 58 961 q 71 972 58 972 l 83 972 q 100 963 93 972 l 369 510 q 374 508 371 508 q 378 510 376 508 l 647 963 q 664 972 654 972 l 676 972 q 688 967 685 972 q 686 956 690 963 l 396 467 q 394 460 394 465 l 394 14 q 381 0 394 0 l 367 0 m 460 1138 q 378 1169 421 1138 q 342 1193 356 1186 q 310 1200 328 1200 q 268 1192 285 1200 q 233 1160 251 1183 q 226 1154 231 1156 q 217 1156 221 1153 l 211 1158 l 208 1160 q 206 1179 197 1168 q 308 1238 247 1238 q 347 1230 331 1238 q 392 1206 364 1222 q 410 1193 396 1203 q 438 1178 425 1183 q 461 1174 450 1174 q 536 1215 504 1174 l 539 1221 q 547 1226 542 1225 q 556 1224 551 1226 l 561 1219 q 567 1208 567 1215 q 561 1194 567 1201 q 514 1151 542 1165 q 460 1138 486 1138 z "},"Z":{"ha":756,"x_min":74,"x_max":671,"o":"m 88 0 q 74 14 74 0 l 74 29 q 79 47 74 36 l 621 926 q 621 931 622 929 q 617 933 619 933 l 88 933 q 74 947 74 933 l 74 958 q 88 972 74 972 l 657 972 q 671 958 671 972 l 671 943 q 665 925 671 936 l 124 46 q 124 41 122 43 q 128 39 125 39 l 657 39 q 671 25 671 39 l 671 14 q 657 0 671 0 l 88 0 z "},"Ź":{"ha":756,"x_min":74,"x_max":671,"o":"m 88 0 q 74 14 74 0 l 74 29 q 79 47 74 36 l 621 926 q 621 931 622 929 q 617 933 619 933 l 88 933 q 74 947 74 933 l 74 958 q 88 972 74 972 l 657 972 q 671 958 671 972 l 671 943 q 665 925 671 936 l 124 46 q 124 41 122 43 q 128 39 125 39 l 657 39 q 671 25 671 39 l 671 14 q 657 0 671 0 l 88 0 m 340 1067 q 329 1072 332 1067 q 331 1083 326 1076 l 417 1239 q 433 1249 421 1249 l 446 1249 q 457 1244 454 1249 q 456 1232 460 1239 l 365 1076 q 349 1067 358 1067 l 340 1067 z "},"Ž":{"ha":756,"x_min":74,"x_max":671,"o":"m 88 0 q 74 14 74 0 l 74 29 q 79 47 74 36 l 621 926 q 621 931 622 929 q 617 933 619 933 l 88 933 q 74 947 74 933 l 74 958 q 88 972 74 972 l 657 972 q 671 958 671 972 l 671 943 q 665 925 671 936 l 124 46 q 124 41 122 43 q 128 39 125 39 l 657 39 q 671 25 671 39 l 671 14 q 657 0 671 0 l 88 0 m 221 1232 q 218 1240 218 1235 q 221 1246 218 1243 q 229 1249 224 1249 l 242 1249 q 260 1240 254 1249 l 361 1111 q 365 1108 363 1108 q 369 1111 368 1108 l 467 1240 q 485 1249 472 1249 l 497 1249 q 508 1244 506 1249 q 506 1232 511 1239 l 390 1083 q 372 1075 385 1075 l 354 1075 q 336 1083 342 1075 l 221 1232 z "},"Ż":{"ha":756,"x_min":74,"x_max":671,"o":"m 88 0 q 74 14 74 0 l 74 29 q 79 47 74 36 l 621 926 q 621 931 622 929 q 617 933 619 933 l 88 933 q 74 947 74 933 l 74 958 q 88 972 74 972 l 657 972 q 671 958 671 972 l 671 943 q 665 925 671 936 l 124 46 q 124 41 122 43 q 128 39 125 39 l 657 39 q 671 25 671 39 l 671 14 q 657 0 671 0 l 88 0 m 363 1128 q 319 1144 336 1128 q 303 1188 303 1161 q 319 1229 303 1213 q 363 1246 336 1246 q 406 1229 389 1246 q 422 1188 422 1213 q 406 1144 422 1161 q 363 1128 389 1128 z "},"Ģ":{"ha":853,"x_min":121,"x_max":732,"o":"m 428 -11 q 267 24 336 -11 q 159 124 197 60 q 121 274 121 189 l 121 699 q 159 848 121 783 q 267 948 197 913 q 428 983 336 983 q 588 948 518 983 q 694 848 657 913 q 732 700 732 783 l 732 679 q 718 665 732 665 l 704 665 q 690 679 690 665 l 690 701 q 618 878 690 811 q 428 944 546 944 q 235 877 308 944 q 163 700 163 810 l 163 272 q 235 95 163 163 q 428 28 308 28 q 618 94 546 28 q 690 269 690 160 l 690 429 q 685 435 690 435 l 453 435 q 439 449 439 435 l 439 458 q 453 472 439 472 l 718 472 q 732 458 732 472 l 732 275 q 694 124 732 189 q 588 24 657 60 q 428 -11 518 -11 z "},"Ķ":{"ha":836,"x_min":157,"x_max":790,"o":"m 171 0 q 157 14 157 0 l 157 958 q 171 972 157 972 l 185 972 q 199 958 199 972 l 199 443 q 201 439 199 440 q 206 440 203 438 l 713 965 q 729 972 719 972 l 744 972 q 755 967 753 972 q 751 956 757 963 l 396 579 q 396 571 393 576 l 788 17 q 790 8 790 14 q 788 3 790 6 q 779 0 785 0 l 760 0 q 743 8 749 0 l 368 538 q 364 540 367 540 q 360 539 361 540 l 201 383 q 199 376 199 381 l 199 14 q 185 0 199 0 l 171 0 z "},"Ņ":{"ha":949,"x_min":157,"x_max":790,"o":"m 749 958 q 763 972 749 972 l 776 972 q 790 958 790 972 l 790 14 q 776 0 790 0 l 761 0 q 744 10 751 0 l 206 883 q 201 887 204 888 q 199 882 199 886 l 199 14 q 185 0 199 0 l 171 0 q 157 14 157 0 l 157 958 q 171 972 157 972 l 188 972 q 204 963 197 972 l 743 89 q 747 85 744 85 q 750 90 750 86 l 749 958 z "},"Ŗ":{"ha":849,"x_min":157,"x_max":768,"o":"m 744 0 q 728 10 732 0 l 506 465 q 500 469 504 469 l 204 469 q 199 464 199 469 l 199 14 q 185 0 199 0 l 171 0 q 157 14 157 0 l 157 958 q 171 972 157 972 l 507 972 q 688 902 619 972 q 757 719 757 832 q 701 552 757 618 q 551 474 646 486 q 547 467 544 471 l 767 17 q 768 10 768 14 q 757 0 768 0 l 744 0 m 204 933 q 199 928 199 933 l 199 513 q 204 507 199 507 l 507 507 q 658 566 600 507 q 715 719 715 625 q 658 874 715 815 q 507 933 600 933 l 204 933 z "},"Ţ":{"ha":778,"x_min":72,"x_max":706,"o":"m 692 972 q 706 958 706 972 l 706 947 q 692 933 706 933 l 408 933 q 403 928 403 933 l 403 14 q 389 0 403 0 l 375 0 q 361 14 361 0 l 361 928 q 356 933 361 933 l 86 933 q 72 947 72 933 l 72 958 q 86 972 72 972 l 692 972 m 338 -250 q 326 -233 322 -247 l 328 -226 q 344 -217 331 -214 q 376 -221 361 -221 q 434 -202 411 -221 q 457 -143 457 -183 q 385 -17 457 -83 q 378 -6 378 -11 q 385 0 378 0 l 393 0 q 410 -6 404 0 q 494 -146 494 -69 q 461 -228 494 -203 q 378 -254 428 -254 q 338 -250 356 -254 z "},"Ș":{"ha":803,"x_min":86,"x_max":714,"o":"m 408 -11 q 172 55 258 -11 q 86 232 86 121 l 86 281 q 100 294 86 294 l 111 294 q 125 281 125 294 l 125 235 q 201 84 125 140 q 411 28 278 28 q 605 81 538 28 q 672 226 672 133 q 644 325 672 283 q 556 404 617 367 q 386 489 496 442 q 223 567 276 536 q 139 642 169 597 q 108 756 108 686 q 182 925 108 867 q 393 983 256 983 q 623 917 542 983 q 704 739 704 851 l 704 706 q 690 692 704 692 l 676 692 q 663 706 663 692 l 663 736 q 591 888 663 831 q 389 944 519 944 q 210 897 272 944 q 149 758 149 850 q 176 660 149 699 q 254 595 204 622 q 413 524 304 568 q 642 393 571 457 q 714 229 714 329 q 634 54 714 119 q 408 -11 554 -11 z "},"Ț":{"ha":778,"x_min":72,"x_max":706,"o":"m 692 972 q 706 958 706 972 l 706 947 q 692 933 706 933 l 408 933 q 403 928 403 933 l 403 14 q 389 0 403 0 l 375 0 q 361 14 361 0 l 361 928 q 356 933 361 933 l 86 933 q 72 947 72 933 l 72 958 q 86 972 72 972 l 692 972 z "},"a":{"ha":694,"x_min":81,"x_max":585,"o":"m 350 707 q 526 645 468 707 q 585 476 585 583 l 585 14 q 571 0 585 0 l 557 0 q 543 14 543 0 l 543 86 q 541 90 543 89 q 536 89 539 92 q 440 15 501 40 q 307 -11 379 -11 q 147 35 213 -11 q 81 181 81 82 q 156 338 81 281 q 365 396 232 396 l 538 396 q 543 401 543 396 l 543 479 q 496 617 543 565 q 347 668 449 668 q 218 636 269 668 q 156 549 167 604 q 139 538 151 535 l 125 540 q 113 553 111 543 q 190 665 126 622 q 350 707 254 707 m 308 26 q 473 72 403 26 q 543 201 543 118 l 543 353 q 538 358 543 358 l 364 358 q 189 312 256 358 q 122 182 122 265 q 174 66 122 106 q 308 26 225 26 z "},"á":{"ha":694,"x_min":81,"x_max":585,"o":"m 350 707 q 526 645 468 707 q 585 476 585 583 l 585 14 q 571 0 585 0 l 557 0 q 543 14 543 0 l 543 86 q 541 90 543 89 q 536 89 539 92 q 440 15 501 40 q 307 -11 379 -11 q 147 35 213 -11 q 81 181 81 82 q 156 338 81 281 q 365 396 232 396 l 538 396 q 543 401 543 396 l 543 479 q 496 617 543 565 q 347 668 449 668 q 218 636 269 668 q 156 549 167 604 q 139 538 151 535 l 125 540 q 113 553 111 543 q 190 665 126 622 q 350 707 254 707 m 308 26 q 473 72 403 26 q 543 201 543 118 l 543 353 q 538 358 543 358 l 364 358 q 189 312 256 358 q 122 182 122 265 q 174 66 122 106 q 308 26 225 26 m 322 790 q 311 795 314 790 q 313 807 308 800 l 399 963 q 415 972 403 972 l 428 972 q 439 967 436 972 q 438 956 442 963 l 347 800 q 331 790 340 790 l 322 790 z "},"ă":{"ha":694,"x_min":81,"x_max":585,"o":"m 350 707 q 526 645 468 707 q 585 476 585 583 l 585 14 q 571 0 585 0 l 557 0 q 543 14 543 0 l 543 86 q 541 90 543 89 q 536 89 539 92 q 440 15 501 40 q 307 -11 379 -11 q 147 35 213 -11 q 81 181 81 82 q 156 338 81 281 q 365 396 232 396 l 538 396 q 543 401 543 396 l 543 479 q 496 617 543 565 q 347 668 449 668 q 218 636 269 668 q 156 549 167 604 q 139 538 151 535 l 125 540 q 113 553 111 543 q 190 665 126 622 q 350 707 254 707 m 308 26 q 473 72 403 26 q 543 201 543 118 l 543 353 q 538 358 543 358 l 364 358 q 189 312 256 358 q 122 182 122 265 q 174 66 122 106 q 308 26 225 26 m 347 783 q 251 819 292 783 q 206 907 211 854 l 206 910 q 218 921 206 921 l 226 921 q 242 907 240 921 q 277 842 247 868 q 347 817 307 817 q 417 842 388 817 q 451 907 447 868 q 467 921 453 921 l 476 921 q 487 917 483 921 q 489 907 490 913 q 443 819 483 854 q 347 783 403 783 z "},"ắ":{"ha":694,"x_min":81,"x_max":585,"o":"m 350 707 q 526 645 468 707 q 585 476 585 583 l 585 14 q 571 0 585 0 l 557 0 q 543 14 543 0 l 543 86 q 541 90 543 89 q 536 89 539 92 q 440 15 501 40 q 307 -11 379 -11 q 147 35 213 -11 q 81 181 81 82 q 156 338 81 281 q 365 396 232 396 l 538 396 q 543 401 543 396 l 543 479 q 496 617 543 565 q 347 668 449 668 q 218 636 269 668 q 156 549 167 604 q 139 538 151 535 l 125 540 q 113 553 111 543 q 190 665 126 622 q 350 707 254 707 m 308 26 q 473 72 403 26 q 543 201 543 118 l 543 353 q 538 358 543 358 l 364 358 q 189 312 256 358 q 122 182 122 265 q 174 66 122 106 q 308 26 225 26 z "},"ặ":{"ha":694,"x_min":81,"x_max":585,"o":"m 350 707 q 526 645 468 707 q 585 476 585 583 l 585 14 q 571 0 585 0 l 557 0 q 543 14 543 0 l 543 86 q 541 90 543 89 q 536 89 539 92 q 440 15 501 40 q 307 -11 379 -11 q 147 35 213 -11 q 81 181 81 82 q 156 338 81 281 q 365 396 232 396 l 538 396 q 543 401 543 396 l 543 479 q 496 617 543 565 q 347 668 449 668 q 218 636 269 668 q 156 549 167 604 q 139 538 151 535 l 125 540 q 113 553 111 543 q 190 665 126 622 q 350 707 254 707 m 308 26 q 473 72 403 26 q 543 201 543 118 l 543 353 q 538 358 543 358 l 364 358 q 189 312 256 358 q 122 182 122 265 q 174 66 122 106 q 308 26 225 26 m 347 -229 q 308 -213 324 -229 q 292 -174 292 -197 q 308 -133 292 -149 q 347 -117 324 -117 q 387 -133 371 -117 q 403 -174 403 -149 q 387 -213 403 -197 q 347 -229 371 -229 m 347 821 q 251 856 292 821 q 206 944 211 892 l 206 947 q 218 958 206 958 l 226 958 q 242 944 240 958 q 277 880 247 906 q 347 854 307 854 q 419 880 389 854 q 453 944 449 906 q 468 958 454 958 l 476 958 q 490 944 490 958 q 444 856 485 892 q 347 821 403 821 z "},"ằ":{"ha":694,"x_min":81,"x_max":585,"o":"m 350 707 q 526 645 468 707 q 585 476 585 583 l 585 14 q 571 0 585 0 l 557 0 q 543 14 543 0 l 543 86 q 541 90 543 89 q 536 89 539 92 q 440 15 501 40 q 307 -11 379 -11 q 147 35 213 -11 q 81 181 81 82 q 156 338 81 281 q 365 396 232 396 l 538 396 q 543 401 543 396 l 543 479 q 496 617 543 565 q 347 668 449 668 q 218 636 269 668 q 156 549 167 604 q 139 538 151 535 l 125 540 q 113 553 111 543 q 190 665 126 622 q 350 707 254 707 m 308 26 q 473 72 403 26 q 543 201 543 118 l 543 353 q 538 358 543 358 l 364 358 q 189 312 256 358 q 122 182 122 265 q 174 66 122 106 q 308 26 225 26 z "},"ẳ":{"ha":694,"x_min":81,"x_max":585,"o":"m 350 707 q 526 645 468 707 q 585 476 585 583 l 585 14 q 571 0 585 0 l 557 0 q 543 14 543 0 l 543 86 q 541 90 543 89 q 536 89 539 92 q 440 15 501 40 q 307 -11 379 -11 q 147 35 213 -11 q 81 181 81 82 q 156 338 81 281 q 365 396 232 396 l 538 396 q 543 401 543 396 l 543 479 q 496 617 543 565 q 347 668 449 668 q 218 636 269 668 q 156 549 167 604 q 139 538 151 535 l 125 540 q 113 553 111 543 q 190 665 126 622 q 350 707 254 707 m 308 26 q 473 72 403 26 q 543 201 543 118 l 543 353 q 538 358 543 358 l 364 358 q 189 312 256 358 q 122 182 122 265 q 174 66 122 106 q 308 26 225 26 z "},"ẵ":{"ha":694,"x_min":81,"x_max":585,"o":"m 350 707 q 526 645 468 707 q 585 476 585 583 l 585 14 q 571 0 585 0 l 557 0 q 543 14 543 0 l 543 86 q 541 90 543 89 q 536 89 539 92 q 440 15 501 40 q 307 -11 379 -11 q 147 35 213 -11 q 81 181 81 82 q 156 338 81 281 q 365 396 232 396 l 538 396 q 543 401 543 396 l 543 479 q 496 617 543 565 q 347 668 449 668 q 218 636 269 668 q 156 549 167 604 q 139 538 151 535 l 125 540 q 113 553 111 543 q 190 665 126 622 q 350 707 254 707 m 308 26 q 473 72 403 26 q 543 201 543 118 l 543 353 q 538 358 543 358 l 364 358 q 189 312 256 358 q 122 182 122 265 q 174 66 122 106 q 308 26 225 26 m 433 1024 q 353 1056 396 1024 q 318 1078 332 1071 q 285 1085 304 1085 q 244 1077 261 1085 q 210 1046 228 1069 q 202 1040 207 1042 q 193 1042 197 1039 l 188 1044 l 185 1046 q 182 1065 174 1054 q 285 1122 222 1122 q 324 1115 307 1122 q 365 1092 342 1107 q 384 1079 369 1089 q 411 1065 399 1069 q 435 1060 424 1060 q 475 1069 457 1060 q 511 1104 493 1079 q 529 1108 518 1118 l 533 1106 q 539 1096 539 1101 q 533 1081 539 1088 q 487 1038 514 1051 q 433 1024 460 1024 m 347 821 q 251 856 292 821 q 206 944 211 892 l 206 947 q 218 958 206 958 l 226 958 q 242 944 240 958 q 276 880 246 906 q 347 854 306 854 q 419 880 389 854 q 453 944 449 906 q 468 958 454 958 l 476 958 q 487 954 483 958 q 489 944 490 950 q 443 856 483 892 q 347 821 403 821 z "},"ǎ":{"ha":694,"x_min":81,"x_max":585,"o":"m 350 707 q 526 645 468 707 q 585 476 585 583 l 585 14 q 571 0 585 0 l 557 0 q 543 14 543 0 l 543 86 q 541 90 543 89 q 536 89 539 92 q 440 15 501 40 q 307 -11 379 -11 q 147 35 213 -11 q 81 181 81 82 q 156 338 81 281 q 365 396 232 396 l 538 396 q 543 401 543 396 l 543 479 q 496 617 543 565 q 347 668 449 668 q 218 636 269 668 q 156 549 167 604 q 139 538 151 535 l 125 540 q 113 553 111 543 q 190 665 126 622 q 350 707 254 707 m 308 26 q 473 72 403 26 q 543 201 543 118 l 543 353 q 538 358 543 358 l 364 358 q 189 312 256 358 q 122 182 122 265 q 174 66 122 106 q 308 26 225 26 z "},"â":{"ha":694,"x_min":81,"x_max":585,"o":"m 350 707 q 526 645 468 707 q 585 476 585 583 l 585 14 q 571 0 585 0 l 557 0 q 543 14 543 0 l 543 86 q 541 90 543 89 q 536 89 539 92 q 440 15 501 40 q 307 -11 379 -11 q 147 35 213 -11 q 81 181 81 82 q 156 338 81 281 q 365 396 232 396 l 538 396 q 543 401 543 396 l 543 479 q 496 617 543 565 q 347 668 449 668 q 218 636 269 668 q 156 549 167 604 q 139 538 151 535 l 125 540 q 113 553 111 543 q 190 665 126 622 q 350 707 254 707 m 308 26 q 473 72 403 26 q 543 201 543 118 l 543 353 q 538 358 543 358 l 364 358 q 189 312 256 358 q 122 182 122 265 q 174 66 122 106 q 308 26 225 26 m 213 799 q 201 804 204 799 q 204 815 199 810 l 319 964 q 338 972 326 972 l 356 972 q 374 964 368 972 l 489 815 q 492 807 492 813 q 489 801 492 804 q 481 799 486 799 l 468 799 q 450 807 456 799 l 353 936 q 349 939 351 939 q 344 936 346 939 l 243 807 q 225 799 238 799 l 213 799 z "},"ấ":{"ha":694,"x_min":81,"x_max":631,"o":"m 350 707 q 526 645 468 707 q 585 476 585 583 l 585 14 q 571 0 585 0 l 557 0 q 543 14 543 0 l 543 86 q 541 90 543 89 q 536 89 539 92 q 440 15 501 40 q 307 -11 379 -11 q 147 35 213 -11 q 81 181 81 82 q 156 338 81 281 q 365 396 232 396 l 538 396 q 543 401 543 396 l 543 479 q 496 617 543 565 q 347 668 449 668 q 218 636 269 668 q 156 549 167 604 q 139 538 151 535 l 125 540 q 113 553 111 543 q 190 665 126 622 q 350 707 254 707 m 308 26 q 473 72 403 26 q 543 201 543 118 l 543 353 q 538 358 543 358 l 364 358 q 189 312 256 358 q 122 182 122 265 q 174 66 122 106 q 308 26 225 26 z "},"ậ":{"ha":694,"x_min":81,"x_max":585,"o":"m 350 707 q 526 645 468 707 q 585 476 585 583 l 585 14 q 571 0 585 0 l 557 0 q 543 14 543 0 l 543 86 q 541 90 543 89 q 536 89 539 92 q 440 15 501 40 q 307 -11 379 -11 q 147 35 213 -11 q 81 181 81 82 q 156 338 81 281 q 365 396 232 396 l 538 396 q 543 401 543 396 l 543 479 q 496 617 543 565 q 347 668 449 668 q 218 636 269 668 q 156 549 167 604 q 139 538 151 535 l 125 540 q 113 553 111 543 q 190 665 126 622 q 350 707 254 707 m 308 26 q 473 72 403 26 q 543 201 543 118 l 543 353 q 538 358 543 358 l 364 358 q 189 312 256 358 q 122 182 122 265 q 174 66 122 106 q 308 26 225 26 m 347 -229 q 308 -213 324 -229 q 292 -174 292 -197 q 308 -133 292 -149 q 347 -117 324 -117 q 387 -133 371 -117 q 403 -174 403 -149 q 387 -213 403 -197 q 347 -229 371 -229 m 213 799 q 201 804 204 799 q 204 815 199 810 l 319 964 q 338 972 326 972 l 356 972 q 374 964 368 972 l 489 815 q 492 807 492 813 q 489 801 492 804 q 481 799 486 799 l 468 799 q 450 807 456 799 l 353 936 q 349 939 351 939 q 344 936 346 939 l 243 807 q 225 799 238 799 l 213 799 z "},"ầ":{"ha":694,"x_min":81,"x_max":585,"o":"m 350 707 q 526 645 468 707 q 585 476 585 583 l 585 14 q 571 0 585 0 l 557 0 q 543 14 543 0 l 543 86 q 541 90 543 89 q 536 89 539 92 q 440 15 501 40 q 307 -11 379 -11 q 147 35 213 -11 q 81 181 81 82 q 156 338 81 281 q 365 396 232 396 l 538 396 q 543 401 543 396 l 543 479 q 496 617 543 565 q 347 668 449 668 q 218 636 269 668 q 156 549 167 604 q 139 538 151 535 l 125 540 q 113 553 111 543 q 190 665 126 622 q 350 707 254 707 m 308 26 q 473 72 403 26 q 543 201 543 118 l 543 353 q 538 358 543 358 l 364 358 q 189 312 256 358 q 122 182 122 265 q 174 66 122 106 q 308 26 225 26 z "},"ẩ":{"ha":694,"x_min":81,"x_max":588,"o":"m 350 707 q 526 645 468 707 q 585 476 585 583 l 585 14 q 571 0 585 0 l 557 0 q 543 14 543 0 l 543 86 q 541 90 543 89 q 536 89 539 92 q 440 15 501 40 q 307 -11 379 -11 q 147 35 213 -11 q 81 181 81 82 q 156 338 81 281 q 365 396 232 396 l 538 396 q 543 401 543 396 l 543 479 q 496 617 543 565 q 347 668 449 668 q 218 636 269 668 q 156 549 167 604 q 139 538 151 535 l 125 540 q 113 553 111 543 q 190 665 126 622 q 350 707 254 707 m 308 26 q 473 72 403 26 q 543 201 543 118 l 543 353 q 538 358 543 358 l 364 358 q 189 312 256 358 q 122 182 122 265 q 174 66 122 106 q 308 26 225 26 z "},"ẫ":{"ha":694,"x_min":81,"x_max":585,"o":"m 350 707 q 526 645 468 707 q 585 476 585 583 l 585 14 q 571 0 585 0 l 557 0 q 543 14 543 0 l 543 86 q 541 90 543 89 q 536 89 539 92 q 440 15 501 40 q 307 -11 379 -11 q 147 35 213 -11 q 81 181 81 82 q 156 338 81 281 q 365 396 232 396 l 538 396 q 543 401 543 396 l 543 479 q 496 617 543 565 q 347 668 449 668 q 218 636 269 668 q 156 549 167 604 q 139 538 151 535 l 125 540 q 113 553 111 543 q 190 665 126 622 q 350 707 254 707 m 308 26 q 473 72 403 26 q 543 201 543 118 l 543 353 q 538 358 543 358 l 364 358 q 189 312 256 358 q 122 182 122 265 q 174 66 122 106 q 308 26 225 26 z "},"ä":{"ha":694,"x_min":81,"x_max":585,"o":"m 350 707 q 526 645 468 707 q 585 476 585 583 l 585 14 q 571 0 585 0 l 557 0 q 543 14 543 0 l 543 86 q 541 90 543 89 q 536 89 539 92 q 440 15 501 40 q 307 -11 379 -11 q 147 35 213 -11 q 81 181 81 82 q 156 338 81 281 q 365 396 232 396 l 538 396 q 543 401 543 396 l 543 479 q 496 617 543 565 q 347 668 449 668 q 218 636 269 668 q 156 549 167 604 q 139 538 151 535 l 125 540 q 113 553 111 543 q 190 665 126 622 q 350 707 254 707 m 308 26 q 473 72 403 26 q 543 201 543 118 l 543 353 q 538 358 543 358 l 364 358 q 189 312 256 358 q 122 182 122 265 q 174 66 122 106 q 308 26 225 26 z "},"ạ":{"ha":694,"x_min":81,"x_max":585,"o":"m 350 707 q 526 645 468 707 q 585 476 585 583 l 585 14 q 571 0 585 0 l 557 0 q 543 14 543 0 l 543 86 q 541 90 543 89 q 536 89 539 92 q 440 15 501 40 q 307 -11 379 -11 q 147 35 213 -11 q 81 181 81 82 q 156 338 81 281 q 365 396 232 396 l 538 396 q 543 401 543 396 l 543 479 q 496 617 543 565 q 347 668 449 668 q 218 636 269 668 q 156 549 167 604 q 139 538 151 535 l 125 540 q 113 553 111 543 q 190 665 126 622 q 350 707 254 707 m 308 26 q 473 72 403 26 q 543 201 543 118 l 543 353 q 538 358 543 358 l 364 358 q 189 312 256 358 q 122 182 122 265 q 174 66 122 106 q 308 26 225 26 m 347 -229 q 308 -213 324 -229 q 292 -174 292 -197 q 308 -133 292 -149 q 347 -117 324 -117 q 387 -133 371 -117 q 403 -174 403 -149 q 387 -213 403 -197 q 347 -229 371 -229 z "},"à":{"ha":694,"x_min":81,"x_max":585,"o":"m 350 707 q 526 645 468 707 q 585 476 585 583 l 585 14 q 571 0 585 0 l 557 0 q 543 14 543 0 l 543 86 q 541 90 543 89 q 536 89 539 92 q 440 15 501 40 q 307 -11 379 -11 q 147 35 213 -11 q 81 181 81 82 q 156 338 81 281 q 365 396 232 396 l 538 396 q 543 401 543 396 l 543 479 q 496 617 543 565 q 347 668 449 668 q 218 636 269 668 q 156 549 167 604 q 139 538 151 535 l 125 540 q 113 553 111 543 q 190 665 126 622 q 350 707 254 707 m 308 26 q 473 72 403 26 q 543 201 543 118 l 543 353 q 538 358 543 358 l 364 358 q 189 312 256 358 q 122 182 122 265 q 174 66 122 106 q 308 26 225 26 m 363 807 q 365 799 365 801 q 354 790 365 790 l 346 790 q 329 800 336 790 l 239 956 q 236 964 236 961 q 249 972 236 972 l 261 972 q 278 963 274 972 l 363 807 z "},"ả":{"ha":694,"x_min":81,"x_max":585,"o":"m 350 707 q 526 645 468 707 q 585 476 585 583 l 585 14 q 571 0 585 0 l 557 0 q 543 14 543 0 l 543 86 q 541 90 543 89 q 536 89 539 92 q 440 15 501 40 q 307 -11 379 -11 q 147 35 213 -11 q 81 181 81 82 q 156 338 81 281 q 365 396 232 396 l 538 396 q 543 401 543 396 l 543 479 q 496 617 543 565 q 347 668 449 668 q 218 636 269 668 q 156 549 167 604 q 139 538 151 535 l 125 540 q 113 553 111 543 q 190 665 126 622 q 350 707 254 707 m 308 26 q 473 72 403 26 q 543 201 543 118 l 543 353 q 538 358 543 358 l 364 358 q 189 312 256 358 q 122 182 122 265 q 174 66 122 106 q 308 26 225 26 m 343 764 q 334 772 336 767 q 335 782 332 776 q 382 844 349 814 q 412 878 403 864 q 421 914 421 892 q 401 955 421 938 q 351 972 381 972 q 306 961 322 972 q 271 921 290 950 q 251 917 263 908 l 247 919 q 243 939 238 926 q 289 990 267 975 q 353 1006 311 1006 q 426 979 397 1006 q 456 914 456 953 q 442 863 456 883 q 401 815 429 843 q 365 774 375 792 l 363 768 q 347 763 357 758 l 343 764 z "},"ā":{"ha":694,"x_min":81,"x_max":585,"o":"m 350 707 q 526 645 468 707 q 585 476 585 583 l 585 14 q 571 0 585 0 l 557 0 q 543 14 543 0 l 543 86 q 541 90 543 89 q 536 89 539 92 q 440 15 501 40 q 307 -11 379 -11 q 147 35 213 -11 q 81 181 81 82 q 156 338 81 281 q 365 396 232 396 l 538 396 q 543 401 543 396 l 543 479 q 496 617 543 565 q 347 668 449 668 q 218 636 269 668 q 156 549 167 604 q 139 538 151 535 l 125 540 q 113 553 111 543 q 190 665 126 622 q 350 707 254 707 m 308 26 q 473 72 403 26 q 543 201 543 118 l 543 353 q 538 358 543 358 l 364 358 q 189 312 256 358 q 122 182 122 265 q 174 66 122 106 q 308 26 225 26 m 186 838 q 172 851 172 838 l 172 860 q 186 874 172 874 l 511 874 q 525 860 525 874 l 525 851 q 511 838 525 838 l 186 838 z "},"ą":{"ha":694,"x_min":81,"x_max":625,"o":"m 610 -217 q 622 -228 619 -217 l 624 -233 l 625 -239 q 614 -250 625 -247 q 574 -254 593 -254 q 490 -228 524 -254 q 457 -143 457 -201 q 543 -3 457 -69 q 544 3 546 -1 q 543 14 543 6 l 543 86 q 541 90 543 89 q 536 89 539 92 q 440 15 501 40 q 307 -11 379 -11 q 147 35 213 -11 q 81 181 81 82 q 156 338 81 281 q 365 396 232 396 l 538 396 q 543 401 543 396 l 543 479 q 496 617 543 565 q 347 668 449 668 q 218 636 269 668 q 156 549 167 604 q 139 538 151 535 l 125 540 q 115 546 118 542 q 114 556 113 550 q 192 665 128 624 q 350 707 256 707 q 526 645 468 707 q 585 476 585 583 l 585 10 q 576 -7 585 1 q 494 -143 494 -75 q 516 -202 494 -183 q 572 -221 538 -221 q 606 -217 589 -221 l 610 -217 m 308 26 q 473 72 403 26 q 543 201 543 118 l 543 353 q 538 358 543 358 l 364 358 q 189 312 256 358 q 122 182 122 265 q 174 66 122 106 q 308 26 225 26 z "},"å":{"ha":694,"x_min":81,"x_max":585,"o":"m 350 707 q 526 645 468 707 q 585 476 585 583 l 585 14 q 571 0 585 0 l 557 0 q 543 14 543 0 l 543 86 q 541 90 543 89 q 536 89 539 92 q 440 15 501 40 q 307 -11 379 -11 q 147 35 213 -11 q 81 181 81 82 q 156 338 81 281 q 365 396 232 396 l 538 396 q 543 401 543 396 l 543 479 q 496 617 543 565 q 347 668 449 668 q 218 636 269 668 q 156 549 167 604 q 139 538 151 535 l 125 540 q 113 553 111 543 q 190 665 126 622 q 350 707 254 707 m 308 26 q 473 72 403 26 q 543 201 543 118 l 543 353 q 538 358 543 358 l 364 358 q 189 312 256 358 q 122 182 122 265 q 174 66 122 106 q 308 26 225 26 m 349 817 q 249 857 290 817 q 208 954 208 897 q 249 1051 208 1011 q 349 1092 290 1092 q 447 1051 407 1092 q 488 954 488 1011 q 447 857 488 897 q 349 817 407 817 m 349 851 q 422 881 392 851 q 453 954 453 910 q 422 1027 453 997 q 349 1057 392 1057 q 274 1027 306 1057 q 243 954 243 997 q 274 881 243 911 q 349 851 306 851 z "},"ã":{"ha":694,"x_min":81,"x_max":585,"o":"m 350 707 q 526 645 468 707 q 585 476 585 583 l 585 14 q 571 0 585 0 l 557 0 q 543 14 543 0 l 543 86 q 541 90 543 89 q 536 89 539 92 q 440 15 501 40 q 307 -11 379 -11 q 147 35 213 -11 q 81 181 81 82 q 156 338 81 281 q 365 396 232 396 l 538 396 q 543 401 543 396 l 543 479 q 496 617 543 565 q 347 668 449 668 q 218 636 269 668 q 156 549 167 604 q 139 538 151 535 l 125 540 q 113 553 111 543 q 190 665 126 622 q 350 707 254 707 m 308 26 q 473 72 403 26 q 543 201 543 118 l 543 353 q 538 358 543 358 l 364 358 q 189 312 256 358 q 122 182 122 265 q 174 66 122 106 q 308 26 225 26 m 433 863 q 351 894 394 863 q 315 918 329 911 q 283 925 301 925 q 242 917 258 925 q 207 885 225 908 q 199 879 204 881 q 190 881 194 878 l 185 883 l 182 885 q 179 904 171 893 q 282 963 221 963 q 321 955 304 963 q 365 931 338 947 q 384 918 369 928 q 411 903 399 908 q 435 899 424 899 q 510 940 478 899 l 513 946 q 520 951 515 950 q 529 949 525 951 l 535 944 q 540 933 540 940 q 535 919 540 926 q 488 876 515 890 q 433 863 460 863 z "},"æ":{"ha":1153,"x_min":81,"x_max":1047,"o":"m 308 -11 q 147 35 214 -11 q 81 179 81 81 q 156 332 81 278 q 365 386 231 386 l 538 386 q 543 392 543 386 l 543 478 q 496 616 543 564 q 347 668 449 668 q 218 636 269 668 q 156 549 167 604 q 139 538 151 535 l 125 540 q 115 546 118 542 q 114 556 113 550 q 192 665 128 624 q 350 707 256 707 q 568 574 521 707 q 575 572 571 565 q 659 670 600 633 q 794 707 718 707 q 953 656 888 707 q 1039 524 1019 606 q 1046 463 1044 497 q 1047 364 1047 428 q 1033 349 1047 349 l 592 349 q 586 343 586 349 l 586 201 q 647 74 586 119 q 797 28 708 28 q 921 63 868 28 q 996 156 974 97 q 1013 167 1000 168 l 1022 165 q 1031 159 1029 164 q 1032 149 1033 154 q 945 33 1008 76 q 794 -11 882 -11 q 651 23 711 -11 q 568 121 590 57 q 565 124 567 124 q 563 122 564 124 q 467 24 539 58 q 308 -11 396 -11 m 585 392 q 590 386 585 386 l 1000 386 q 1006 392 1006 386 q 1000 504 1006 476 q 931 622 988 576 q 794 668 875 668 q 658 623 714 668 q 592 504 603 578 q 585 392 588 481 m 308 26 q 473 71 403 26 q 543 201 543 115 l 543 343 q 538 349 543 349 l 364 349 q 188 306 254 349 q 122 181 122 263 q 174 65 122 104 q 308 26 226 26 z "},"b":{"ha":742,"x_min":133,"x_max":633,"o":"m 624 524 q 632 456 631 493 q 633 346 633 418 q 632 239 633 275 q 624 172 631 203 q 539 39 603 89 q 382 -11 475 -11 q 263 18 314 -11 q 182 99 211 47 q 177 101 179 101 q 175 96 175 100 l 175 14 q 161 0 175 0 l 147 0 q 133 14 133 0 l 133 958 q 147 972 133 972 l 161 972 q 175 958 175 972 l 175 600 q 177 595 175 596 q 182 597 179 594 q 263 678 211 649 q 382 707 314 707 q 540 656 475 707 q 624 524 606 606 m 583 186 q 590 241 588 213 q 592 349 592 269 q 590 458 592 431 q 582 510 588 486 q 513 623 568 578 q 378 668 457 668 q 248 623 300 668 q 183 510 196 578 q 177 455 179 483 q 175 347 175 426 q 177 238 175 267 q 183 186 179 210 q 248 73 197 118 q 378 28 299 28 q 515 72 458 28 q 583 186 572 117 z "},"c":{"ha":708,"x_min":108,"x_max":629,"o":"m 372 -11 q 212 39 278 -11 q 125 172 146 89 q 108 350 108 233 q 125 524 108 457 q 211 657 146 607 q 372 707 276 707 q 535 658 467 707 q 622 538 604 610 q 629 503 628 517 l 629 500 q 617 488 629 490 l 603 486 l 600 486 q 588 499 590 486 l 583 518 q 513 625 571 582 q 372 668 456 668 q 231 623 288 668 q 161 504 175 578 q 150 349 150 446 q 161 192 150 250 q 232 72 176 117 q 372 28 288 28 q 513 70 454 28 q 585 176 572 113 l 585 182 l 586 185 q 590 195 586 192 q 601 197 594 199 l 614 196 q 626 181 628 193 q 625 172 625 178 q 622 158 625 167 q 538 37 607 85 q 372 -11 468 -11 z "},"ć":{"ha":708,"x_min":108,"x_max":629,"o":"m 372 -11 q 212 39 278 -11 q 125 172 146 89 q 108 350 108 233 q 125 524 108 457 q 211 657 146 607 q 372 707 276 707 q 535 658 467 707 q 622 538 604 610 q 629 503 628 517 l 629 500 q 617 488 629 490 l 603 486 l 600 486 q 588 499 590 486 l 583 518 q 513 625 571 582 q 372 668 456 668 q 231 623 288 668 q 161 504 175 578 q 150 349 150 446 q 161 192 150 250 q 232 72 176 117 q 372 28 288 28 q 513 70 454 28 q 585 176 572 113 l 585 182 l 586 185 q 590 195 586 192 q 601 197 594 199 l 614 196 q 626 181 628 193 q 625 172 625 178 q 622 158 625 167 q 538 37 607 85 q 372 -11 468 -11 m 347 790 q 336 795 339 790 q 338 807 333 800 l 424 963 q 440 972 428 972 l 453 972 q 464 967 461 972 q 463 956 467 963 l 372 800 q 356 790 365 790 l 347 790 z "},"č":{"ha":708,"x_min":108,"x_max":629,"o":"m 372 -11 q 212 39 278 -11 q 125 172 146 89 q 108 350 108 233 q 125 524 108 457 q 211 657 146 607 q 372 707 276 707 q 535 658 467 707 q 622 538 604 610 q 629 503 628 517 l 629 500 q 617 488 629 490 l 603 486 l 600 486 q 588 499 590 486 l 583 518 q 513 625 571 582 q 372 668 456 668 q 231 623 288 668 q 161 504 175 578 q 150 349 150 446 q 161 192 150 250 q 232 72 176 117 q 372 28 288 28 q 513 70 454 28 q 585 176 572 113 l 585 182 l 586 185 q 590 195 586 192 q 601 197 594 199 l 614 196 q 626 181 628 193 q 625 172 625 178 q 622 158 625 167 q 538 37 607 85 q 372 -11 468 -11 m 228 956 q 225 964 225 958 q 228 969 225 967 q 236 972 231 972 l 249 972 q 267 964 261 972 l 368 835 q 372 832 369 832 q 376 835 375 832 l 474 964 q 492 972 479 972 l 504 972 q 515 967 513 972 q 513 956 518 963 l 397 807 q 379 799 392 799 l 361 799 q 343 807 349 799 l 228 956 z "},"ç":{"ha":708,"x_min":108,"x_max":629,"o":"m 585 182 l 586 185 q 590 195 586 192 q 601 197 594 199 l 614 196 q 626 181 628 193 q 625 172 625 178 q 622 158 625 167 q 538 37 607 85 q 372 -11 468 -11 l 379 -18 q 456 -150 456 -79 q 422 -234 456 -208 q 340 -260 389 -260 q 299 -256 317 -260 q 289 -239 285 -254 l 289 -237 l 292 -232 q 307 -224 294 -221 q 336 -226 326 -226 q 389 -212 368 -226 q 415 -167 410 -197 q 417 -149 417 -161 q 393 -78 417 -114 q 332 -11 369 -43 q 325 -8 331 -8 q 197 52 249 4 q 125 172 144 100 q 108 350 108 233 q 125 524 108 457 q 211 657 146 607 q 372 707 276 707 q 535 658 467 707 q 622 538 604 610 q 629 503 628 517 l 629 500 q 617 488 629 490 l 603 486 l 600 486 q 588 499 590 486 l 583 518 q 513 625 571 582 q 372 668 456 668 q 231 623 288 668 q 161 504 175 578 q 150 349 150 446 q 161 192 150 250 q 232 72 176 117 q 372 28 288 28 q 513 70 454 28 q 585 176 572 113 l 585 182 z "},"ĉ":{"ha":708,"x_min":108,"x_max":629,"o":"m 372 -11 q 212 39 278 -11 q 125 172 146 89 q 108 350 108 233 q 125 524 108 457 q 211 657 146 607 q 372 707 276 707 q 535 658 467 707 q 622 538 604 610 q 629 503 628 517 l 629 500 q 617 488 629 490 l 603 486 l 600 486 q 588 499 590 486 l 583 518 q 513 625 571 582 q 372 668 456 668 q 231 623 288 668 q 161 504 175 578 q 150 349 150 446 q 161 192 150 250 q 232 72 176 117 q 372 28 288 28 q 513 70 454 28 q 585 176 572 113 l 585 182 l 586 185 q 590 195 586 192 q 601 197 594 199 l 614 196 q 626 181 628 193 q 625 172 625 178 q 622 158 625 167 q 538 37 607 85 q 372 -11 468 -11 m 236 799 q 225 804 228 799 q 228 815 222 810 l 343 964 q 361 972 350 972 l 379 972 q 397 964 392 972 l 513 815 q 515 807 515 813 q 513 801 515 804 q 504 799 510 799 l 492 799 q 474 807 479 799 l 376 936 q 372 939 375 939 q 368 936 369 939 l 267 807 q 249 799 261 799 l 236 799 z "},"ċ":{"ha":708,"x_min":108,"x_max":629,"o":"m 372 -11 q 212 39 278 -11 q 125 172 146 89 q 108 350 108 233 q 125 524 108 457 q 211 657 146 607 q 372 707 276 707 q 535 658 467 707 q 622 538 604 610 q 629 503 628 517 l 629 500 q 617 488 629 490 l 603 486 l 600 486 q 588 499 590 486 l 583 518 q 513 625 571 582 q 372 668 456 668 q 231 623 288 668 q 161 504 175 578 q 150 349 150 446 q 161 192 150 250 q 232 72 176 117 q 372 28 288 28 q 513 70 454 28 q 585 176 572 113 l 585 182 l 586 185 q 590 195 586 192 q 601 197 594 199 l 614 196 q 626 181 628 193 q 625 172 625 178 q 622 158 625 167 q 538 37 607 85 q 372 -11 468 -11 m 371 851 q 328 868 344 851 q 311 911 311 885 q 328 953 311 936 q 371 969 344 969 q 414 953 397 969 q 431 911 431 936 q 414 868 431 885 q 371 851 397 851 z "},"d":{"ha":742,"x_min":108,"x_max":608,"o":"m 567 958 q 581 972 567 972 l 594 972 q 608 958 608 972 l 608 14 q 594 0 608 0 l 581 0 q 567 14 567 0 l 567 94 q 565 99 567 99 q 560 97 563 100 q 479 17 531 46 q 361 -11 428 -11 q 203 39 268 -11 q 119 172 139 89 q 110 239 113 203 q 108 346 108 275 q 110 456 108 418 q 118 524 111 493 q 202 657 138 607 q 361 707 267 707 q 479 678 428 707 q 560 597 531 649 q 565 595 563 594 q 567 600 567 596 l 567 958 m 558 186 q 565 238 563 210 q 567 347 567 267 q 565 455 567 426 q 558 510 563 483 q 494 623 546 578 q 364 668 443 668 q 229 623 285 668 q 160 510 174 578 q 152 455 154 483 q 150 349 150 426 q 152 240 150 268 q 160 186 154 211 q 228 72 171 117 q 364 28 285 28 q 494 73 443 28 q 558 186 544 118 z "},"ð":{"ha":721,"x_min":108,"x_max":613,"o":"m 613 296 q 604 171 613 213 q 519 39 585 89 q 360 -11 453 -11 q 203 39 267 -11 q 119 171 140 89 q 108 308 108 214 l 108 361 q 110 456 108 421 q 119 519 113 492 q 201 651 138 601 q 354 700 264 700 q 460 681 411 700 q 540 626 508 661 q 544 629 547 619 q 428 826 519 724 q 421 828 425 829 l 307 789 l 301 788 q 289 799 293 788 l 288 804 l 286 811 q 296 821 286 818 l 393 853 q 396 857 396 854 q 394 861 396 860 q 286 956 325 926 q 281 964 281 960 q 293 972 281 972 l 313 972 q 329 967 324 972 q 439 872 394 914 q 446 871 442 869 l 540 903 l 546 904 q 558 893 554 904 l 560 888 q 561 881 561 885 q 551 871 561 875 l 474 846 q 471 838 468 843 q 610 485 596 694 q 613 346 613 446 l 613 296 m 565 190 q 569 281 569 210 l 569 346 l 569 414 q 565 501 569 482 q 496 619 551 574 q 360 664 440 664 q 225 619 279 664 q 157 501 171 574 q 151 438 153 481 q 150 346 150 396 q 151 251 150 293 q 157 190 153 210 q 225 72 171 117 q 360 26 279 26 q 496 72 440 26 q 565 190 551 117 z "},"ď":{"ha":742,"x_min":108,"x_max":822,"o":"m 567 958 q 581 972 567 972 l 594 972 q 608 958 608 972 l 608 14 q 594 0 608 0 l 581 0 q 567 14 567 0 l 567 94 q 565 99 567 99 q 560 97 563 100 q 479 17 531 46 q 361 -11 428 -11 q 203 39 268 -11 q 119 172 139 89 q 110 239 113 203 q 108 346 108 275 q 110 456 108 418 q 118 524 111 493 q 202 657 138 607 q 361 707 267 707 q 479 678 428 707 q 560 597 531 649 q 565 595 563 594 q 567 600 567 596 l 567 958 m 558 186 q 565 238 563 210 q 567 347 567 267 q 565 455 567 426 q 558 510 563 483 q 494 623 546 578 q 364 668 443 668 q 229 623 285 668 q 160 510 174 578 q 152 455 154 483 q 150 349 150 426 q 152 240 150 268 q 160 186 154 211 q 228 72 171 117 q 364 28 285 28 q 494 73 443 28 q 558 186 544 118 z "},"đ":{"ha":742,"x_min":108,"x_max":729,"o":"m 715 843 q 729 829 729 843 l 729 821 q 715 807 729 807 l 614 807 q 608 801 608 807 l 608 14 q 594 0 608 0 l 581 0 q 567 14 567 0 l 567 94 q 565 99 567 99 q 560 97 563 100 q 479 17 531 46 q 361 -11 428 -11 q 203 39 268 -11 q 119 172 139 89 q 110 239 113 203 q 108 346 108 275 q 110 456 108 418 q 118 524 111 493 q 202 657 138 607 q 361 707 267 707 q 479 678 428 707 q 560 597 531 649 q 565 595 563 594 q 567 600 567 596 l 567 801 q 561 807 567 807 l 332 807 q 318 821 318 807 l 318 829 q 332 843 318 843 l 561 843 q 567 849 567 843 l 567 958 q 581 972 567 972 l 594 972 q 608 958 608 972 l 608 849 q 614 843 608 843 l 715 843 m 558 186 q 565 238 563 210 q 567 347 567 267 q 565 455 567 426 q 558 510 563 483 q 494 623 546 578 q 364 668 443 668 q 229 623 285 668 q 160 510 174 578 q 152 455 154 483 q 150 349 150 426 q 152 240 150 268 q 160 186 154 211 q 228 72 171 117 q 364 28 285 28 q 494 73 443 28 q 558 186 544 118 z "},"e":{"ha":731,"x_min":108,"x_max":626,"o":"m 368 28 q 496 62 442 28 q 574 154 550 96 q 590 164 578 167 l 601 161 q 611 144 615 157 q 520 31 585 74 q 367 -11 456 -11 q 208 38 272 -11 q 121 169 143 88 q 110 240 113 201 q 108 350 108 278 q 110 453 108 415 q 119 522 113 492 q 205 656 139 606 q 367 707 271 707 q 534 655 467 707 q 618 515 601 603 q 625 453 624 489 q 626 354 626 417 q 613 339 626 339 l 156 339 q 150 333 150 339 q 151 247 150 285 q 157 192 153 208 q 227 73 171 118 q 368 28 283 28 m 367 668 q 227 623 283 668 q 157 506 171 578 q 150 381 150 475 q 156 375 150 375 l 579 375 q 585 381 585 375 q 578 504 585 475 q 506 623 563 578 q 367 668 450 668 z "},"é":{"ha":731,"x_min":108,"x_max":626,"o":"m 368 28 q 496 62 442 28 q 574 154 550 96 q 590 164 578 167 l 601 161 q 611 144 615 157 q 520 31 585 74 q 367 -11 456 -11 q 208 38 272 -11 q 121 169 143 88 q 110 240 113 201 q 108 350 108 278 q 110 453 108 415 q 119 522 113 492 q 205 656 139 606 q 367 707 271 707 q 534 655 467 707 q 618 515 601 603 q 625 453 624 489 q 626 354 626 417 q 613 339 626 339 l 156 339 q 150 333 150 339 q 151 247 150 285 q 157 192 153 208 q 227 73 171 118 q 368 28 283 28 m 367 668 q 227 623 283 668 q 157 506 171 578 q 150 381 150 475 q 156 375 150 375 l 579 375 q 585 381 585 375 q 578 504 585 475 q 506 623 563 578 q 367 668 450 668 m 340 790 q 329 795 332 790 q 331 807 326 800 l 417 963 q 433 972 421 972 l 446 972 q 457 967 454 972 q 456 956 460 963 l 365 800 q 349 790 358 790 l 340 790 z "},"ě":{"ha":731,"x_min":108,"x_max":626,"o":"m 368 28 q 496 62 442 28 q 574 154 550 96 q 590 164 578 167 l 601 161 q 611 144 615 157 q 520 31 585 74 q 367 -11 456 -11 q 208 38 272 -11 q 121 169 143 88 q 110 240 113 201 q 108 350 108 278 q 110 453 108 415 q 119 522 113 492 q 205 656 139 606 q 367 707 271 707 q 534 655 467 707 q 618 515 601 603 q 625 453 624 489 q 626 354 626 417 q 613 339 626 339 l 156 339 q 150 333 150 339 q 151 247 150 285 q 157 192 153 208 q 227 73 171 118 q 368 28 283 28 m 367 668 q 227 623 283 668 q 157 506 171 578 q 150 381 150 475 q 156 375 150 375 l 579 375 q 585 381 585 375 q 578 504 585 475 q 506 623 563 578 q 367 668 450 668 z "},"ȩ":{"ha":731,"x_min":108,"x_max":626,"o":"m 368 28 q 496 62 442 28 q 574 154 550 96 q 590 164 578 167 l 601 161 q 611 144 615 157 q 528 36 588 78 q 388 -11 469 -6 q 383 -13 383 -11 q 386 -17 383 -15 q 463 -150 463 -79 q 429 -234 463 -208 q 346 -260 396 -260 q 304 -256 325 -260 q 294 -239 290 -253 l 296 -233 q 313 -224 300 -221 q 343 -226 335 -226 q 424 -149 424 -226 q 342 -12 424 -83 q 335 -10 340 -10 q 198 47 254 -1 q 121 169 142 96 q 110 240 113 201 q 108 350 108 278 q 110 453 108 415 q 119 522 113 492 q 205 656 139 606 q 367 707 271 707 q 534 655 467 707 q 618 515 601 603 q 625 453 624 489 q 626 354 626 417 q 613 339 626 339 l 156 339 q 150 333 150 339 q 151 247 150 285 q 157 192 153 208 q 227 73 171 118 q 368 28 283 28 m 367 668 q 227 623 283 668 q 157 506 171 578 q 150 381 150 475 q 156 375 150 375 l 579 375 q 585 381 585 375 q 578 504 585 475 q 506 623 563 578 q 367 668 450 668 z "},"ê":{"ha":731,"x_min":108,"x_max":626,"o":"m 368 28 q 496 62 442 28 q 574 154 550 96 q 590 164 578 167 l 601 161 q 611 144 615 157 q 520 31 585 74 q 367 -11 456 -11 q 208 38 272 -11 q 121 169 143 88 q 110 240 113 201 q 108 350 108 278 q 110 453 108 415 q 119 522 113 492 q 205 656 139 606 q 367 707 271 707 q 534 655 467 707 q 618 515 601 603 q 625 453 624 489 q 626 354 626 417 q 613 339 626 339 l 156 339 q 150 333 150 339 q 151 247 150 285 q 157 192 153 208 q 227 73 171 118 q 368 28 283 28 m 367 668 q 227 623 283 668 q 157 506 171 578 q 150 381 150 475 q 156 375 150 375 l 579 375 q 585 381 585 375 q 578 504 585 475 q 506 623 563 578 q 367 668 450 668 m 229 799 q 218 804 221 799 q 221 815 215 810 l 336 964 q 354 972 343 972 l 372 972 q 390 964 385 972 l 506 815 q 508 807 508 813 q 506 801 508 804 q 497 799 503 799 l 485 799 q 467 807 472 799 l 369 936 q 365 939 368 939 q 361 936 363 939 l 260 807 q 242 799 254 799 l 229 799 z "},"ế":{"ha":731,"x_min":108,"x_max":649,"o":"m 368 28 q 496 62 442 28 q 574 154 550 96 q 590 164 578 167 l 601 161 q 611 144 615 157 q 520 31 585 74 q 367 -11 456 -11 q 208 38 272 -11 q 121 169 143 88 q 110 240 113 201 q 108 350 108 278 q 110 453 108 415 q 119 522 113 492 q 205 656 139 606 q 367 707 271 707 q 534 655 467 707 q 618 515 601 603 q 625 453 624 489 q 626 354 626 417 q 613 339 626 339 l 156 339 q 150 333 150 339 q 151 247 150 285 q 157 192 153 208 q 227 73 171 118 q 368 28 283 28 m 367 668 q 227 623 283 668 q 157 506 171 578 q 150 381 150 475 q 156 375 150 375 l 579 375 q 585 381 585 375 q 578 504 585 475 q 506 623 563 578 q 367 668 450 668 z "},"ệ":{"ha":731,"x_min":108,"x_max":626,"o":"m 368 28 q 496 62 442 28 q 574 154 550 96 q 590 164 578 167 l 601 161 q 611 144 615 157 q 520 31 585 74 q 367 -11 456 -11 q 208 38 272 -11 q 121 169 143 88 q 110 240 113 201 q 108 350 108 278 q 110 453 108 415 q 119 522 113 492 q 205 656 139 606 q 367 707 271 707 q 534 655 467 707 q 618 515 601 603 q 625 453 624 489 q 626 354 626 417 q 613 339 626 339 l 156 339 q 150 333 150 339 q 151 247 150 285 q 157 192 153 208 q 227 73 171 118 q 368 28 283 28 m 367 668 q 227 623 283 668 q 157 506 171 578 q 150 381 150 475 q 156 375 150 375 l 579 375 q 585 381 585 375 q 578 504 585 475 q 506 623 563 578 q 367 668 450 668 m 363 -240 q 323 -224 339 -240 q 307 -185 307 -208 q 323 -144 307 -160 q 363 -128 339 -128 q 402 -144 386 -128 q 418 -185 418 -160 q 402 -224 418 -208 q 363 -240 386 -240 m 229 799 q 218 804 221 799 q 221 815 215 810 l 336 964 q 354 972 343 972 l 372 972 q 390 964 385 972 l 506 815 q 508 807 508 813 q 506 801 508 804 q 497 799 503 799 l 485 799 q 467 807 472 799 l 369 936 q 365 939 368 939 q 361 936 363 939 l 260 807 q 242 799 254 799 l 229 799 z "},"ề":{"ha":731,"x_min":108,"x_max":626,"o":"m 368 28 q 496 62 442 28 q 574 154 550 96 q 590 164 578 167 l 601 161 q 611 144 615 157 q 520 31 585 74 q 367 -11 456 -11 q 208 38 272 -11 q 121 169 143 88 q 110 240 113 201 q 108 350 108 278 q 110 453 108 415 q 119 522 113 492 q 205 656 139 606 q 367 707 271 707 q 534 655 467 707 q 618 515 601 603 q 625 453 624 489 q 626 354 626 417 q 613 339 626 339 l 156 339 q 150 333 150 339 q 151 247 150 285 q 157 192 153 208 q 227 73 171 118 q 368 28 283 28 m 367 668 q 227 623 283 668 q 157 506 171 578 q 150 381 150 475 q 156 375 150 375 l 579 375 q 585 381 585 375 q 578 504 585 475 q 506 623 563 578 q 367 668 450 668 z "},"ể":{"ha":731,"x_min":108,"x_max":626,"o":"m 368 28 q 496 62 442 28 q 574 154 550 96 q 590 164 578 167 l 601 161 q 611 144 615 157 q 520 31 585 74 q 367 -11 456 -11 q 208 38 272 -11 q 121 169 143 88 q 110 240 113 201 q 108 350 108 278 q 110 453 108 415 q 119 522 113 492 q 205 656 139 606 q 367 707 271 707 q 534 655 467 707 q 618 515 601 603 q 625 453 624 489 q 626 354 626 417 q 613 339 626 339 l 156 339 q 150 333 150 339 q 151 247 150 285 q 157 192 153 208 q 227 73 171 118 q 368 28 283 28 m 367 668 q 227 623 283 668 q 157 506 171 578 q 150 381 150 475 q 156 375 150 375 l 579 375 q 585 381 585 375 q 578 504 585 475 q 506 623 563 578 q 367 668 450 668 z "},"ễ":{"ha":731,"x_min":108,"x_max":626,"o":"m 368 28 q 496 62 442 28 q 574 154 550 96 q 590 164 578 167 l 601 161 q 611 144 615 157 q 520 31 585 74 q 367 -11 456 -11 q 208 38 272 -11 q 121 169 143 88 q 110 240 113 201 q 108 350 108 278 q 110 453 108 415 q 119 522 113 492 q 205 656 139 606 q 367 707 271 707 q 534 655 467 707 q 618 515 601 603 q 625 453 624 489 q 626 354 626 417 q 613 339 626 339 l 156 339 q 150 333 150 339 q 151 247 150 285 q 157 192 153 208 q 227 73 171 118 q 368 28 283 28 m 367 668 q 227 623 283 668 q 157 506 171 578 q 150 381 150 475 q 156 375 150 375 l 579 375 q 585 381 585 375 q 578 504 585 475 q 506 623 563 578 q 367 668 450 668 z "},"ë":{"ha":731,"x_min":108,"x_max":626,"o":"m 368 28 q 496 62 442 28 q 574 154 550 96 q 590 164 578 167 l 601 161 q 611 144 615 157 q 520 31 585 74 q 367 -11 456 -11 q 208 38 272 -11 q 121 169 143 88 q 110 240 113 201 q 108 350 108 278 q 110 453 108 415 q 119 522 113 492 q 205 656 139 606 q 367 707 271 707 q 534 655 467 707 q 618 515 601 603 q 625 453 624 489 q 626 354 626 417 q 613 339 626 339 l 156 339 q 150 333 150 339 q 151 247 150 285 q 157 192 153 208 q 227 73 171 118 q 368 28 283 28 m 367 668 q 227 623 283 668 q 157 506 171 578 q 150 381 150 475 q 156 375 150 375 l 579 375 q 585 381 585 375 q 578 504 585 475 q 506 623 563 578 q 367 668 450 668 z "},"ė":{"ha":731,"x_min":108,"x_max":626,"o":"m 368 28 q 496 62 442 28 q 574 154 550 96 q 590 164 578 167 l 601 161 q 611 144 615 157 q 520 31 585 74 q 367 -11 456 -11 q 208 38 272 -11 q 121 169 143 88 q 110 240 113 201 q 108 350 108 278 q 110 453 108 415 q 119 522 113 492 q 205 656 139 606 q 367 707 271 707 q 534 655 467 707 q 618 515 601 603 q 625 453 624 489 q 626 354 626 417 q 613 339 626 339 l 156 339 q 150 333 150 339 q 151 247 150 285 q 157 192 153 208 q 227 73 171 118 q 368 28 283 28 m 367 668 q 227 623 283 668 q 157 506 171 578 q 150 381 150 475 q 156 375 150 375 l 579 375 q 585 381 585 375 q 578 504 585 475 q 506 623 563 578 q 367 668 450 668 m 364 851 q 321 868 338 851 q 304 911 304 885 q 321 953 304 936 q 364 969 338 969 q 407 953 390 969 q 424 911 424 936 q 407 868 424 885 q 364 851 390 851 z "},"ẹ":{"ha":731,"x_min":108,"x_max":626,"o":"m 368 28 q 496 62 442 28 q 574 154 550 96 q 590 164 578 167 l 601 161 q 611 144 615 157 q 520 31 585 74 q 367 -11 456 -11 q 208 38 272 -11 q 121 169 143 88 q 110 240 113 201 q 108 350 108 278 q 110 453 108 415 q 119 522 113 492 q 205 656 139 606 q 367 707 271 707 q 534 655 467 707 q 618 515 601 603 q 625 453 624 489 q 626 354 626 417 q 613 339 626 339 l 156 339 q 150 333 150 339 q 151 247 150 285 q 157 192 153 208 q 227 73 171 118 q 368 28 283 28 m 367 668 q 227 623 283 668 q 157 506 171 578 q 150 381 150 475 q 156 375 150 375 l 579 375 q 585 381 585 375 q 578 504 585 475 q 506 623 563 578 q 367 668 450 668 m 363 -240 q 323 -224 339 -240 q 307 -185 307 -208 q 323 -144 307 -160 q 363 -128 339 -128 q 402 -144 386 -128 q 418 -185 418 -160 q 402 -224 418 -208 q 363 -240 386 -240 z "},"è":{"ha":731,"x_min":108,"x_max":626,"o":"m 368 28 q 496 62 442 28 q 574 154 550 96 q 590 164 578 167 l 601 161 q 611 144 615 157 q 520 31 585 74 q 367 -11 456 -11 q 208 38 272 -11 q 121 169 143 88 q 110 240 113 201 q 108 350 108 278 q 110 453 108 415 q 119 522 113 492 q 205 656 139 606 q 367 707 271 707 q 534 655 467 707 q 618 515 601 603 q 625 453 624 489 q 626 354 626 417 q 613 339 626 339 l 156 339 q 150 333 150 339 q 151 247 150 285 q 157 192 153 208 q 227 73 171 118 q 368 28 283 28 m 367 668 q 227 623 283 668 q 157 506 171 578 q 150 381 150 475 q 156 375 150 375 l 579 375 q 585 381 585 375 q 578 504 585 475 q 506 623 563 578 q 367 668 450 668 m 381 807 q 383 799 383 801 q 372 790 383 790 l 364 790 q 347 800 354 790 l 257 956 q 254 964 254 961 q 267 972 254 972 l 279 972 q 296 963 292 972 l 381 807 z "},"ẻ":{"ha":731,"x_min":108,"x_max":626,"o":"m 368 28 q 496 62 442 28 q 574 154 550 96 q 590 164 578 167 l 601 161 q 611 144 615 157 q 520 31 585 74 q 367 -11 456 -11 q 208 38 272 -11 q 121 169 143 88 q 110 240 113 201 q 108 350 108 278 q 110 453 108 415 q 119 522 113 492 q 205 656 139 606 q 367 707 271 707 q 534 655 467 707 q 618 515 601 603 q 625 453 624 489 q 626 354 626 417 q 613 339 626 339 l 156 339 q 150 333 150 339 q 151 247 150 285 q 157 192 153 208 q 227 73 171 118 q 368 28 283 28 m 367 668 q 227 623 283 668 q 157 506 171 578 q 150 381 150 475 q 156 375 150 375 l 579 375 q 585 381 585 375 q 578 504 585 475 q 506 623 563 578 q 367 668 450 668 m 361 764 q 352 772 354 767 q 353 782 350 776 q 400 844 367 814 q 430 878 421 864 q 439 914 439 892 q 419 955 439 938 q 369 972 399 972 q 324 961 340 972 q 289 921 308 950 q 269 917 281 908 l 265 919 q 261 939 256 926 q 307 990 285 975 q 371 1006 329 1006 q 444 979 415 1006 q 474 914 474 953 q 460 863 474 883 q 419 815 447 843 q 383 774 393 792 l 381 768 q 365 763 375 758 l 361 764 z "},"ē":{"ha":731,"x_min":108,"x_max":626,"o":"m 368 28 q 496 62 442 28 q 574 154 550 96 q 590 164 578 167 l 601 161 q 611 144 615 157 q 520 31 585 74 q 367 -11 456 -11 q 208 38 272 -11 q 121 169 143 88 q 110 240 113 201 q 108 350 108 278 q 110 453 108 415 q 119 522 113 492 q 205 656 139 606 q 367 707 271 707 q 534 655 467 707 q 618 515 601 603 q 625 453 624 489 q 626 354 626 417 q 613 339 626 339 l 156 339 q 150 333 150 339 q 151 247 150 285 q 157 192 153 208 q 227 73 171 118 q 368 28 283 28 m 367 668 q 227 623 283 668 q 157 506 171 578 q 150 381 150 475 q 156 375 150 375 l 579 375 q 585 381 585 375 q 578 504 585 475 q 506 623 563 578 q 367 668 450 668 m 203 885 q 189 899 189 885 l 189 907 q 203 921 189 921 l 528 921 q 542 907 542 921 l 542 899 q 528 885 542 885 l 203 885 z "},"ę":{"ha":731,"x_min":108,"x_max":626,"o":"m 368 28 q 496 62 442 28 q 574 154 550 96 q 590 164 578 167 l 601 161 q 611 144 615 157 q 527 36 586 78 q 388 -11 468 -6 q 381 -14 383 -11 q 301 -147 301 -82 q 303 -167 301 -160 q 381 -225 313 -225 q 411 -222 389 -225 l 417 -222 q 428 -232 425 -222 l 429 -237 l 431 -243 q 419 -254 431 -251 q 378 -258 399 -258 q 296 -232 329 -258 q 263 -149 263 -206 q 338 -17 263 -78 q 336 -10 344 -12 q 197 47 254 -1 q 121 169 140 94 q 110 240 113 201 q 108 350 108 278 q 110 453 108 415 q 119 522 113 492 q 205 656 139 606 q 367 707 271 707 q 534 655 467 707 q 618 515 601 603 q 625 453 624 489 q 626 354 626 417 q 613 339 626 339 l 156 339 q 150 333 150 339 q 151 247 150 285 q 157 192 153 208 q 227 73 171 118 q 368 28 283 28 m 367 668 q 227 623 283 668 q 157 506 171 578 q 150 381 150 475 q 156 375 150 375 l 579 375 q 585 381 585 375 q 578 504 585 475 q 506 623 563 578 q 367 668 450 668 z "},"ẽ":{"ha":731,"x_min":108,"x_max":626,"o":"m 368 28 q 496 62 442 28 q 574 154 550 96 q 590 164 578 167 l 601 161 q 611 144 615 157 q 520 31 585 74 q 367 -11 456 -11 q 208 38 272 -11 q 121 169 143 88 q 110 240 113 201 q 108 350 108 278 q 110 453 108 415 q 119 522 113 492 q 205 656 139 606 q 367 707 271 707 q 534 655 467 707 q 618 515 601 603 q 625 453 624 489 q 626 354 626 417 q 613 339 626 339 l 156 339 q 150 333 150 339 q 151 247 150 285 q 157 192 153 208 q 227 73 171 118 q 368 28 283 28 m 367 668 q 227 623 283 668 q 157 506 171 578 q 150 381 150 475 q 156 375 150 375 l 579 375 q 585 381 585 375 q 578 504 585 475 q 506 623 563 578 q 367 668 450 668 m 451 863 q 369 894 413 863 q 333 918 347 911 q 301 925 319 925 q 260 917 276 925 q 225 885 243 908 q 217 879 222 881 q 208 881 213 878 l 203 883 l 200 885 q 197 904 189 893 q 300 963 239 963 q 339 955 322 963 q 383 931 356 947 q 402 918 388 928 q 429 903 417 908 q 453 899 442 899 q 528 940 496 899 l 531 946 q 538 951 533 950 q 547 949 543 951 l 553 944 q 558 933 558 940 q 553 919 558 926 q 506 876 533 890 q 451 863 478 863 z "},"ə":{"ha":731,"x_min":104,"x_max":622,"o":"m 610 526 q 620 456 618 494 q 622 346 622 418 q 621 240 622 275 q 613 174 619 204 q 526 40 592 90 q 365 -11 461 -11 q 197 41 264 -11 q 113 181 131 93 q 106 243 107 207 q 104 342 104 279 q 118 357 104 357 l 575 357 q 581 363 581 357 q 575 504 581 479 q 504 623 561 578 q 363 668 447 668 q 235 634 289 668 q 158 542 182 600 q 142 532 154 529 l 129 535 q 120 541 122 536 q 119 551 118 546 q 210 665 146 622 q 364 707 275 707 q 524 658 458 707 q 610 526 589 608 m 365 28 q 504 73 449 28 q 574 190 560 118 q 581 315 581 222 q 575 321 581 321 l 151 321 q 146 315 146 321 q 153 192 146 221 q 224 73 168 118 q 365 28 281 28 z "},"ʒ":{"ha":776,"x_min":103,"x_max":671,"o":"m 225 360 q 223 355 222 357 q 228 354 224 353 q 329 363 282 363 q 517 320 440 363 q 633 206 594 278 q 671 43 671 133 q 572 -187 671 -107 q 313 -268 472 -268 q 115 -239 218 -268 q 104 -222 103 -235 l 106 -214 q 122 -203 108 -199 q 310 -229 215 -229 q 542 -162 453 -229 q 631 42 631 -94 q 599 183 631 118 q 496 288 567 247 q 315 328 425 328 q 150 307 244 328 l 146 307 q 135 315 138 307 q 133 321 133 317 l 132 322 l 132 328 q 139 340 132 335 l 532 650 q 533 655 535 653 q 529 657 532 657 l 124 657 q 110 671 110 657 l 110 682 q 124 696 110 696 l 586 696 q 600 682 600 696 l 600 668 q 592 650 600 658 l 225 360 z "},"ǯ":{"ha":776,"x_min":103,"x_max":671,"o":"m 225 360 q 223 355 222 357 q 228 354 224 353 q 329 363 282 363 q 517 320 440 363 q 633 206 594 278 q 671 43 671 133 q 572 -187 671 -107 q 313 -268 472 -268 q 115 -239 218 -268 q 104 -222 103 -235 l 106 -214 q 122 -203 108 -199 q 310 -229 215 -229 q 542 -162 453 -229 q 631 42 631 -94 q 599 183 631 118 q 496 288 567 247 q 315 328 425 328 q 150 307 244 328 l 146 307 q 135 315 138 307 q 133 321 133 317 l 132 322 l 132 328 q 139 340 132 335 l 532 650 q 533 655 535 653 q 529 657 532 657 l 124 657 q 110 671 110 657 l 110 682 q 124 696 110 696 l 586 696 q 600 682 600 696 l 600 668 q 592 650 600 658 l 225 360 z "},"f":{"ha":469,"x_min":54,"x_max":403,"o":"m 358 933 q 236 889 268 933 q 204 747 204 844 l 204 701 q 210 696 204 696 l 382 696 q 396 682 396 696 l 396 671 q 382 657 396 657 l 210 657 q 204 651 204 657 l 204 14 q 190 0 204 0 l 178 0 q 164 14 164 0 l 164 651 q 158 657 164 657 l 68 657 q 54 671 54 657 l 54 682 q 68 696 54 696 l 158 696 q 164 701 164 696 l 164 749 q 206 917 164 863 q 357 972 247 972 l 389 972 q 403 958 403 972 l 403 947 q 389 933 403 933 l 358 933 z "},"g":{"ha":726,"x_min":103,"x_max":608,"o":"m 567 682 q 581 696 567 696 l 594 696 q 608 682 608 696 l 608 4 q 525 -210 608 -139 q 276 -278 442 -282 q 263 -264 263 -278 l 263 -251 q 278 -237 263 -237 q 497 -179 426 -240 q 567 4 567 -118 l 567 97 q 565 102 567 101 q 560 100 563 103 q 478 19 529 49 q 360 -10 428 -10 q 203 40 268 -10 q 118 172 139 89 q 103 346 103 228 q 118 525 103 469 q 203 656 139 606 q 358 707 267 707 q 478 678 426 707 q 560 599 531 650 q 565 597 563 596 q 567 601 567 597 l 567 682 m 561 192 q 565 246 564 214 q 567 347 567 278 q 565 449 567 417 q 561 504 564 481 q 497 622 550 575 q 364 668 444 668 q 230 622 285 668 q 157 504 175 576 q 144 350 144 454 q 157 192 144 236 q 228 74 172 121 q 364 28 283 28 q 498 75 446 28 q 561 192 550 122 z "},"ğ":{"ha":726,"x_min":103,"x_max":608,"o":"m 567 682 q 581 696 567 696 l 594 696 q 608 682 608 696 l 608 4 q 525 -210 608 -139 q 276 -278 442 -282 q 263 -264 263 -278 l 263 -251 q 278 -237 263 -237 q 497 -179 426 -240 q 567 4 567 -118 l 567 97 q 565 102 567 101 q 560 100 563 103 q 478 19 529 49 q 360 -10 428 -10 q 203 40 268 -10 q 118 172 139 89 q 103 346 103 228 q 118 525 103 469 q 203 656 139 606 q 358 707 267 707 q 478 678 426 707 q 560 599 531 650 q 565 597 563 596 q 567 601 567 597 l 567 682 m 561 192 q 565 246 564 214 q 567 347 567 278 q 565 449 567 417 q 561 504 564 481 q 497 622 550 575 q 364 668 444 668 q 230 622 285 668 q 157 504 175 576 q 144 350 144 454 q 157 192 144 236 q 228 74 172 121 q 364 28 283 28 q 498 75 446 28 q 561 192 550 122 m 372 783 q 276 819 317 783 q 231 907 236 854 l 231 910 q 243 921 231 921 l 251 921 q 267 907 265 921 q 302 842 272 868 q 372 817 332 817 q 442 842 413 817 q 476 907 472 868 q 492 921 478 921 l 501 921 q 512 917 508 921 q 514 907 515 913 q 468 819 508 854 q 372 783 428 783 z "},"ǧ":{"ha":726,"x_min":103,"x_max":608,"o":"m 567 682 q 581 696 567 696 l 594 696 q 608 682 608 696 l 608 4 q 525 -210 608 -139 q 276 -278 442 -282 q 263 -264 263 -278 l 263 -251 q 278 -237 263 -237 q 497 -179 426 -240 q 567 4 567 -118 l 567 97 q 565 102 567 101 q 560 100 563 103 q 478 19 529 49 q 360 -10 428 -10 q 203 40 268 -10 q 118 172 139 89 q 103 346 103 228 q 118 525 103 469 q 203 656 139 606 q 358 707 267 707 q 478 678 426 707 q 560 599 531 650 q 565 597 563 596 q 567 601 567 597 l 567 682 m 561 192 q 565 246 564 214 q 567 347 567 278 q 565 449 567 417 q 561 504 564 481 q 497 622 550 575 q 364 668 444 668 q 230 622 285 668 q 157 504 175 576 q 144 350 144 454 q 157 192 144 236 q 228 74 172 121 q 364 28 283 28 q 498 75 446 28 q 561 192 550 122 z "},"ĝ":{"ha":726,"x_min":103,"x_max":608,"o":"m 567 682 q 581 696 567 696 l 594 696 q 608 682 608 696 l 608 4 q 525 -210 608 -139 q 276 -278 442 -282 q 263 -264 263 -278 l 263 -251 q 278 -237 263 -237 q 497 -179 426 -240 q 567 4 567 -118 l 567 97 q 565 102 567 101 q 560 100 563 103 q 478 19 529 49 q 360 -10 428 -10 q 203 40 268 -10 q 118 172 139 89 q 103 346 103 228 q 118 525 103 469 q 203 656 139 606 q 358 707 267 707 q 478 678 426 707 q 560 599 531 650 q 565 597 563 596 q 567 601 567 597 l 567 682 m 561 192 q 565 246 564 214 q 567 347 567 278 q 565 449 567 417 q 561 504 564 481 q 497 622 550 575 q 364 668 444 668 q 230 622 285 668 q 157 504 175 576 q 144 350 144 454 q 157 192 144 236 q 228 74 172 121 q 364 28 283 28 q 498 75 446 28 q 561 192 550 122 m 236 799 q 225 804 228 799 q 228 815 222 810 l 343 964 q 361 972 350 972 l 379 972 q 397 964 392 972 l 513 815 q 515 807 515 813 q 513 801 515 804 q 504 799 510 799 l 492 799 q 474 807 479 799 l 376 936 q 372 939 375 939 q 368 936 369 939 l 267 807 q 249 799 261 799 l 236 799 z "},"ġ":{"ha":726,"x_min":103,"x_max":608,"o":"m 567 682 q 581 696 567 696 l 594 696 q 608 682 608 696 l 608 4 q 525 -210 608 -139 q 276 -278 442 -282 q 263 -264 263 -278 l 263 -251 q 278 -237 263 -237 q 497 -179 426 -240 q 567 4 567 -118 l 567 97 q 565 102 567 101 q 560 100 563 103 q 478 19 529 49 q 360 -10 428 -10 q 203 40 268 -10 q 118 172 139 89 q 103 346 103 228 q 118 525 103 469 q 203 656 139 606 q 358 707 267 707 q 478 678 426 707 q 560 599 531 650 q 565 597 563 596 q 567 601 567 597 l 567 682 m 561 192 q 565 246 564 214 q 567 347 567 278 q 565 449 567 417 q 561 504 564 481 q 497 622 550 575 q 364 668 444 668 q 230 622 285 668 q 157 504 175 576 q 144 350 144 454 q 157 192 144 236 q 228 74 172 121 q 364 28 283 28 q 498 75 446 28 q 561 192 550 122 m 371 851 q 328 868 344 851 q 311 911 311 885 q 328 953 311 936 q 371 969 344 969 q 414 953 397 969 q 431 911 431 936 q 414 868 431 885 q 371 851 397 851 z "},"ǥ":{"ha":760,"x_min":103,"x_max":761,"o":"m 747 371 q 761 357 761 371 l 761 349 q 747 335 761 335 l 614 335 q 608 329 608 335 l 608 4 q 525 -210 608 -139 q 276 -278 442 -282 q 263 -264 263 -278 l 263 -251 q 278 -237 263 -237 q 497 -179 426 -240 q 567 4 567 -118 l 567 97 q 565 102 567 101 q 560 100 563 103 q 478 19 529 49 q 360 -10 428 -10 q 203 40 268 -10 q 118 172 139 89 q 103 346 103 228 q 118 525 103 469 q 203 656 139 606 q 358 707 267 707 q 478 678 426 707 q 560 599 531 650 q 565 597 563 596 q 567 601 567 597 l 567 682 q 581 696 567 696 l 594 696 q 608 682 608 696 l 608 376 q 614 371 608 371 l 747 371 m 364 28 q 498 75 446 28 q 561 192 550 122 q 565 241 564 213 q 567 329 567 269 q 561 335 567 335 l 365 335 q 351 349 351 335 l 351 357 q 365 371 351 371 l 561 371 q 567 376 567 371 q 565 456 567 431 q 561 504 564 482 q 497 622 550 575 q 364 668 444 668 q 230 622 285 668 q 157 504 175 576 q 144 350 144 454 q 157 192 144 236 q 228 74 172 121 q 364 28 283 28 z "},"h":{"ha":743,"x_min":133,"x_max":621,"o":"m 388 706 q 556 641 490 706 q 621 472 621 576 l 621 14 q 607 0 621 0 l 593 0 q 579 14 579 0 l 579 465 q 524 610 579 554 q 382 667 468 667 q 232 612 289 667 q 175 468 175 557 l 175 14 q 161 0 175 0 l 147 0 q 133 14 133 0 l 133 958 q 147 972 133 972 l 161 972 q 175 958 175 972 l 175 604 q 177 599 175 600 q 181 601 179 599 q 264 678 211 651 q 388 706 317 706 z "},"ħ":{"ha":743,"x_min":26,"x_max":621,"o":"m 388 706 q 556 641 490 706 q 621 472 621 576 l 621 14 q 607 0 621 0 l 593 0 q 579 14 579 0 l 579 465 q 524 610 579 554 q 382 667 468 667 q 232 612 289 667 q 175 468 175 557 l 175 14 q 161 0 175 0 l 147 0 q 133 14 133 0 l 133 776 q 128 782 133 782 l 40 782 q 26 796 26 782 l 26 803 q 40 817 26 817 l 128 817 q 133 822 133 817 l 133 958 q 147 972 133 972 l 161 972 q 175 958 175 972 l 175 822 q 181 817 175 817 l 424 817 q 438 803 438 817 l 438 796 q 424 782 438 782 l 181 782 q 175 776 175 782 l 175 604 q 177 599 175 600 q 181 601 179 599 q 264 678 211 651 q 388 706 317 706 z "},"ȟ":{"ha":743,"x_min":133,"x_max":621,"o":"m 388 706 q 556 641 490 706 q 621 472 621 576 l 621 14 q 607 0 621 0 l 593 0 q 579 14 579 0 l 579 465 q 524 610 579 554 q 382 667 468 667 q 232 612 289 667 q 175 468 175 557 l 175 14 q 161 0 175 0 l 147 0 q 133 14 133 0 l 133 958 q 147 972 133 972 l 161 972 q 175 958 175 972 l 175 604 q 177 599 175 600 q 181 601 179 599 q 264 678 211 651 q 388 706 317 706 z "},"ĥ":{"ha":743,"x_min":133,"x_max":621,"o":"m 388 706 q 556 641 490 706 q 621 472 621 576 l 621 14 q 607 0 621 0 l 593 0 q 579 14 579 0 l 579 465 q 524 610 579 554 q 382 667 468 667 q 232 612 289 667 q 175 468 175 557 l 175 14 q 161 0 175 0 l 147 0 q 133 14 133 0 l 133 958 q 147 972 133 972 l 161 972 q 175 958 175 972 l 175 604 q 177 599 175 600 q 181 601 179 599 q 264 678 211 651 q 388 706 317 706 m 247 1043 q 236 1049 239 1043 q 239 1060 233 1054 l 354 1208 q 372 1217 361 1217 l 390 1217 q 408 1208 403 1217 l 524 1060 q 526 1051 526 1057 q 524 1046 526 1049 q 515 1043 521 1043 l 503 1043 q 485 1051 490 1043 l 388 1181 q 383 1183 386 1183 q 379 1181 381 1183 l 278 1051 q 260 1043 272 1043 l 247 1043 z "},"i":{"ha":356,"x_min":118,"x_max":238,"o":"m 178 851 q 135 868 151 851 q 118 911 118 885 q 135 953 118 936 q 178 969 151 969 q 221 953 204 969 q 238 911 238 936 q 220 868 238 885 q 178 851 203 851 m 167 1 q 153 15 153 1 l 153 683 q 167 697 153 697 l 181 697 q 194 683 194 697 l 194 15 q 181 1 194 1 l 167 1 z "},"ı":{"ha":274,"x_min":115,"x_max":157,"o":"m 129 0 q 115 14 115 0 l 115 682 q 129 696 115 696 l 143 696 q 157 682 157 696 l 157 14 q 143 0 157 0 l 129 0 z "},"í":{"ha":274,"x_min":99,"x_max":232,"o":"m 129 0 q 115 14 115 0 l 115 682 q 129 696 115 696 l 143 696 q 157 682 157 696 l 157 14 q 143 0 157 0 l 129 0 m 113 790 q 101 795 104 790 q 103 807 99 800 l 189 963 q 206 972 193 972 l 218 972 q 229 967 226 972 q 228 956 232 963 l 138 800 q 121 790 131 790 l 113 790 z "},"ĭ":{"ha":274,"x_min":-6,"x_max":279,"o":"m 129 0 q 115 14 115 0 l 115 682 q 129 696 115 696 l 143 696 q 157 682 157 696 l 157 14 q 143 0 157 0 l 129 0 m 136 821 q 40 856 81 821 q -6 944 0 892 l -6 947 q 7 958 -6 958 l 15 958 q 31 944 29 958 q 66 880 36 906 q 136 854 96 854 q 208 880 178 854 q 242 944 238 906 q 257 958 243 958 l 265 958 q 279 944 279 958 q 233 856 274 892 q 136 821 192 821 z "},"î":{"ha":274,"x_min":-12,"x_max":281,"o":"m 129 0 q 115 14 115 0 l 115 682 q 129 696 115 696 l 143 696 q 157 682 157 696 l 157 14 q 143 0 157 0 l 129 0 m 1 799 q -10 804 -7 799 q -7 815 -12 810 l 108 964 q 126 972 115 972 l 144 972 q 163 964 157 972 l 278 815 q 281 807 281 813 q 278 801 281 804 q 269 799 275 799 l 257 799 q 239 807 244 799 l 142 936 q 138 939 140 939 q 133 936 135 939 l 32 807 q 14 799 26 799 l 1 799 z "},"ï":{"ha":274,"x_min":-31,"x_max":304,"o":"m 129 0 q 115 14 115 0 l 115 682 q 129 696 115 696 l 143 696 q 157 682 157 696 l 157 14 q 143 0 157 0 l 129 0 z "},"ị":{"ha":356,"x_min":118,"x_max":238,"o":"m 178 851 q 135 868 151 851 q 118 911 118 885 q 135 953 118 936 q 178 969 151 969 q 221 953 204 969 q 238 911 238 936 q 220 868 238 885 q 178 851 203 851 m 167 1 q 153 15 153 1 l 153 683 q 167 697 153 697 l 181 697 q 194 683 194 697 l 194 15 q 181 1 194 1 l 167 1 m 178 -229 q 138 -213 154 -229 q 122 -174 122 -197 q 138 -133 122 -149 q 178 -117 154 -117 q 217 -133 201 -117 q 233 -174 233 -149 q 217 -213 233 -197 q 178 -229 201 -229 z "},"ì":{"ha":274,"x_min":25,"x_max":157,"o":"m 129 0 q 115 14 115 0 l 115 682 q 129 696 115 696 l 143 696 q 157 682 157 696 l 157 14 q 143 0 157 0 l 129 0 m 151 807 q 154 799 154 801 q 143 790 154 790 l 135 790 q 118 800 125 790 l 28 956 q 25 964 25 961 q 38 972 25 972 l 50 972 q 67 963 63 972 l 151 807 z "},"ỉ":{"ha":274,"x_min":28,"x_max":246,"o":"m 129 0 q 115 14 115 0 l 115 682 q 129 696 115 696 l 143 696 q 157 682 157 696 l 157 14 q 143 0 157 0 l 129 0 m 133 764 q 124 772 126 767 q 125 782 122 776 q 172 844 139 814 q 202 878 193 864 q 211 914 211 892 q 191 955 211 938 q 142 972 171 972 q 97 961 113 972 q 61 921 81 950 q 42 917 53 908 l 38 919 q 33 939 28 926 q 79 990 57 975 q 143 1006 101 1006 q 217 979 188 1006 q 246 914 246 953 q 233 863 246 883 q 192 815 219 843 q 156 774 165 792 l 153 768 q 138 763 147 758 l 133 764 z "},"ĳ":{"ha":679,"x_min":118,"x_max":561,"o":"m 178 851 q 135 868 151 851 q 118 911 118 885 q 135 953 118 936 q 178 969 151 969 q 221 953 204 969 q 238 911 238 936 q 220 868 238 885 q 178 851 203 851 m 167 1 q 153 15 153 1 l 153 683 q 167 697 153 697 l 181 697 q 194 683 194 697 l 194 15 q 181 1 194 1 l 167 1 m 501 851 q 460 868 476 851 q 443 911 443 885 q 460 953 443 936 q 501 969 476 969 q 544 953 528 969 q 561 911 561 936 q 544 868 561 885 q 501 851 528 851 m 331 -293 q 317 -279 317 -293 l 317 -268 q 331 -254 317 -254 q 440 -209 401 -250 q 479 -96 479 -168 l 479 682 q 493 696 479 696 l 507 696 q 521 682 521 696 l 521 -96 q 472 -237 521 -186 q 331 -293 422 -289 z "},"ī":{"ha":274,"x_min":-39,"x_max":314,"o":"m 129 0 q 115 14 115 0 l 115 682 q 129 696 115 696 l 143 696 q 157 682 157 696 l 157 14 q 143 0 157 0 l 129 0 m -25 838 q -39 851 -39 838 l -39 860 q -25 874 -39 874 l 300 874 q 314 860 314 874 l 314 851 q 300 838 314 838 l -25 838 z "},"į":{"ha":408,"x_min":119,"x_max":289,"o":"m 219 0 q 206 14 206 0 l 206 682 q 219 696 206 696 l 233 696 q 247 682 247 696 l 247 14 q 233 0 247 0 l 219 0 m 226 851 q 183 868 200 851 q 167 911 167 885 q 183 953 167 936 q 226 969 200 969 q 269 953 253 969 q 286 911 286 936 q 269 868 286 885 q 226 851 253 851 m 289 -239 q 276 -250 289 -249 q 236 -254 257 -254 q 163 -235 193 -254 q 122 -172 132 -215 q 119 -144 119 -153 q 203 -6 119 -69 q 221 0 210 0 l 222 0 q 235 -7 235 0 q 228 -17 235 -12 q 158 -143 158 -83 q 180 -201 158 -182 q 236 -221 201 -221 q 268 -217 251 -221 l 274 -217 q 282 -219 279 -217 q 286 -226 285 -221 l 288 -233 l 289 -239 z "},"ĩ":{"ha":274,"x_min":-39,"x_max":331,"o":"m 129 0 q 115 14 115 0 l 115 682 q 129 696 115 696 l 143 696 q 157 682 157 696 l 157 14 q 143 0 157 0 l 129 0 m 224 863 q 142 894 185 863 q 106 918 119 911 q 74 925 92 925 q 32 917 49 925 q -3 885 15 908 q -10 879 -6 881 q -19 881 -15 878 l -25 883 l -28 885 q -31 904 -39 893 q 72 963 11 963 q 111 955 94 963 q 156 931 128 947 q 174 918 160 928 q 201 903 189 908 q 225 899 214 899 q 300 940 268 899 l 303 946 q 310 951 306 950 q 319 949 315 951 l 325 944 q 331 933 331 940 q 325 919 331 926 q 278 876 306 890 q 224 863 250 863 z "},"j":{"ha":333,"x_min":-29,"x_max":215,"o":"m 156 851 q 114 868 131 851 q 97 911 97 885 q 114 953 97 936 q 156 969 131 969 q 199 953 182 969 q 215 911 215 936 q 199 868 215 885 q 156 851 182 851 m -15 -293 q -29 -279 -29 -293 l -29 -268 q -15 -254 -29 -254 q 94 -209 56 -250 q 133 -96 133 -168 l 133 682 q 147 696 133 696 l 161 696 q 175 682 175 696 l 175 -96 q 126 -237 175 -186 q -15 -293 76 -289 z "},"ȷ":{"ha":322,"x_min":-29,"x_max":175,"o":"m -15 -293 q -29 -279 -29 -293 l -29 -268 q -15 -254 -29 -254 q 94 -209 56 -250 q 133 -96 133 -168 l 133 682 q 147 696 133 696 l 161 696 q 175 682 175 696 l 175 -96 q 126 -237 175 -186 q -15 -293 76 -289 z "},"ĵ":{"ha":322,"x_min":-29,"x_max":299,"o":"m -15 -293 q -29 -279 -29 -293 l -29 -268 q -15 -254 -29 -254 q 94 -209 56 -250 q 133 -96 133 -168 l 133 682 q 147 696 133 696 l 161 696 q 175 682 175 696 l 175 -96 q 126 -237 175 -186 q -15 -293 76 -289 m 19 799 q 8 804 11 799 q 11 815 6 810 l 126 964 q 144 972 133 972 l 163 972 q 181 964 175 972 l 296 815 q 299 807 299 813 q 296 801 299 804 q 288 799 293 799 l 275 799 q 257 807 263 799 l 160 936 q 156 939 158 939 q 151 936 153 939 l 50 807 q 32 799 44 799 l 19 799 z "},"k":{"ha":669,"x_min":133,"x_max":619,"o":"m 147 0 q 133 14 133 0 l 133 958 q 147 972 133 972 l 161 972 q 175 958 175 972 l 175 335 q 177 331 175 332 q 182 332 179 329 l 536 689 q 553 696 543 696 l 574 696 q 585 691 583 696 q 581 679 588 686 l 406 501 q 404 494 403 499 l 618 17 l 619 11 q 607 0 619 0 l 592 0 q 576 11 581 0 l 376 464 q 372 467 375 467 q 368 465 369 467 l 178 274 q 175 267 175 271 l 175 14 q 161 0 175 0 l 147 0 z "},"ǩ":{"ha":669,"x_min":133,"x_max":619,"o":"m 147 0 q 133 14 133 0 l 133 958 q 147 972 133 972 l 161 972 q 175 958 175 972 l 175 335 q 177 331 175 332 q 182 332 179 329 l 536 689 q 553 696 543 696 l 574 696 q 585 691 583 696 q 581 679 588 686 l 406 501 q 404 494 403 499 l 618 17 l 619 11 q 607 0 619 0 l 592 0 q 576 11 581 0 l 376 464 q 372 467 375 467 q 368 465 369 467 l 178 274 q 175 267 175 271 l 175 14 q 161 0 175 0 l 147 0 z "},"l":{"ha":308,"x_min":133,"x_max":175,"o":"m 147 0 q 133 14 133 0 l 133 958 q 147 972 133 972 l 161 972 q 175 958 175 972 l 175 14 q 161 0 175 0 l 147 0 z "},"ĺ":{"ha":308,"x_min":117,"x_max":250,"o":"m 147 0 q 133 14 133 0 l 133 958 q 147 972 133 972 l 161 972 q 175 958 175 972 l 175 14 q 161 0 175 0 l 147 0 m 131 1067 q 119 1072 122 1067 q 121 1083 117 1076 l 207 1239 q 224 1249 211 1249 l 236 1249 q 247 1244 244 1249 q 246 1232 250 1239 l 156 1076 q 139 1067 149 1067 l 131 1067 z "},"ľ":{"ha":440,"x_min":133,"x_max":385,"o":"m 147 0 q 133 14 133 0 l 133 958 q 147 972 133 972 l 161 972 q 175 958 175 972 l 175 14 q 161 0 175 0 l 147 0 z "},"ļ":{"ha":308,"x_min":36,"x_max":175,"o":"m 147 0 q 133 14 133 0 l 133 958 q 147 972 133 972 l 161 972 q 175 958 175 972 l 175 14 q 161 0 175 0 l 147 0 z "},"ŀ":{"ha":385,"x_min":132,"x_max":251,"o":"m 186 0 q 172 14 172 0 l 172 958 q 186 972 172 972 l 200 972 q 214 958 214 972 l 214 14 q 200 0 214 0 l 186 0 z "},"ł":{"ha":400,"x_min":42,"x_max":358,"o":"m 356 579 q 358 571 358 574 q 351 561 358 565 l 218 475 q 214 468 214 471 l 214 14 q 200 0 214 0 l 186 0 q 172 14 172 0 l 172 438 q 169 442 172 440 q 165 442 167 443 l 68 379 q 60 376 63 376 q 50 383 54 376 l 44 393 q 42 401 42 399 q 47 411 42 407 l 168 489 q 172 496 172 493 l 172 958 q 186 972 172 972 l 200 972 q 214 958 214 972 l 214 526 q 217 522 214 524 q 221 522 219 521 l 331 593 q 339 596 336 596 q 350 588 346 596 l 356 579 z "},"m":{"ha":1150,"x_min":133,"x_max":1029,"o":"m 806 706 q 967 645 906 706 q 1029 482 1029 585 l 1029 14 q 1015 0 1029 0 l 1001 0 q 988 14 988 0 l 988 475 q 935 615 988 564 q 799 667 883 667 q 655 616 708 667 q 601 478 601 565 l 601 14 q 588 0 601 0 l 574 0 q 560 14 560 0 l 560 475 q 508 615 560 564 q 372 667 457 667 q 228 616 281 667 q 175 478 175 565 l 175 14 q 161 0 175 0 l 147 0 q 133 14 133 0 l 133 682 q 147 696 133 696 l 161 696 q 175 682 175 696 l 175 611 q 177 606 175 607 q 182 608 179 606 q 261 681 210 656 q 379 706 313 706 q 507 672 453 706 q 585 576 561 638 q 588 574 586 574 q 590 576 589 574 q 672 672 617 639 q 806 706 728 706 z "},"n":{"ha":743,"x_min":133,"x_max":621,"o":"m 388 706 q 556 641 490 706 q 621 472 621 576 l 621 14 q 607 0 621 0 l 593 0 q 579 14 579 0 l 579 465 q 524 610 579 554 q 382 667 468 667 q 232 612 289 667 q 175 468 175 557 l 175 14 q 161 0 175 0 l 147 0 q 133 14 133 0 l 133 682 q 147 696 133 696 l 161 696 q 175 682 175 696 l 175 604 q 177 599 175 600 q 181 601 179 599 q 264 678 211 651 q 388 706 317 706 z "},"ń":{"ha":743,"x_min":133,"x_max":621,"o":"m 388 706 q 556 641 490 706 q 621 472 621 576 l 621 14 q 607 0 621 0 l 593 0 q 579 14 579 0 l 579 465 q 524 610 579 554 q 382 667 468 667 q 232 612 289 667 q 175 468 175 557 l 175 14 q 161 0 175 0 l 147 0 q 133 14 133 0 l 133 682 q 147 696 133 696 l 161 696 q 175 682 175 696 l 175 604 q 177 599 175 600 q 181 601 179 599 q 264 678 211 651 q 388 706 317 706 m 346 790 q 335 795 338 790 q 336 807 332 800 l 422 963 q 439 972 426 972 l 451 972 q 463 967 460 972 q 461 956 465 963 l 371 800 q 354 790 364 790 l 346 790 z "},"ň":{"ha":743,"x_min":133,"x_max":621,"o":"m 388 706 q 556 641 490 706 q 621 472 621 576 l 621 14 q 607 0 621 0 l 593 0 q 579 14 579 0 l 579 465 q 524 610 579 554 q 382 667 468 667 q 232 612 289 667 q 175 468 175 557 l 175 14 q 161 0 175 0 l 147 0 q 133 14 133 0 l 133 682 q 147 696 133 696 l 161 696 q 175 682 175 696 l 175 604 q 177 599 175 600 q 181 601 179 599 q 264 678 211 651 q 388 706 317 706 m 228 956 q 225 964 225 958 q 228 969 225 967 q 236 972 231 972 l 249 972 q 267 964 261 972 l 368 835 q 372 832 369 832 q 376 835 375 832 l 474 964 q 492 972 479 972 l 504 972 q 515 967 513 972 q 513 956 518 963 l 397 807 q 379 799 392 799 l 361 799 q 343 807 349 799 l 228 956 z "},"ŋ":{"ha":743,"x_min":133,"x_max":622,"o":"m 622 279 l 622 279 l 622 -29 q 581 -169 622 -117 q 460 -226 539 -221 q 446 -212 446 -226 l 446 -203 q 460 -189 446 -189 q 549 -140 518 -183 q 581 -31 581 -97 l 581 -3 l 581 0 l 579 0 l 579 465 q 524 610 579 554 q 382 667 468 667 q 232 612 289 667 q 175 468 175 557 l 175 14 q 161 0 175 0 l 147 0 q 133 14 133 0 l 133 682 q 147 696 133 696 l 161 696 q 175 682 175 696 l 175 604 q 177 600 175 600 q 182 603 179 600 q 265 679 213 653 q 388 706 318 706 q 556 641 490 706 q 621 472 621 576 l 621 282 l 622 279 z "},"ñ":{"ha":743,"x_min":133,"x_max":621,"o":"m 388 706 q 556 641 490 706 q 621 472 621 576 l 621 14 q 607 0 621 0 l 593 0 q 579 14 579 0 l 579 465 q 524 610 579 554 q 382 667 468 667 q 232 612 289 667 q 175 468 175 557 l 175 14 q 161 0 175 0 l 147 0 q 133 14 133 0 l 133 682 q 147 696 133 696 l 161 696 q 175 682 175 696 l 175 604 q 177 599 175 600 q 181 601 179 599 q 264 678 211 651 q 388 706 317 706 m 457 863 q 375 894 418 863 q 339 918 353 911 q 307 925 325 925 q 265 917 282 925 q 231 885 249 908 q 223 879 228 881 q 214 881 218 878 l 208 883 l 206 885 q 203 904 194 893 q 306 963 244 963 q 344 955 328 963 q 389 931 361 947 q 408 918 393 928 q 435 903 422 908 q 458 899 447 899 q 533 940 501 899 l 536 946 q 544 951 539 950 q 553 949 549 951 l 558 944 q 564 933 564 940 q 558 919 564 926 q 511 876 539 890 q 457 863 483 863 z "},"o":{"ha":736,"x_min":108,"x_max":628,"o":"m 368 -11 q 206 39 272 -11 q 119 172 140 89 q 110 241 113 203 q 108 350 108 279 q 110 454 108 415 q 119 524 113 493 q 206 657 139 607 q 368 707 272 707 q 532 656 464 707 q 618 524 600 606 q 628 390 628 482 l 628 349 l 628 304 q 618 172 628 214 q 531 40 599 90 q 368 -11 464 -11 m 368 28 q 508 73 451 28 q 581 192 565 118 q 586 349 586 222 q 581 504 586 475 q 508 623 565 578 q 367 668 450 668 q 227 623 283 668 q 157 504 171 578 q 150 349 150 467 q 157 192 150 228 q 227 73 171 118 q 368 28 283 28 z "},"ó":{"ha":733,"x_min":108,"x_max":628,"o":"m 368 -11 q 206 39 272 -11 q 119 172 140 89 q 110 241 113 203 q 108 350 108 279 q 110 454 108 415 q 119 524 113 493 q 206 657 139 607 q 368 707 272 707 q 532 656 464 707 q 618 524 600 606 q 628 390 628 482 l 628 349 l 628 304 q 618 172 628 214 q 531 40 599 90 q 368 -11 464 -11 m 368 28 q 508 73 451 28 q 581 192 565 118 q 586 349 586 222 q 581 504 586 475 q 508 623 565 578 q 367 668 450 668 q 227 623 283 668 q 157 504 171 578 q 150 349 150 467 q 157 192 150 228 q 227 73 171 118 q 368 28 283 28 m 342 790 q 331 795 333 790 q 332 807 328 800 l 418 963 q 435 972 422 972 l 447 972 q 458 967 456 972 q 457 956 461 963 l 367 800 q 350 790 360 790 l 342 790 z "},"ŏ":{"ha":733,"x_min":108,"x_max":628,"o":"m 368 -11 q 206 39 272 -11 q 119 172 140 89 q 110 241 113 203 q 108 350 108 279 q 110 454 108 415 q 119 524 113 493 q 206 657 139 607 q 368 707 272 707 q 532 656 464 707 q 618 524 600 606 q 628 390 628 482 l 628 349 l 628 304 q 618 172 628 214 q 531 40 599 90 q 368 -11 464 -11 m 368 28 q 508 73 451 28 q 581 192 565 118 q 586 349 586 222 q 581 504 586 475 q 508 623 565 578 q 367 668 450 668 q 227 623 283 668 q 157 504 171 578 q 150 349 150 467 q 157 192 150 228 q 227 73 171 118 q 368 28 283 28 m 367 821 q 271 856 311 821 q 225 944 231 892 l 225 947 q 238 958 225 958 l 246 958 q 261 944 260 958 q 297 880 267 906 q 367 854 326 854 q 438 880 408 854 q 472 944 468 906 q 488 958 474 958 l 496 958 q 510 944 510 958 q 463 856 504 892 q 367 821 422 821 z "},"ô":{"ha":733,"x_min":108,"x_max":628,"o":"m 368 -11 q 206 39 272 -11 q 119 172 140 89 q 110 241 113 203 q 108 350 108 279 q 110 454 108 415 q 119 524 113 493 q 206 657 139 607 q 368 707 272 707 q 532 656 464 707 q 618 524 600 606 q 628 390 628 482 l 628 349 l 628 304 q 618 172 628 214 q 531 40 599 90 q 368 -11 464 -11 m 368 28 q 508 73 451 28 q 581 192 565 118 q 586 349 586 222 q 581 504 586 475 q 508 623 565 578 q 367 668 450 668 q 227 623 283 668 q 157 504 171 578 q 150 349 150 467 q 157 192 150 228 q 227 73 171 118 q 368 28 283 28 m 232 799 q 221 804 224 799 q 224 815 218 810 l 339 964 q 357 972 346 972 l 375 972 q 393 964 388 972 l 508 815 q 511 807 511 813 q 508 801 511 804 q 500 799 506 799 l 488 799 q 469 807 475 799 l 372 936 q 368 939 371 939 q 364 936 365 939 l 263 807 q 244 799 257 799 l 232 799 z "},"ố":{"ha":733,"x_min":108,"x_max":650,"o":"m 368 -11 q 206 39 272 -11 q 119 172 140 89 q 110 241 113 203 q 108 350 108 279 q 110 454 108 415 q 119 524 113 493 q 206 657 139 607 q 368 707 272 707 q 532 656 464 707 q 618 524 600 606 q 628 390 628 482 l 628 349 l 628 304 q 618 172 628 214 q 531 40 599 90 q 368 -11 464 -11 m 368 28 q 508 73 451 28 q 581 192 565 118 q 586 349 586 222 q 581 504 586 475 q 508 623 565 578 q 367 668 450 668 q 227 623 283 668 q 157 504 171 578 q 150 349 150 467 q 157 192 150 228 q 227 73 171 118 q 368 28 283 28 z "},"ộ":{"ha":733,"x_min":108,"x_max":628,"o":"m 368 -11 q 206 39 272 -11 q 119 172 140 89 q 110 241 113 203 q 108 350 108 279 q 110 454 108 415 q 119 524 113 493 q 206 657 139 607 q 368 707 272 707 q 532 656 464 707 q 618 524 600 606 q 628 390 628 482 l 628 349 l 628 304 q 618 172 628 214 q 531 40 599 90 q 368 -11 464 -11 m 368 28 q 508 73 451 28 q 581 192 565 118 q 586 349 586 222 q 581 504 586 475 q 508 623 565 578 q 367 668 450 668 q 227 623 283 668 q 157 504 171 578 q 150 349 150 467 q 157 192 150 228 q 227 73 171 118 q 368 28 283 28 m 368 -229 q 328 -213 344 -229 q 313 -174 313 -197 q 328 -133 313 -149 q 368 -117 344 -117 q 408 -133 392 -117 q 424 -174 424 -149 q 408 -213 424 -197 q 368 -229 392 -229 m 232 799 q 221 804 224 799 q 224 815 218 810 l 339 964 q 357 972 346 972 l 375 972 q 393 964 388 972 l 508 815 q 511 807 511 813 q 508 801 511 804 q 500 799 506 799 l 488 799 q 469 807 475 799 l 372 936 q 368 939 371 939 q 364 936 365 939 l 263 807 q 244 799 257 799 l 232 799 z "},"ồ":{"ha":733,"x_min":108,"x_max":628,"o":"m 368 -11 q 206 39 272 -11 q 119 172 140 89 q 110 241 113 203 q 108 350 108 279 q 110 454 108 415 q 119 524 113 493 q 206 657 139 607 q 368 707 272 707 q 532 656 464 707 q 618 524 600 606 q 628 390 628 482 l 628 349 l 628 304 q 618 172 628 214 q 531 40 599 90 q 368 -11 464 -11 m 368 28 q 508 73 451 28 q 581 192 565 118 q 586 349 586 222 q 581 504 586 475 q 508 623 565 578 q 367 668 450 668 q 227 623 283 668 q 157 504 171 578 q 150 349 150 467 q 157 192 150 228 q 227 73 171 118 q 368 28 283 28 z "},"ổ":{"ha":733,"x_min":108,"x_max":628,"o":"m 368 -11 q 206 39 272 -11 q 119 172 140 89 q 110 241 113 203 q 108 350 108 279 q 110 454 108 415 q 119 524 113 493 q 206 657 139 607 q 368 707 272 707 q 532 656 464 707 q 618 524 600 606 q 628 390 628 482 l 628 349 l 628 304 q 618 172 628 214 q 531 40 599 90 q 368 -11 464 -11 m 368 28 q 508 73 451 28 q 581 192 565 118 q 586 349 586 222 q 581 504 586 475 q 508 623 565 578 q 367 668 450 668 q 227 623 283 668 q 157 504 171 578 q 150 349 150 467 q 157 192 150 228 q 227 73 171 118 q 368 28 283 28 z "},"ỗ":{"ha":733,"x_min":108,"x_max":628,"o":"m 368 -11 q 206 39 272 -11 q 119 172 140 89 q 110 241 113 203 q 108 350 108 279 q 110 454 108 415 q 119 524 113 493 q 206 657 139 607 q 368 707 272 707 q 532 656 464 707 q 618 524 600 606 q 628 390 628 482 l 628 349 l 628 304 q 618 172 628 214 q 531 40 599 90 q 368 -11 464 -11 m 368 28 q 508 73 451 28 q 581 192 565 118 q 586 349 586 222 q 581 504 586 475 q 508 623 565 578 q 367 668 450 668 q 227 623 283 668 q 157 504 171 578 q 150 349 150 467 q 157 192 150 228 q 227 73 171 118 q 368 28 283 28 z "},"ö":{"ha":733,"x_min":108,"x_max":628,"o":"m 368 -11 q 206 39 272 -11 q 119 172 140 89 q 110 241 113 203 q 108 350 108 279 q 110 454 108 415 q 119 524 113 493 q 206 657 139 607 q 368 707 272 707 q 532 656 464 707 q 618 524 600 606 q 628 390 628 482 l 628 349 l 628 304 q 618 172 628 214 q 531 40 599 90 q 368 -11 464 -11 m 368 28 q 508 73 451 28 q 581 192 565 118 q 586 349 586 222 q 581 504 586 475 q 508 623 565 578 q 367 668 450 668 q 227 623 283 668 q 157 504 171 578 q 150 349 150 467 q 157 192 150 228 q 227 73 171 118 q 368 28 283 28 z "},"ọ":{"ha":733,"x_min":108,"x_max":628,"o":"m 368 -11 q 206 39 272 -11 q 119 172 140 89 q 110 241 113 203 q 108 350 108 279 q 110 454 108 415 q 119 524 113 493 q 206 657 139 607 q 368 707 272 707 q 532 656 464 707 q 618 524 600 606 q 628 390 628 482 l 628 349 l 628 304 q 618 172 628 214 q 531 40 599 90 q 368 -11 464 -11 m 368 28 q 508 73 451 28 q 581 192 565 118 q 586 349 586 222 q 581 504 586 475 q 508 623 565 578 q 367 668 450 668 q 227 623 283 668 q 157 504 171 578 q 150 349 150 467 q 157 192 150 228 q 227 73 171 118 q 368 28 283 28 m 368 -229 q 328 -213 344 -229 q 313 -174 313 -197 q 328 -133 313 -149 q 368 -117 344 -117 q 408 -133 392 -117 q 424 -174 424 -149 q 408 -213 424 -197 q 368 -229 392 -229 z "},"ò":{"ha":733,"x_min":108,"x_max":628,"o":"m 368 -11 q 206 39 272 -11 q 119 172 140 89 q 110 241 113 203 q 108 350 108 279 q 110 454 108 415 q 119 524 113 493 q 206 657 139 607 q 368 707 272 707 q 532 656 464 707 q 618 524 600 606 q 628 390 628 482 l 628 349 l 628 304 q 618 172 628 214 q 531 40 599 90 q 368 -11 464 -11 m 368 28 q 508 73 451 28 q 581 192 565 118 q 586 349 586 222 q 581 504 586 475 q 508 623 565 578 q 367 668 450 668 q 227 623 283 668 q 157 504 171 578 q 150 349 150 467 q 157 192 150 228 q 227 73 171 118 q 368 28 283 28 m 382 807 q 385 799 385 801 q 374 790 385 790 l 365 790 q 349 800 356 790 l 258 956 q 256 964 256 961 q 268 972 256 972 l 281 972 q 297 963 293 972 l 382 807 z "},"ỏ":{"ha":733,"x_min":108,"x_max":628,"o":"m 368 -11 q 206 39 272 -11 q 119 172 140 89 q 110 241 113 203 q 108 350 108 279 q 110 454 108 415 q 119 524 113 493 q 206 657 139 607 q 368 707 272 707 q 532 656 464 707 q 618 524 600 606 q 628 390 628 482 l 628 349 l 628 304 q 618 172 628 214 q 531 40 599 90 q 368 -11 464 -11 m 368 28 q 508 73 451 28 q 581 192 565 118 q 586 349 586 222 q 581 504 586 475 q 508 623 565 578 q 367 668 450 668 q 227 623 283 668 q 157 504 171 578 q 150 349 150 467 q 157 192 150 228 q 227 73 171 118 q 368 28 283 28 m 363 764 q 353 772 356 767 q 354 782 351 776 q 401 844 368 814 q 431 878 422 864 q 440 914 440 892 q 420 955 440 938 q 371 972 400 972 q 326 961 342 972 q 290 921 310 950 q 271 917 282 908 l 267 919 q 263 939 257 926 q 308 990 286 975 q 372 1006 331 1006 q 446 979 417 1006 q 475 914 475 953 q 462 863 475 883 q 421 815 449 843 q 385 774 394 792 l 382 768 q 367 763 376 758 l 363 764 z "},"ơ":{"ha":733,"x_min":108,"x_max":628,"o":"m 628 304 q 618 172 628 214 q 531 40 599 90 q 368 -11 464 -11 q 206 39 272 -11 q 119 172 140 89 q 110 241 113 203 q 108 350 108 279 q 110 454 108 415 q 119 524 113 493 q 206 657 139 607 q 368 707 272 707 q 447 697 403 707 q 454 696 449 696 q 519 724 492 699 q 551 789 547 750 q 567 803 553 803 l 576 803 q 587 799 583 803 q 589 789 590 794 q 565 722 586 751 q 511 676 544 693 q 511 669 504 674 q 581 608 553 646 q 618 524 608 569 q 628 390 628 482 l 628 349 l 628 304 m 581 192 q 586 349 586 222 q 581 504 586 475 q 508 623 565 578 q 367 668 450 668 q 227 623 283 668 q 157 504 171 578 q 150 349 150 467 q 157 192 150 228 q 227 73 171 118 q 368 28 283 28 q 508 73 451 28 q 581 192 565 118 z "},"ớ":{"ha":733,"x_min":108,"x_max":628,"o":"m 628 304 q 618 172 628 214 q 531 40 599 90 q 368 -11 464 -11 q 206 39 272 -11 q 119 172 140 89 q 110 241 113 203 q 108 350 108 279 q 110 454 108 415 q 119 524 113 493 q 206 657 139 607 q 368 707 272 707 q 447 697 403 707 q 454 696 449 696 q 519 724 492 699 q 551 789 547 750 q 567 803 553 803 l 576 803 q 587 799 583 803 q 589 789 590 794 q 565 722 586 751 q 511 676 544 693 q 511 669 504 674 q 581 608 553 646 q 618 524 608 569 q 628 390 628 482 l 628 349 l 628 304 m 581 192 q 586 349 586 222 q 581 504 586 475 q 508 623 565 578 q 367 668 450 668 q 227 623 283 668 q 157 504 171 578 q 150 349 150 467 q 157 192 150 228 q 227 73 171 118 q 368 28 283 28 q 508 73 451 28 q 581 192 565 118 m 342 790 q 331 795 333 790 q 332 807 328 800 l 418 963 q 435 972 422 972 l 447 972 q 458 967 456 972 q 457 956 461 963 l 367 800 q 350 790 360 790 l 342 790 z "},"ợ":{"ha":733,"x_min":108,"x_max":628,"o":"m 628 304 q 618 172 628 214 q 531 40 599 90 q 368 -11 464 -11 q 206 39 272 -11 q 119 172 140 89 q 110 241 113 203 q 108 350 108 279 q 110 454 108 415 q 119 524 113 493 q 206 657 139 607 q 368 707 272 707 q 447 697 403 707 q 454 696 449 696 q 519 724 492 699 q 551 789 547 750 q 567 803 553 803 l 576 803 q 587 799 583 803 q 589 789 590 794 q 565 722 586 751 q 511 676 544 693 q 511 669 504 674 q 581 608 553 646 q 618 524 608 569 q 628 390 628 482 l 628 349 l 628 304 m 581 192 q 586 349 586 222 q 581 504 586 475 q 508 623 565 578 q 367 668 450 668 q 227 623 283 668 q 157 504 171 578 q 150 349 150 467 q 157 192 150 228 q 227 73 171 118 q 368 28 283 28 q 508 73 451 28 q 581 192 565 118 m 368 -229 q 328 -213 344 -229 q 313 -174 313 -197 q 328 -133 313 -149 q 368 -117 344 -117 q 408 -133 392 -117 q 424 -174 424 -149 q 408 -213 424 -197 q 368 -229 392 -229 z "},"ờ":{"ha":733,"x_min":108,"x_max":628,"o":"m 628 304 q 618 172 628 214 q 531 40 599 90 q 368 -11 464 -11 q 206 39 272 -11 q 119 172 140 89 q 110 241 113 203 q 108 350 108 279 q 110 454 108 415 q 119 524 113 493 q 206 657 139 607 q 368 707 272 707 q 447 697 403 707 q 454 696 449 696 q 519 724 492 699 q 551 789 547 750 q 567 803 553 803 l 576 803 q 587 799 583 803 q 589 789 590 794 q 565 722 586 751 q 511 676 544 693 q 511 669 504 674 q 581 608 553 646 q 618 524 608 569 q 628 390 628 482 l 628 349 l 628 304 m 581 192 q 586 349 586 222 q 581 504 586 475 q 508 623 565 578 q 367 668 450 668 q 227 623 283 668 q 157 504 171 578 q 150 349 150 467 q 157 192 150 228 q 227 73 171 118 q 368 28 283 28 q 508 73 451 28 q 581 192 565 118 m 382 807 q 385 799 385 801 q 374 790 385 790 l 365 790 q 349 800 356 790 l 258 956 q 256 964 256 961 q 268 972 256 972 l 281 972 q 297 963 293 972 l 382 807 z "},"ở":{"ha":733,"x_min":108,"x_max":628,"o":"m 628 304 q 618 172 628 214 q 531 40 599 90 q 368 -11 464 -11 q 206 39 272 -11 q 119 172 140 89 q 110 241 113 203 q 108 350 108 279 q 110 454 108 415 q 119 524 113 493 q 206 657 139 607 q 368 707 272 707 q 447 697 403 707 q 454 696 449 696 q 519 724 492 699 q 551 789 547 750 q 567 803 553 803 l 576 803 q 587 799 583 803 q 589 789 590 794 q 565 722 586 751 q 511 676 544 693 q 511 669 504 674 q 581 608 553 646 q 618 524 608 569 q 628 390 628 482 l 628 349 l 628 304 m 581 192 q 586 349 586 222 q 581 504 586 475 q 508 623 565 578 q 367 668 450 668 q 227 623 283 668 q 157 504 171 578 q 150 349 150 467 q 157 192 150 228 q 227 73 171 118 q 368 28 283 28 q 508 73 451 28 q 581 192 565 118 m 363 764 q 353 772 356 767 q 354 782 351 776 q 401 844 368 814 q 431 878 422 864 q 440 914 440 892 q 420 955 440 938 q 371 972 400 972 q 326 961 342 972 q 290 921 310 950 q 271 917 282 908 l 267 919 q 263 939 257 926 q 308 990 286 975 q 372 1006 331 1006 q 446 979 417 1006 q 475 914 475 953 q 462 863 475 883 q 421 815 449 843 q 385 774 394 792 l 382 768 q 367 763 376 758 l 363 764 z "},"ỡ":{"ha":733,"x_min":108,"x_max":628,"o":"m 628 304 q 618 172 628 214 q 531 40 599 90 q 368 -11 464 -11 q 206 39 272 -11 q 119 172 140 89 q 110 241 113 203 q 108 350 108 279 q 110 454 108 415 q 119 524 113 493 q 206 657 139 607 q 368 707 272 707 q 447 697 403 707 q 454 696 449 696 q 519 724 492 699 q 551 789 547 750 q 567 803 553 803 l 576 803 q 587 799 583 803 q 589 789 590 794 q 565 722 586 751 q 511 676 544 693 q 511 669 504 674 q 581 608 553 646 q 618 524 608 569 q 628 390 628 482 l 628 349 l 628 304 m 581 192 q 586 349 586 222 q 581 504 586 475 q 508 623 565 578 q 367 668 450 668 q 227 623 283 668 q 157 504 171 578 q 150 349 150 467 q 157 192 150 228 q 227 73 171 118 q 368 28 283 28 q 508 73 451 28 q 581 192 565 118 m 450 864 q 368 896 411 864 q 332 919 346 913 q 300 926 318 926 q 258 918 275 926 q 224 886 242 910 q 216 881 221 882 q 207 882 211 879 l 201 885 l 199 886 q 196 906 188 894 q 299 964 238 964 q 338 956 321 964 q 382 932 354 949 q 401 919 386 929 q 428 905 415 910 q 451 900 440 900 q 526 942 494 900 l 529 947 q 537 952 532 951 q 546 950 542 953 l 551 946 q 557 935 557 942 q 551 921 557 928 q 504 878 532 892 q 450 864 476 864 z "},"ő":{"ha":733,"x_min":108,"x_max":628,"o":"m 368 -11 q 206 39 272 -11 q 119 172 140 89 q 110 241 113 203 q 108 350 108 279 q 110 454 108 415 q 119 524 113 493 q 206 657 139 607 q 368 707 272 707 q 532 656 464 707 q 618 524 600 606 q 628 390 628 482 l 628 349 l 628 304 q 618 172 628 214 q 531 40 599 90 q 368 -11 464 -11 m 368 28 q 508 73 451 28 q 581 192 565 118 q 586 349 586 222 q 581 504 586 475 q 508 623 565 578 q 367 668 450 668 q 227 623 283 668 q 157 504 171 578 q 150 349 150 467 q 157 192 150 228 q 227 73 171 118 q 368 28 283 28 m 247 790 q 236 795 239 790 q 238 807 233 800 l 322 963 q 339 972 326 972 l 351 972 q 363 967 360 972 q 361 956 365 963 l 272 800 q 256 790 265 790 l 247 790 m 461 790 q 450 795 453 790 q 451 807 447 800 l 536 963 q 553 972 540 972 l 565 972 q 576 967 574 972 q 575 956 579 963 l 486 800 q 469 790 479 790 l 461 790 z "},"ō":{"ha":733,"x_min":108,"x_max":628,"o":"m 368 -11 q 206 39 272 -11 q 119 172 140 89 q 110 241 113 203 q 108 350 108 279 q 110 454 108 415 q 119 524 113 493 q 206 657 139 607 q 368 707 272 707 q 532 656 464 707 q 618 524 600 606 q 628 390 628 482 l 628 349 l 628 304 q 618 172 628 214 q 531 40 599 90 q 368 -11 464 -11 m 368 28 q 508 73 451 28 q 581 192 565 118 q 586 349 586 222 q 581 504 586 475 q 508 623 565 578 q 367 668 450 668 q 227 623 283 668 q 157 504 171 578 q 150 349 150 467 q 157 192 150 228 q 227 73 171 118 q 368 28 283 28 m 204 838 q 190 851 190 838 l 190 860 q 204 874 190 874 l 529 874 q 543 860 543 874 l 543 851 q 529 838 543 838 l 204 838 z "},"ø":{"ha":729,"x_min":101,"x_max":626,"o":"m 626 304 q 617 172 626 214 q 530 40 597 90 q 367 -11 463 -11 q 189 51 260 -11 q 182 50 185 56 l 142 -11 q 133 -17 139 -17 q 122 -14 128 -18 l 113 -7 q 108 11 101 0 l 156 83 q 156 92 158 88 q 118 172 132 124 q 109 241 111 203 q 107 350 107 279 q 109 454 107 415 q 118 524 111 493 q 204 657 138 607 q 367 707 271 707 q 529 657 461 707 q 536 658 535 654 l 576 719 q 585 726 579 725 q 596 722 590 726 l 608 714 q 611 696 618 707 l 568 629 q 568 621 567 625 q 617 524 604 581 q 626 390 626 482 l 626 349 l 626 304 m 156 192 q 178 129 161 160 q 182 126 179 126 q 186 128 185 125 l 508 615 q 507 622 511 621 q 365 668 449 668 q 226 623 282 668 q 156 504 169 578 q 149 349 149 467 q 156 192 149 228 m 579 192 q 585 349 585 222 q 579 504 585 475 q 544 583 568 553 q 540 586 543 586 q 536 583 538 586 l 210 93 q 211 85 207 89 q 367 28 271 28 q 507 73 450 28 q 579 192 564 118 z "},"ǿ":{"ha":729,"x_min":101,"x_max":626,"o":"m 626 304 q 617 172 626 214 q 530 40 597 90 q 367 -11 463 -11 q 189 51 260 -11 q 182 50 185 56 l 142 -11 q 133 -17 139 -17 q 122 -14 128 -18 l 113 -7 q 108 11 101 0 l 156 83 q 156 92 158 88 q 118 172 132 124 q 109 241 111 203 q 107 350 107 279 q 109 454 107 415 q 118 524 111 493 q 204 657 138 607 q 367 707 271 707 q 529 657 461 707 q 536 658 535 654 l 576 719 q 585 726 579 725 q 596 722 590 726 l 608 714 q 611 696 618 707 l 568 629 q 568 621 567 625 q 617 524 604 581 q 626 390 626 482 l 626 349 l 626 304 m 156 192 q 178 129 161 160 q 182 126 179 126 q 186 128 185 125 l 508 615 q 507 622 511 621 q 365 668 449 668 q 226 623 282 668 q 156 504 169 578 q 149 349 149 467 q 156 192 149 228 m 579 192 q 585 349 585 222 q 579 504 585 475 q 544 583 568 553 q 540 586 543 586 q 536 583 538 586 l 210 93 q 211 85 207 89 q 367 28 271 28 q 507 73 450 28 q 579 192 564 118 m 342 790 q 331 795 333 790 q 332 807 328 800 l 418 963 q 435 972 422 972 l 447 972 q 458 967 456 972 q 457 956 461 963 l 367 800 q 350 790 360 790 l 342 790 z "},"õ":{"ha":733,"x_min":108,"x_max":628,"o":"m 368 -11 q 206 39 272 -11 q 119 172 140 89 q 110 241 113 203 q 108 350 108 279 q 110 454 108 415 q 119 524 113 493 q 206 657 139 607 q 368 707 272 707 q 532 656 464 707 q 618 524 600 606 q 628 390 628 482 l 628 349 l 628 304 q 618 172 628 214 q 531 40 599 90 q 368 -11 464 -11 m 368 28 q 508 73 451 28 q 581 192 565 118 q 586 349 586 222 q 581 504 586 475 q 508 623 565 578 q 367 668 450 668 q 227 623 283 668 q 157 504 171 578 q 150 349 150 467 q 157 192 150 228 q 227 73 171 118 q 368 28 283 28 m 453 863 q 371 894 414 863 q 335 918 349 911 q 303 925 321 925 q 261 917 278 925 q 226 885 244 908 q 219 879 224 881 q 210 881 214 878 l 204 883 l 201 885 q 199 904 190 893 q 301 963 240 963 q 340 955 324 963 q 385 931 357 947 q 403 918 389 928 q 431 903 418 908 q 454 899 443 899 q 529 940 497 899 l 532 946 q 540 951 535 950 q 549 949 544 951 l 554 944 q 560 933 560 940 q 554 919 560 926 q 507 876 535 890 q 453 863 479 863 z "},"œ":{"ha":1181,"x_min":108,"x_max":1076,"o":"m 825 28 q 949 63 896 28 q 1022 154 1001 97 q 1039 165 1026 167 l 1049 164 q 1058 158 1056 163 q 1060 147 1061 153 q 972 32 1035 75 q 822 -11 910 -11 q 685 28 744 -11 q 596 132 625 67 q 593 135 594 135 q 590 132 592 135 q 500 28 561 67 q 360 -11 439 -11 q 203 39 267 -11 q 119 172 140 89 q 108 310 108 215 l 108 363 q 110 459 108 424 q 119 524 113 494 q 203 656 139 606 q 360 707 268 707 q 499 667 438 707 q 589 564 561 628 q 596 564 593 557 q 684 668 624 629 q 822 707 744 707 q 981 656 915 707 q 1067 524 1046 606 q 1075 467 1074 496 q 1076 357 1076 438 q 1063 342 1076 342 l 618 342 q 613 336 613 342 q 618 192 613 218 q 687 73 632 118 q 825 28 742 28 m 565 192 q 569 283 569 213 l 569 349 l 569 417 q 565 504 569 485 q 496 623 551 578 q 360 668 440 668 q 225 623 279 668 q 157 504 171 578 q 151 441 153 483 q 150 349 150 399 q 151 253 150 296 q 157 192 153 211 q 225 73 171 118 q 360 28 279 28 q 496 73 440 28 q 565 192 551 118 m 822 668 q 687 623 742 668 q 618 504 632 578 q 613 381 613 471 q 618 375 613 375 l 1028 375 q 1033 381 1033 375 q 1028 504 1033 472 q 958 623 1013 578 q 822 668 903 668 z "},"p":{"ha":754,"x_min":146,"x_max":644,"o":"m 635 524 q 644 393 644 482 l 644 350 l 644 306 q 635 172 644 214 q 552 39 617 89 q 393 -11 488 -11 q 276 17 326 -11 q 194 97 225 46 q 190 101 193 101 q 188 96 188 100 l 188 -262 q 174 -276 188 -276 l 160 -276 q 146 -262 146 -276 l 146 682 q 160 696 146 696 l 174 696 q 188 682 188 696 l 188 601 q 190 597 188 597 q 194 599 192 596 q 275 678 224 650 q 393 707 326 707 q 551 657 486 707 q 635 524 615 607 m 593 186 q 601 238 599 210 q 603 347 603 265 q 601 459 603 432 q 594 508 600 486 q 526 624 583 579 q 389 668 469 668 q 260 623 310 668 q 196 510 210 578 q 189 461 190 489 q 188 349 188 433 q 190 241 188 269 q 196 186 192 213 q 260 73 208 118 q 389 28 311 28 q 525 73 469 28 q 593 186 581 118 z "},"þ":{"ha":740,"x_min":133,"x_max":632,"o":"m 632 297 q 624 172 632 215 q 540 40 604 90 q 383 -11 475 -11 q 263 18 314 -11 q 182 99 211 47 q 178 102 181 103 q 175 97 175 101 l 175 -264 q 161 -278 175 -278 l 147 -278 q 133 -264 133 -278 l 133 958 q 147 972 133 972 l 161 972 q 175 958 175 972 l 175 597 q 178 592 175 593 q 182 596 181 592 q 262 678 211 649 q 382 707 313 707 q 540 657 475 707 q 622 525 606 607 q 632 390 632 482 l 632 346 l 632 297 m 583 190 q 589 244 588 218 q 590 349 590 271 q 589 454 590 428 q 583 506 588 481 q 514 622 571 575 q 376 668 457 668 q 244 622 296 668 q 181 506 192 575 q 175 460 176 488 l 175 231 l 179 192 q 243 75 192 122 q 376 28 294 28 q 515 74 458 28 q 583 190 572 119 z "},"q":{"ha":754,"x_min":108,"x_max":608,"o":"m 567 682 q 581 696 567 696 l 594 696 q 608 682 608 696 l 608 -262 q 594 -276 608 -276 l 581 -276 q 567 -262 567 -276 l 567 96 q 565 101 567 100 q 560 99 563 101 q 479 18 531 47 q 361 -11 428 -11 q 202 39 267 -11 q 118 172 138 89 q 110 240 111 203 q 108 350 108 278 q 110 457 108 421 q 119 524 113 493 q 203 657 139 607 q 361 707 268 707 q 479 678 428 707 q 560 599 531 650 q 565 597 563 596 q 567 601 567 597 l 567 682 m 558 186 q 565 241 563 213 q 567 349 567 269 q 565 458 567 429 q 558 510 563 486 q 494 623 544 578 q 364 668 443 668 q 228 624 285 668 q 160 508 171 579 q 152 456 154 485 q 150 347 150 428 q 152 241 150 269 q 160 186 154 213 q 229 73 174 118 q 364 28 285 28 q 494 73 443 28 q 558 186 546 118 z "},"r":{"ha":490,"x_min":133,"x_max":467,"o":"m 374 701 q 456 686 422 701 q 463 668 467 682 l 456 651 q 438 643 451 639 q 369 656 410 656 q 269 625 314 656 q 200 544 225 594 q 175 433 175 493 l 175 14 q 161 0 175 0 l 147 0 q 133 14 133 0 l 133 682 q 147 696 133 696 l 161 696 q 175 682 175 696 l 175 575 q 177 570 175 571 q 181 574 179 569 q 259 667 210 633 q 374 701 308 701 z "},"ŕ":{"ha":490,"x_min":133,"x_max":467,"o":"m 374 701 q 456 686 422 701 q 463 668 467 682 l 456 651 q 438 643 451 639 q 369 656 410 656 q 269 625 314 656 q 200 544 225 594 q 175 433 175 493 l 175 14 q 161 0 175 0 l 147 0 q 133 14 133 0 l 133 682 q 147 696 133 696 l 161 696 q 175 682 175 696 l 175 575 q 177 570 175 571 q 181 574 179 569 q 259 667 210 633 q 374 701 308 701 m 278 790 q 267 795 269 790 q 268 807 264 800 l 354 963 q 371 972 358 972 l 383 972 q 394 967 392 972 q 393 956 397 963 l 303 800 q 286 790 296 790 l 278 790 z "},"ř":{"ha":490,"x_min":133,"x_max":467,"o":"m 374 701 q 456 686 422 701 q 463 668 467 682 l 456 651 q 438 643 451 639 q 369 656 410 656 q 269 625 314 656 q 200 544 225 594 q 175 433 175 493 l 175 14 q 161 0 175 0 l 147 0 q 133 14 133 0 l 133 682 q 147 696 133 696 l 161 696 q 175 682 175 696 l 175 575 q 177 570 175 571 q 181 574 179 569 q 259 667 210 633 q 374 701 308 701 m 160 956 q 157 964 157 958 q 160 969 157 967 q 168 972 163 972 l 181 972 q 199 964 193 972 l 300 835 q 304 832 301 832 q 308 835 307 832 l 406 964 q 424 972 411 972 l 436 972 q 447 967 444 972 q 444 956 450 963 l 329 807 q 311 799 324 799 l 293 799 q 275 807 281 799 l 160 956 z "},"s":{"ha":656,"x_min":94,"x_max":569,"o":"m 335 -6 q 210 18 264 -6 q 125 82 156 42 q 94 171 94 122 l 94 192 q 108 206 94 206 l 121 206 q 135 192 135 206 l 135 172 q 160 102 135 135 q 230 50 185 69 q 333 31 275 31 q 474 73 419 31 q 528 181 528 115 q 501 254 528 226 q 437 297 474 282 q 324 335 400 311 q 204 378 250 358 q 128 434 158 399 q 97 524 97 469 q 162 653 97 604 q 331 701 226 701 q 501 651 436 701 q 567 525 567 601 l 567 521 q 553 507 567 507 l 539 507 q 525 521 525 507 l 525 525 q 471 624 525 585 q 329 664 417 664 q 190 626 243 664 q 138 526 138 588 q 163 458 138 485 q 226 413 188 431 q 332 375 264 396 q 458 331 413 350 q 537 276 504 313 q 569 182 569 240 q 505 47 569 100 q 335 -6 440 -6 z "},"ś":{"ha":656,"x_min":94,"x_max":569,"o":"m 335 -6 q 210 18 264 -6 q 125 82 156 42 q 94 171 94 122 l 94 192 q 108 206 94 206 l 121 206 q 135 192 135 206 l 135 172 q 160 102 135 135 q 230 50 185 69 q 333 31 275 31 q 474 73 419 31 q 528 181 528 115 q 501 254 528 226 q 437 297 474 282 q 324 335 400 311 q 204 378 250 358 q 128 434 158 399 q 97 524 97 469 q 162 653 97 604 q 331 701 226 701 q 501 651 436 701 q 567 525 567 601 l 567 521 q 553 507 567 507 l 539 507 q 525 521 525 507 l 525 525 q 471 624 525 585 q 329 664 417 664 q 190 626 243 664 q 138 526 138 588 q 163 458 138 485 q 226 413 188 431 q 332 375 264 396 q 458 331 413 350 q 537 276 504 313 q 569 182 569 240 q 505 47 569 100 q 335 -6 440 -6 m 306 790 q 294 795 297 790 q 296 807 292 800 l 382 963 q 399 972 386 972 l 411 972 q 422 967 419 972 q 421 956 425 963 l 331 800 q 314 790 324 790 l 306 790 z "},"š":{"ha":656,"x_min":94,"x_max":569,"o":"m 335 -6 q 210 18 264 -6 q 125 82 156 42 q 94 171 94 122 l 94 192 q 108 206 94 206 l 121 206 q 135 192 135 206 l 135 172 q 160 102 135 135 q 230 50 185 69 q 333 31 275 31 q 474 73 419 31 q 528 181 528 115 q 501 254 528 226 q 437 297 474 282 q 324 335 400 311 q 204 378 250 358 q 128 434 158 399 q 97 524 97 469 q 162 653 97 604 q 331 701 226 701 q 501 651 436 701 q 567 525 567 601 l 567 521 q 553 507 567 507 l 539 507 q 525 521 525 507 l 525 525 q 471 624 525 585 q 329 664 417 664 q 190 626 243 664 q 138 526 138 588 q 163 458 138 485 q 226 413 188 431 q 332 375 264 396 q 458 331 413 350 q 537 276 504 313 q 569 182 569 240 q 505 47 569 100 q 335 -6 440 -6 m 188 956 q 185 964 185 958 q 188 969 185 967 q 196 972 190 972 l 208 972 q 226 964 221 972 l 328 835 q 332 832 329 832 q 336 835 335 832 l 433 964 q 451 972 439 972 l 464 972 q 475 967 472 972 q 472 956 478 963 l 357 807 q 339 799 351 799 l 321 799 q 303 807 308 799 l 188 956 z "},"ş":{"ha":656,"x_min":94,"x_max":569,"o":"m 569 182 q 513 53 569 106 q 360 -6 456 1 q 356 -8 356 -6 q 358 -11 356 -10 q 435 -144 435 -74 q 401 -228 435 -203 q 319 -254 368 -254 q 278 -250 297 -254 q 268 -233 264 -249 l 268 -232 l 271 -226 q 286 -218 274 -215 q 315 -221 306 -221 q 374 -202 351 -221 q 397 -144 397 -183 q 374 -74 397 -110 q 314 -7 351 -37 q 307 -4 313 -4 q 153 52 213 1 q 94 171 94 103 l 94 192 q 108 206 94 206 l 121 206 q 135 192 135 206 l 135 172 q 160 102 135 135 q 230 50 185 69 q 333 31 275 31 q 474 73 419 31 q 528 181 528 115 q 501 254 528 226 q 437 297 474 282 q 324 335 400 311 q 204 378 250 358 q 128 434 158 399 q 97 524 97 469 q 162 653 97 604 q 331 701 226 701 q 501 651 436 701 q 567 525 567 601 l 567 521 q 553 507 567 507 l 539 507 q 525 521 525 507 l 525 525 q 471 624 525 585 q 329 664 417 664 q 190 626 243 664 q 138 526 138 588 q 163 458 138 485 q 226 413 188 431 q 332 375 264 396 q 458 331 413 350 q 537 276 504 313 q 569 182 569 240 z "}}}
